{
.appVersion = "3091";
DisplayStrings = (
"AÁ/Abreve ÂÄÀ/Amacron/Aogonek Å/tilde ÃÆ/AEacute BC/Cacute/Ccaron Ç/Cdotaccent DÐ/Dcaron/Dcroat EÉ/Ebreve/caron/Ecaron ÊË/Edotaccent È/Emacron/Eogonek/Etilde FG/Gbreve/Gcommaaccent/Gdotaccent HIÍ/Ibreve ÎÏ/Idotaccent Ì/Imacron/Iogonek/Itilde JK/Kcommaaccent L/Lacute/Lcaron/Lcommaaccent/Ldot/Lslash MN/Nacute/Ncaron/Ncommaaccent ÑOÓ/Obreve ÔÖÒ/Ohungarumlaut/Omacron ØÕ/OE PÞQR/Racute/Rcaron/Rcommaaccent S/Sacute/Scaron/Scedilla/Scommaaccent T/Tcaron/Tcedilla/Tcommaaccent UÚ/Ubreve ÛÜÙ/Uhungarumlaut/Umacron/Uogonek/Uring/Utilde VW/Wacute W/Wcircumflex/Wdieresis/Wgrave XYÝ/Ycircumflex/Ydieresis/Ygrave/Ytilde Z/Zacute/Zcaron/Zdotaccent/a.old á/abreve âäà/amacron a/aogonek åãæ/aeacute bc/cacute/ccaron ç/cdotaccent dð/dcaron/dcroat eé/ebreve/ecaron êë/edotaccent è/emacron e/eogonek/etilde fg/gbreve/gcommaaccent/gdotaccent hií/ibreve îïì/imacron/iogonek/itilde jk/kcommaaccent l/lacute/lcaron/lcommaaccent/ldot/lslash mn/nacute/ncaron/ncommaaccent ñoó/obreve ôöò/ohungarumlaut/omacron øõ/oe pþqr/racute/rcaron/rcommaaccent s/sacute/scaron/scedilla/scommaaccent ßt/tcaron/tcedilla/tcommaaccent uú/ubreve ûüù/uhungarumlaut/umacron/uogonek/uring/utilde vw/wacute/wcircumflex/wdieresis/wgrave xyý/ycircumflex/ydieresis/ygrave/ytilde z/zacute/zcaron/zdotaccent/fi/fl ªº/pi/Schwa/schwa a",
C
);
classes = (
{
code = "colon exclam period question semicolon quotedblleft quotedblright quoteleft quoteright questiondown exclamdown periodcentered ellipsis comma divide";
name = circular_punctuation;
},
{
code = "colon.ss01 exclam.ss01 period.ss01 question.ss01 semicolon.ss01 quotedblleft.ss01 quotedblright.ss01 quoteleft.ss01 quoteright.ss01 questiondown.ss01 exclamdown.ss01 periodcentered.ss01 ellipsis.ss01 comma.ss01 divide.ss01";
name = square_punctuation;
},
{
code = "a.old aacute abreve acircumflex adieresis agrave amacron aogonek aring atilde";
name = single_storey_a;
}
);

glyphs = (
{
glyphname = A;
lastChange = "2021-08-04 13:02:33 +0000";
layers = (
{
anchors = (
{
name = ogonek;
position = "{530.27, 0}";
},
{
name = top;
position = "{400.27, 697}";
}
);
hints = (
{
horizontal = 1;
place = "{700, -20}";
target = down;
type = TopGhost;
},
{
horizontal = 1;
place = "{0, 21}";
target = up;
type = BottomGhost;
}
);
layerId = "34B89C21-4068-454A-BBBC-B9295C834BF9";
paths = (
{
closed = 1;
nodes = (
"-16.22 0.051 LINE",
"106.334 210.942 LINE",
"497.184 210.942 LINE",
"535.28 0.051 LINE",
"558.28 0.051 LINE",
"430.181 700.038 LINE",
"368.181 700.038 LINE",
"-39.22 0.051 LINE"
);
},
{
closed = 1;
nodes = (
"493.944 228.84 LINE",
"116.694 228.84 LINE",
"380.071 682.141 LINE",
"412.121 682.141 LINE"
);
}
);
width = 618.5;
},
{
anchors = (
{
name = ogonek;
position = "{588.62, 0}";
},
{
name = top;
position = "{445.62, 700}";
}
);
hints = (
{
horizontal = 1;
place = "{174, 93}";
type = Stem;
},
{
horizontal = 1;
place = "{700, -20}";
target = down;
type = TopGhost;
},
{
horizontal = 1;
place = "{0, 21}";
target = up;
type = BottomGhost;
}
);
layerId = "24A19461-EE5C-48C0-A968-CC082199DAC2";
paths = (
{
closed = 1;
nodes = (
"77.72 0 LINE",
"172.679 174 LINE",
"509.939 173.8 LINE",
"535.52 0 LINE",
"655.47 0 LINE",
"546.02 700.35 LINE",
"346.82 700.35 LINE",
"-41.23 0 LINE"
);
},
{
closed = 1;
nodes = (
"496.186 267.05 LINE",
"223.646 267.35 LINE",
"409.182 607.4 LINE",
"446.082 607.4 LINE"
);
}
);
width = 713.7;
},
{
anchors = (
{
name = ogonek;
position = "{726.92, 1}";
},
{
name = top;
position = "{526.92, 700}";
}
);
hints = (
{
horizontal = 1;
place = "{123, 166}";
type = Stem;
},
{
horizontal = 1;
place = "{523, 177}";
type = Stem;
},
{
horizontal = 1;
place = "{0, 21}";
target = up;
type = BottomGhost;
}
);
layerId = "C06476A3-BC65-42D9-AE82-BE67E4874885";
paths = (
{
closed = 1;
nodes = (
"186.62 0 LINE",
"251.994 123.3 LINE",
"572.044 123.3 LINE",
"588.22 0 LINE",
"822.57 0 LINE",
"702.86 700.05 LINE",
"352.46 700.05 LINE",
"-46.73 0 LINE"
);
},
{
closed = 1;
nodes = (
"550.311 289.55 LINE",
"340.111 289.55 LINE",
"463.905 523.05 LINE",
"519.755 523.05 LINE"
);
}
);
width = 875.3;
},
{
anchors = (
{
name = ogonek;
position = "{776.65, 1}";
},
{
name = top;
position = "{437.65, 700}";
}
);
hints = (
{
horizontal = 1;
place = "{523, 177}";
type = Stem;
},
{
horizontal = 1;
place = "{123, 166}";
type = Stem;
},
{
horizontal = 1;
place = "{0, 21}";
target = up;
type = BottomGhost;
}
);
layerId = "F6DDAB16-9378-41C6-AF32-8CCAF9117681";
paths = (
{
closed = 1;
nodes = (
"236.35 0 LINE",
"277.15 123.3 LINE",
"597.3 123.3 LINE",
"637.95 0 LINE",
"872.3 0 LINE",
"613.35 700.05 LINE",
"262.95 700.05 LINE",
"3 0 LINE"
);
},
{
closed = 1;
nodes = (
"542.45 289.55 LINE",
"332.2 289.55 LINE",
"409.6 523.05 LINE",
"465.45 523.05 LINE"
);
}
);
width = 875.3;
},
{
anchors = (
{
name = ogonek;
position = "{638.35, 0}";
},
{
name = top;
position = "{356.35, 700}";
}
);
hints = (
{
horizontal = 1;
place = "{175, 92}";
type = Stem;
},
{
horizontal = 1;
place = "{700, -20}";
target = down;
type = TopGhost;
},
{
horizontal = 1;
place = "{0, 21}";
target = up;
type = BottomGhost;
}
);
layerId = "0CF0EA28-C756-4A9E-9D7C-CFEF350B4CFE";
paths = (
{
closed = 1;
nodes = (
"127.45 0 LINE",
"188.15 175 LINE",
"524.7 174.8 LINE",
"585.25 0 LINE",
"705.2 0 LINE",
"456.45 700.35 LINE",
"257.25 700.35 LINE",
"8.5 0 LINE"
);
},
{
closed = 1;
nodes = (
"492.7 267.1 LINE",
"220.2 267.35 LINE",
"338.25 607.4 LINE",
"374.7 607.4 LINE"
);
}
);
width = 713.7;
},
{
anchors = (
{
name = ogonek;
position = "{580, 0}";
},
{
name = top;
position = "{311, 697}";
}
);
hints = (
{
horizontal = 1;
place = "{700, -20}";
target = down;
type = TopGhost;
},
{
horizontal = 1;
place = "{0, 21}";
target = up;
type = BottomGhost;
}
);
layerId = "0C5DB0F2-5B8B-4830-A1C2-9833713645D2";
paths = (
{
closed = 1;
nodes = (
"33.5 0.051 LINE",
"113.95 210.892 LINE",
"505.05 210.892 LINE",
"585 0.051 LINE",
"608 0.051 LINE",
"340.65 700.038 LINE",
"278.65 700.038 LINE",
"10.5 0.051 LINE"
);
},
{
closed = 1;
nodes = (
"498.25 228.79 LINE",
"120.8 228.79 LINE",
"293.95 682.489 LINE",
"326.2 682.489 LINE"
);
}
);
width = 618.5;
}
);
leftMetricsKey = "=H*0.1";
rightMetricsKey = "=H*0.1";
unicode = 0041;
},
{
glyphname = Aogonek;
lastChange = "2021-08-04 13:06:59 +0000";
layers = (
{
associatedMasterId = "0C5DB0F2-5B8B-4830-A1C2-9833713645D2";
layerId = "8EFEDC52-D0A5-4217-A73A-09C99040F754";
name = "Sep 20 17, 19:55";
paths = (
{
closed = 1;
nodes = (
"117 194 LINE",
"484 194 LINE",
"477 212 LINE",
"123 212 LINE"
);
},
{
closed = 1;
nodes = (
"30 0 LINE",
"53 0 LINE",
"306 662 LINE",
"296 662 LINE",
"551 -6 LINE",
"557 0 LINE",
"466 0 OFFCURVE",
"428 -42 OFFCURVE",
"428 -95 CURVE",
"428 -148 OFFCURVE",
"466 -190 OFFCURVE",
"543 -190 CURVE",
"611 -190 LINE",
"611 -170 LINE",
"543 -170 LINE SMOOTH",
"484 -170 OFFCURVE",
"448 -142 OFFCURVE",
"448 -95 CURVE",
"448 -48 OFFCURVE",
"484 -20 OFFCURVE",
"543 -20 CURVE SMOOTH",
"571 -20 LINE",
"571 0 LINE",
"311 683 LINE",
"291 683 LINE"
);
}
);
width = 601;
},
{
anchors = (
{
name = _ogonek;
position = "{428.59, 0}";
}
);
components = (
{
alignment = -1;
name = A;
transform = "{1, 0, 0, 1, 0.005, 0}";
}
);
hints = (
{
horizontal = 1;
place = "{-189, 21}";
target = up;
type = BottomGhost;
}
);
layerId = "34B89C21-4068-454A-BBBC-B9295C834BF9";
paths = (
{
closed = 1;
nodes = (
"513.824 -15.858 LINE SMOOTH",
"446.286 -43.699 OFFCURVE",
"415.562 -77.506 OFFCURVE",
"408.046 -115.29 CURVE SMOOTH",
"397.959 -166 OFFCURVE",
"432.41 -188.869 OFFCURVE",
"483.41 -188.869 CURVE SMOOTH",
"502.41 -188.869 OFFCURVE",
"525.201 -184.892 OFFCURVE",
"547.784 -176.938 CURVE",
"551.739 -157.051 LINE",
"529.157 -165.006 OFFCURVE",
"506.168 -169.977 OFFCURVE",
"486.168 -169.977 CURVE SMOOTH",
"447.168 -169.977 OFFCURVE",
"420.53 -153.074 OFFCURVE",
"428.244 -114.295 CURVE SMOOTH",
"433.98 -85.46 OFFCURVE",
"457.715 -56.625 OFFCURVE",
"514.462 -32.761 CURVE SMOOTH",
"592.989 0.051 LINE",
"588.956 14.966 LINE"
);
}
);
width = 653.21;
},
{
anchors = (
{
name = _ogonek;
position = "{485.75, 0}";
}
);
components = (
{
alignment = -1;
name = A;
transform = "{1, 0, 0, 1, 0.002, 0}";
}
);
hints = (
{
horizontal = 1;
place = "{-213, 74}";
type = Stem;
}
);
layerId = "24A19461-EE5C-48C0-A968-CC082199DAC2";
paths = (
{
closed = 1;
nodes = (
"577.401 38.642 LINE SMOOTH",
"474.786 -4.667 OFFCURVE",
"432.193 -52.893 OFFCURVE",
"422.013 -104.075 CURVE SMOOTH",
"406.035 -184.402 OFFCURVE",
"470.442 -212.517 OFFCURVE",
"533.442 -212.517 CURVE SMOOTH",
"562.482 -212.517 OFFCURVE",
"592.677 -206.483 OFFCURVE",
"617.443 -197.432 CURVE",
"631.944 -124.53 LINE",
"607.1 -133.61 OFFCURVE",
"582.098 -138.654 OFFCURVE",
"563.135 -138.654 CURVE SMOOTH",
"529.135 -138.654 OFFCURVE",
"511.767 -120.393 OFFCURVE",
"517.417 -91.989 CURVE SMOOTH",
"522.264 -67.622 OFFCURVE",
"540.291 -47.375 OFFCURVE",
"587.699 -25.216 CURVE SMOOTH",
"641.505 -0.131 LINE",
"623.276 57.807 LINE"
);
}
);
width = 714.94;
},
{
anchors = (
{
name = _ogonek;
position = "{874.54, 1}";
}
);
components = (
{
alignment = -1;
name = A;
transform = "{1, 0, 0, 1, 0.005, 0}";
}
);
hints = (
{
horizontal = 1;
place = "{-220, 117}";
type = Stem;
}
);
layerId = "C06476A3-BC65-42D9-AE82-BE67E4874885";
paths = (
{
closed = 1;
nodes = (
"659.018 91.208 LINE SMOOTH",
"490.716 28.946 OFFCURVE",
"441.206 -23.475 OFFCURVE",
"427.134 -94.217 CURVE SMOOTH",
"411.292 -173.86 OFFCURVE",
"462.183 -219.655 OFFCURVE",
"562.183 -219.655 CURVE SMOOTH",
"605.049 -219.655 OFFCURVE",
"644.244 -213.724 OFFCURVE",
"679.33 -203.838 CURVE",
"702.56 -87.048 LINE",
"667.557 -97.836 OFFCURVE",
"639.573 -102.74 OFFCURVE",
"617.439 -102.74 CURVE SMOOTH",
"593.439 -102.74 OFFCURVE",
"582.107 -94.353 OFFCURVE",
"585.073 -79.442 CURVE SMOOTH",
"588.082 -64.315 OFFCURVE",
"603.884 -45.202 OFFCURVE",
"672.174 -18.607 CURVE SMOOTH",
"720.54 0.361 LINE",
"698.679 105.88 LINE"
);
}
);
width = 875;
},
{
anchors = (
{
name = _ogonek;
position = "{734.87, 1}";
}
);
components = (
{
alignment = -1;
name = A;
transform = "{1, 0, 0, 1, -0.003, 0}";
}
);
hints = (
{
place = "{456, 155}";
type = Stem;
},
{
horizontal = 1;
place = "{-222, 117}";
type = Stem;
}
);
layerId = "F6DDAB16-9378-41C6-AF32-8CCAF9117681";
paths = (
{
closed = 1;
nodes = (
"650.886 88.685 LINE SMOOTH",
"494.968 26.424 OFFCURVE",
"455.886 -25.998 OFFCURVE",
"455.886 -96.74 CURVE SMOOTH",
"455.886 -176.383 OFFCURVE",
"515.886 -222.177 OFFCURVE",
"615.886 -222.177 CURVE SMOOTH",
"658.751 -222.177 OFFCURVE",
"696.766 -216.246 OFFCURVE",
"729.886 -206.36 CURVE",
"729.886 -89.571 LINE",
"697.028 -100.359 OFFCURVE",
"670.02 -105.262 OFFCURVE",
"647.886 -105.262 CURVE SMOOTH",
"623.886 -105.262 OFFCURVE",
"610.886 -96.875 OFFCURVE",
"610.886 -81.965 CURVE SMOOTH",
"610.886 -66.837 OFFCURVE",
"622.886 -47.724 OFFCURVE",
"685.886 -21.129 CURVE SMOOTH",
"730.478 -2.162 LINE",
"687.628 103.357 LINE"
);
}
);
width = 875.3;
},
{
anchors = (
{
name = _ogonek;
position = "{-333.59, 0}";
}
);
components = (
{
alignment = -1;
name = A;
transform = "{1, 0, 0, 1, -0.005, 0}";
}
);
hints = (
{
place = "{456, 93}";
type = Stem;
},
{
place = "{456, 214}";
type = Stem;
},
{
horizontal = 1;
place = "{-213, 74}";
type = Stem;
}
);
layerId = "0CF0EA28-C756-4A9E-9D7C-CFEF350B4CFE";
paths = (
{
closed = 1;
nodes = (
"582.41 38.642 LINE SMOOTH",
"488.41 -4.667 OFFCURVE",
"455.41 -52.893 OFFCURVE",
"455.41 -104.075 CURVE SMOOTH",
"455.41 -184.402 OFFCURVE",
"525.41 -212.517 OFFCURVE",
"588.41 -212.517 CURVE SMOOTH",
"617.45 -212.517 OFFCURVE",
"646.445 -206.483 OFFCURVE",
"669.41 -197.432 CURVE",
"669.41 -124.53 LINE",
"646.373 -133.61 OFFCURVE",
"622.373 -138.654 OFFCURVE",
"603.41 -138.654 CURVE SMOOTH",
"569.41 -138.654 OFFCURVE",
"548.41 -120.393 OFFCURVE",
"548.41 -91.989 CURVE SMOOTH",
"548.41 -67.622 OFFCURVE",
"562.41 -47.375 OFFCURVE",
"605.41 -25.216 CURVE SMOOTH",
"654.227 -0.131 LINE",
"624.473 57.807 LINE"
);
}
);
width = 713.7;
},
{
anchors = (
{
name = _ogonek;
position = "{-268.73, 0}";
}
);
components = (
{
alignment = -1;
name = A;
transform = "{1, 0, 0, 1, 0.004, 0}";
}
);
hints = (
{
place = "{436, 20}";
type = Stem;
},
{
horizontal = 1;
place = "{-189, 21}";
target = up;
type = BottomGhost;
}
);
layerId = "0C5DB0F2-5B8B-4830-A1C2-9833713645D2";
paths = (
{
closed = 1;
nodes = (
"522.27 -15.858 LINE SMOOTH",
"460.27 -43.699 OFFCURVE",
"436.27 -77.506 OFFCURVE",
"436.27 -115.29 CURVE SMOOTH",
"436.27 -166 OFFCURVE",
"475.27 -188.869 OFFCURVE",
"526.27 -188.869 CURVE SMOOTH",
"545.27 -188.869 OFFCURVE",
"567.27 -184.892 OFFCURVE",
"588.27 -176.938 CURVE",
"588.27 -157.051 LINE",
"567.27 -165.006 OFFCURVE",
"545.27 -169.977 OFFCURVE",
"525.27 -169.977 CURVE SMOOTH",
"486.27 -169.977 OFFCURVE",
"456.27 -153.074 OFFCURVE",
"456.27 -114.295 CURVE SMOOTH",
"456.27 -85.46 OFFCURVE",
"474.27 -56.625 OFFCURVE",
"526.27 -32.761 CURVE SMOOTH",
"598.27 0.051 LINE",
"591.27 14.966 LINE"
);
}
);
width = 618.5;
}
);
leftMetricsKey = A;
rightMetricsKey = A;
unicode = 0104;
},
{
glyphname = AE;
lastChange = "2021-08-04 13:06:59 +0000";
layers = (
{
hints = (
{
horizontal = 1;
place = "{0, 211}";
type = Stem;
},
{
horizontal = 1;
place = "{700, -20}";
target = down;
type = TopGhost;
}
);
layerId = "34B89C21-4068-454A-BBBC-B9295C834BF9";
paths = (
{
closed = 1;
nodes = (
"126.153 192.945 LINE",
"439.153 192.945 LINE",
"442.714 210.843 LINE",
"135.714 210.843 LINE"
);
},
{
closed = 1;
nodes = (
"873.471 682.141 LINE",
"877.031 700.038 LINE",
"533.031 700.038 LINE",
"-39.22 0.051 LINE",
"-16.22 0.051 LINE",
"525.713 663.249 LINE",
"393.78 0.051 LINE",
"737.78 0.051 LINE",
"741.341 17.949 LINE",
"417.341 17.949 LINE",
"481.626 341.096 LINE",
"775.626 341.096 LINE",
"779.186 358.993 LINE",
"485.186 358.993 LINE",
"549.471 682.141 LINE"
);
}
);
width = 872.51;
},
{
hints = (
{
horizontal = 1;
place = "{0, 89}";
type = Stem;
},
{
horizontal = 1;
place = "{143, 89}";
type = Stem;
},
{
horizontal = 1;
place = "{310, 88}";
type = Stem;
},
{
horizontal = 1;
place = "{611, 89}";
type = Stem;
}
);
layerId = "24A19461-EE5C-48C0-A968-CC082199DAC2";
paths = (
{
closed = 1;
nodes = (
"127.225 143.021 LINE",
"499.947 143.021 LINE",
"517.643 231.992 LINE",
"194.548 231.992 LINE"
);
},
{
closed = 1;
nodes = (
"923.1 611.364 LINE",
"940.797 700.336 LINE",
"480.702 700.336 LINE",
"-41.229 0 LINE",
"82.594 0 LINE",
"542.037 621.102 LINE",
"418.5 0 LINE",
"801.5 0 LINE",
"819.196 88.971 LINE",
"550.263 89.306 LINE",
"594.202 310.214 LINE",
"833.202 310.214 LINE",
"850.731 398.346 LINE",
"611.731 398.346 LINE",
"654.1 611.364 LINE"
);
}
);
width = 916.23;
},
{
hints = (
{
horizontal = 1;
place = "{0, 177}";
type = Stem;
},
{
horizontal = 1;
place = "{96, 167}";
type = Stem;
},
{
horizontal = 1;
place = "{276, 167}";
type = Stem;
},
{
horizontal = 1;
place = "{524, 176}";
type = Stem;
}
);
layerId = "C06476A3-BC65-42D9-AE82-BE67E4874885";
paths = (
{
closed = 1;
nodes = (
"127.088 95.545 LINE",
"571.204 95.545 LINE",
"604.45 262.695 LINE",
"254.835 262.695 LINE"
);
},
{
closed = 1;
nodes = (
"1010.428 524.02 LINE",
"1045.437 700.035 LINE",
"432.804 700.035 LINE",
"-46.724 0 LINE",
"194.838 0 LINE",
"549.56 529.714 LINE",
"444.2 0 LINE",
"906.2 0 LINE",
"941.405 177 LINE",
"701.405 177 LINE",
"721.057 275.8 LINE",
"931.057 275.8 LINE",
"964.303 442.95 LINE",
"754.303 442.95 LINE",
"770.428 524.02 LINE"
);
}
);
width = 965.93;
},
{
hints = (
{
place = "{494, 222}";
type = Stem;
},
{
horizontal = 1;
place = "{0, 177}";
type = Stem;
},
{
horizontal = 1;
place = "{96, 167}";
type = Stem;
},
{
horizontal = 1;
place = "{276, 167}";
type = Stem;
},
{
horizontal = 1;
place = "{524, 176}";
type = Stem;
}
);
layerId = "F6DDAB16-9378-41C6-AF32-8CCAF9117681";
paths = (
{
closed = 1;
nodes = (
"157.804 95.545 LINE",
"601.92 95.545 LINE",
"601.92 262.695 LINE",
"252.305 262.695 LINE"
);
},
{
closed = 1;
nodes = (
"955.92 524.02 LINE",
"955.92 700.035 LINE",
"343.287 700.035 LINE",
"2.996 0 LINE",
"244.558 0 LINE",
"493.92 529.714 LINE",
"493.92 0 LINE",
"955.92 0 LINE",
"955.92 177 LINE",
"715.92 177 LINE",
"715.92 275.8 LINE",
"925.92 275.8 LINE",
"925.92 442.95 LINE",
"715.92 442.95 LINE",
"715.92 524.02 LINE"
);
}
);
width = 965.92;
},
{
hints = (
{
place = "{468, 114}";
type = Stem;
},
{
horizontal = 1;
place = "{0, 89}";
type = Stem;
},
{
horizontal = 1;
place = "{143, 89}";
type = Stem;
},
{
horizontal = 1;
place = "{310, 88}";
type = Stem;
},
{
horizontal = 1;
place = "{611, 89}";
type = Stem;
}
);
layerId = "0CF0EA28-C756-4A9E-9D7C-CFEF350B4CFE";
paths = (
{
closed = 1;
nodes = (
"148.508 143.021 LINE",
"521.23 143.021 LINE",
"521.23 231.992 LINE",
"198.135 231.992 LINE"
);
},
{
closed = 1;
nodes = (
"851.23 611.364 LINE",
"851.23 700.336 LINE",
"391.135 700.336 LINE",
"8.501 0 LINE",
"132.324 0 LINE",
"468.23 621.102 LINE",
"468.23 0 LINE",
"851.23 0 LINE",
"851.23 88.971 LINE",
"582.23 89.306 LINE",
"582.23 310.214 LINE",
"821.23 310.214 LINE",
"821.23 398.346 LINE",
"582.23 398.346 LINE",
"582.23 611.364 LINE"
);
}
);
width = 916.23;
},
{
hints = (
{
place = "{443, 20}";
type = Stem;
},
{
horizontal = 1;
place = "{700, -20}";
target = down;
type = TopGhost;
},
{
horizontal = 1;
place = "{0, 21}";
target = up;
type = BottomGhost;
}
);
layerId = "0C5DB0F2-5B8B-4830-A1C2-9833713645D2";
paths = (
{
closed = 1;
nodes = (
"137.5 192.945 LINE",
"450.5 192.945 LINE",
"450.5 210.843 LINE",
"143.5 210.843 LINE"
);
},
{
closed = 1;
nodes = (
"787.5 682.141 LINE",
"787.5 700.038 LINE",
"443.5 700.038 LINE",
"10.5 0.051 LINE",
"33.5 0.051 LINE",
"443.5 663.249 LINE",
"443.5 0.051 LINE",
"787.5 0.051 LINE",
"787.5 17.949 LINE",
"463.5 17.949 LINE",
"463.5 341.096 LINE",
"757.5 341.096 LINE",
"757.5 358.993 LINE",
"463.5 358.993 LINE",
"463.5 682.141 LINE"
);
}
);
width = 872.5;
}
);
leftMetricsKey = A;
rightMetricsKey = E;
unicode = 00C6;
},
{
glyphname = B;
lastChange = "2021-08-04 13:12:21 +0000";
layers = (
{
hints = (
{
horizontal = 1;
place = "{700, -20}";
target = down;
type = TopGhost;
},
{
horizontal = 1;
place = "{0, 21}";
target = up;
type = BottomGhost;
}
);
layerId = "34B89C21-4068-454A-BBBC-B9295C834BF9";
paths = (
{
closed = 1;
nodes = (
"580.711 434.569 OFFCURVE",
"505.652 368.915 OFFCURVE",
"386.652 368.915 CURVE SMOOTH",
"148.652 368.915 LINE",
"210.961 682.166 LINE",
"442.961 682.166 LINE SMOOTH",
"574.961 682.166 OFFCURVE",
"616.905 616.53 OFFCURVE",
"599.5 529.029 CURVE SMOOTH"
);
},
{
closed = 1;
nodes = (
"588.23 291.387 OFFCURVE",
"517.873 359.972 OFFCURVE",
"420.873 359.972 CURVE",
"412.477 357.984 LINE",
"493.675 358.978 OFFCURVE",
"595.569 408.717 OFFCURVE",
"619.5 529.029 CURVE SMOOTH",
"638.488 624.484 OFFCURVE",
"593.519 700.052 OFFCURVE",
"446.519 700.052 CURVE SMOOTH",
"194.519 700.052 LINE",
"55.28 0.051 LINE",
"307.28 0.051 LINE SMOOTH",
"459.28 0.051 OFFCURVE",
"546.894 83.574 OFFCURVE",
"567.463 186.983 CURVE SMOOTH"
);
},
{
closed = 1;
nodes = (
"526.894 83.574 OFFCURVE",
"438.838 17.938 OFFCURVE",
"310.838 17.938 CURVE SMOOTH",
"78.838 17.938 LINE",
"145.094 351.029 LINE",
"375.094 351.029 LINE SMOOTH",
"503.094 351.029 OFFCURVE",
"567.637 288.404 OFFCURVE",
"547.463 186.983 CURVE SMOOTH"
);
},
{
closed = 1;
nodes = (
"362.686 354.006 LINE",
"451.686 354.006 LINE",
"454.257 366.932 LINE",
"365.257 366.932 LINE"
);
}
);
width = 649.3;
},
{
hints = (
{
horizontal = 1;
place = "{0, 93}";
type = Stem;
},
{
horizontal = 1;
place = "{308, 93}";
type = Stem;
},
{
horizontal = 1;
place = "{607, 93}";
type = Stem;
}
);
layerId = "24A19461-EE5C-48C0-A968-CC082199DAC2";
paths = (
{
closed = 1;
nodes = (
"536.513 438.599 OFFCURVE",
"484.113 401.396 OFFCURVE",
"410.113 401.396 CURVE SMOOTH",
"229.113 401.396 LINE",
"270.075 607.328 LINE",
"451.075 607.328 LINE SMOOTH",
"525.075 607.328 OFFCURVE",
"562.041 566.939 OFFCURVE",
"549.378 503.275 CURVE SMOOTH"
);
},
{
closed = 1;
nodes = (
"641.368 302.134 OFFCURVE",
"580.791 349.727 OFFCURVE",
"481.857 354.864 CURVE",
"481.988 355.524 LINE",
"568.357 367.431 OFFCURVE",
"647.598 413.889 OFFCURVE",
"668.182 517.376 CURVE SMOOTH",
"687.78 615.897 OFFCURVE",
"626.574 700.328 OFFCURVE",
"479.574 700.328 CURVE SMOOTH",
"174.574 700.328 LINE",
"35.27 0 LINE",
"353.27 0 LINE SMOOTH",
"495.27 0 OFFCURVE",
"597.27 80.438 OFFCURVE",
"618.469 187.01 CURVE SMOOTH"
);
},
{
closed = 1;
nodes = (
"493.408 131.403 OFFCURVE",
"438.742 92.867 OFFCURVE",
"361.769 93 CURVE SMOOTH",
"167.835 93.334 LINE",
"210.581 308.229 LINE",
"400.581 308.229 LINE SMOOTH",
"476.581 308.229 OFFCURVE",
"520.738 268.8 OFFCURVE",
"506.873 199.096 CURVE SMOOTH"
);
},
{
closed = 1;
nodes = (
"424.789 334.416 LINE",
"503.789 334.416 LINE",
"514.475 388.135 LINE",
"435.475 388.135 LINE"
);
}
);
width = 687.1;
},
{
hints = (
{
horizontal = 1;
place = "{0, 178}";
type = Stem;
},
{
horizontal = 1;
place = "{276, 162}";
type = Stem;
},
{
horizontal = 1;
place = "{524, 176}";
type = Stem;
}
);
layerId = "C06476A3-BC65-42D9-AE82-BE67E4874885";
paths = (
{
closed = 1;
nodes = (
"476.613 449.157 OFFCURVE",
"455.428 438.175 OFFCURVE",
"415.428 438.175 CURVE SMOOTH",
"289.428 438.175 LINE",
"306.504 524.02 LINE",
"432.504 524.02 LINE SMOOTH",
"472.504 524.02 OFFCURVE",
"489.179 512.332 OFFCURVE",
"482.77 480.112 CURVE SMOOTH"
);
},
{
closed = 1;
nodes = (
"685.524 282.806 OFFCURVE",
"635.545 353.299 OFFCURVE",
"512.525 358.224 CURVE",
"508.643 364.24 LINE",
"612.066 364.24 OFFCURVE",
"695.726 414.534 OFFCURVE",
"716.201 517.467 CURVE SMOOTH",
"740.476 639.51 OFFCURVE",
"661.516 700.035 OFFCURVE",
"520.516 700.035 CURVE SMOOTH",
"119.516 700.035 LINE",
"-19.73 0 LINE",
"391.27 0 LINE SMOOTH",
"545.27 0 OFFCURVE",
"643.08 69.429 OFFCURVE",
"667.544 192.417 CURVE SMOOTH"
);
},
{
closed = 1;
nodes = (
"441.016 194.79 OFFCURVE",
"418.673 177.985 OFFCURVE",
"378.673 177.985 CURVE SMOOTH",
"237.673 177.985 LINE",
"257.136 275.83 LINE",
"398.136 275.83 LINE SMOOTH",
"438.136 275.83 OFFCURVE",
"453.562 257.86 OFFCURVE",
"447.408 226.923 CURVE SMOOTH"
);
},
{
closed = 1;
nodes = (
"457.102 330.96 LINE",
"527.102 330.96 LINE",
"538.21 386.805 LINE",
"468.21 386.805 LINE"
);
}
);
width = 698.8;
},
{
hints = (
{
place = "{30, 222}";
type = Stem;
},
{
place = "{437, 226}";
type = Stem;
},
{
place = "{452, 227}";
type = Stem;
},
{
horizontal = 1;
place = "{0, 178}";
type = Stem;
},
{
horizontal = 1;
place = "{276, 162}";
type = Stem;
},
{
horizontal = 1;
place = "{524, 176}";
type = Stem;
}
);
layerId = "F6DDAB16-9378-41C6-AF32-8CCAF9117681";
paths = (
{
closed = 1;
nodes = (
"437 449.157 OFFCURVE",
"418 438.175 OFFCURVE",
"378 438.175 CURVE SMOOTH",
"252 438.175 LINE",
"252 524.02 LINE",
"378 524.02 LINE SMOOTH",
"418 524.02 OFFCURVE",
"437 512.332 OFFCURVE",
"437 480.112 CURVE SMOOTH"
);
},
{
closed = 1;
nodes = (
"679 282.806 OFFCURVE",
"615 353.299 OFFCURVE",
"491 358.224 CURVE",
"485.922 364.24 LINE",
"589.344 364.24 OFFCURVE",
"663 414.534 OFFCURVE",
"663 517.467 CURVE SMOOTH",
"663 639.51 OFFCURVE",
"572 700.035 OFFCURVE",
"431 700.035 CURVE SMOOTH",
"30 700.035 LINE",
"30 0 LINE",
"441 0 LINE SMOOTH",
"595 0 OFFCURVE",
"679 69.429 OFFCURVE",
"679 192.417 CURVE SMOOTH"
);
},
{
closed = 1;
nodes = (
"452 194.79 OFFCURVE",
"433 177.985 OFFCURVE",
"393 177.985 CURVE SMOOTH",
"252 177.985 LINE",
"252 275.83 LINE",
"393 275.83 LINE SMOOTH",
"433 275.83 OFFCURVE",
"452 257.86 OFFCURVE",
"452 226.923 CURVE SMOOTH"
);
},
{
closed = 1;
nodes = (
"441 330.96 LINE",
"511 330.96 LINE",
"511 386.805 LINE",
"441 386.805 LINE"
);
}
);
width = 698.8;
},
{
hints = (
{
place = "{85, 114}";
type = Stem;
},
{
place = "{499, 116}";
type = Stem;
},
{
place = "{517, 114}";
type = Stem;
},
{
horizontal = 1;
place = "{0, 93}";
type = Stem;
},
{
horizontal = 1;
place = "{308, 93}";
type = Stem;
},
{
horizontal = 1;
place = "{607, 93}";
type = Stem;
}
);
layerId = "0CF0EA28-C756-4A9E-9D7C-CFEF350B4CFE";
paths = (
{
closed = 1;
nodes = (
"499 438.599 OFFCURVE",
"454 401.396 OFFCURVE",
"380 401.396 CURVE SMOOTH",
"199 401.396 LINE",
"199 607.328 LINE",
"380 607.328 LINE SMOOTH",
"454 607.328 OFFCURVE",
"499 566.939 OFFCURVE",
"499 503.275 CURVE SMOOTH"
);
},
{
closed = 1;
nodes = (
"631 302.134 OFFCURVE",
"560.956 349.727 OFFCURVE",
"461 354.865 CURVE",
"461 355.524 LINE",
"545 367.431 OFFCURVE",
"615 413.889 OFFCURVE",
"615 517.376 CURVE SMOOTH",
"615 615.897 OFFCURVE",
"537 700.328 OFFCURVE",
"390 700.328 CURVE SMOOTH",
"85 700.328 LINE",
"85 0 LINE",
"403 0 LINE SMOOTH",
"545 0 OFFCURVE",
"631 80.438 OFFCURVE",
"631 187.01 CURVE SMOOTH"
);
},
{
closed = 1;
nodes = (
"517 131.403 OFFCURVE",
"470 92.867 OFFCURVE",
"393 93 CURVE SMOOTH",
"199 93.334 LINE",
"199 308.229 LINE",
"389 308.229 LINE SMOOTH",
"465 308.229 OFFCURVE",
"517 268.8 OFFCURVE",
"517 199.096 CURVE SMOOTH"
);
},
{
closed = 1;
nodes = (
"408 334.416 LINE",
"487 334.416 LINE",
"487 388.135 LINE",
"408 388.135 LINE"
);
}
);
width = 687.1;
},
{
hints = (
{
place = "{105, 20}";
type = Stem;
},
{
place = "{544, 20}";
type = Stem;
},
{
place = "{560, 20}";
type = Stem;
},
{
horizontal = 1;
place = "{700, -20}";
target = down;
type = TopGhost;
},
{
horizontal = 1;
place = "{0, 21}";
target = up;
type = BottomGhost;
}
);
layerId = "0C5DB0F2-5B8B-4830-A1C2-9833713645D2";
paths = (
{
closed = 1;
nodes = (
"544 434.569 OFFCURVE",
"482 368.915 OFFCURVE",
"363 368.915 CURVE SMOOTH",
"125 368.915 LINE",
"125 682.166 LINE",
"357 682.166 LINE SMOOTH",
"489 682.166 OFFCURVE",
"544 616.53 OFFCURVE",
"544 529.029 CURVE"
);
},
{
closed = 1;
nodes = (
"580 291.387 OFFCURVE",
"496 359.972 OFFCURVE",
"399 359.972 CURVE",
"391 357.984 LINE",
"472 358.978 OFFCURVE",
"564 408.717 OFFCURVE",
"564 529.029 CURVE",
"564 624.484 OFFCURVE",
"504 700.052 OFFCURVE",
"357 700.052 CURVE SMOOTH",
"105 700.052 LINE",
"105 0.051 LINE",
"357 0.051 LINE SMOOTH",
"509 0.051 OFFCURVE",
"580 83.574 OFFCURVE",
"580 186.983 CURVE SMOOTH"
);
},
{
closed = 1;
nodes = (
"560 83.574 OFFCURVE",
"485 17.938 OFFCURVE",
"357 17.938 CURVE SMOOTH",
"125 17.938 LINE",
"125 351.029 LINE",
"355 351.029 LINE SMOOTH",
"483 351.029 OFFCURVE",
"560 288.404 OFFCURVE",
"560 186.983 CURVE SMOOTH"
);
},
{
closed = 1;
nodes = (
"342 354.006 LINE",
"431 354.006 LINE",
"431 366.932 LINE",
"342 366.932 LINE"
);
}
);
width = 649.3;
}
);
leftMetricsKey = H;
rightMetricsKey = "=H*0.66";
unicode = 0042;
},
{
glyphname = C;
lastChange = "2021-08-04 13:09:12 +0000";
layers = (
{
anchors = (
{
name = bottom;
position = "{353.76, 0}";
},
{
name = top;
position = "{469.76, 700}";
}
);
hints = (
{
horizontal = 1;
place = "{-7, 21}";
target = up;
type = BottomGhost;
},
{
horizontal = 1;
place = "{707, -20}";
target = down;
type = TopGhost;
}
);
layerId = "34B89C21-4068-454A-BBBC-B9295C834BF9";
paths = (
{
closed = 1;
nodes = (
"30.66 140.247 OFFCURVE",
"138.386 -6.909 OFFCURVE",
"329.386 -6.909 CURVE SMOOTH",
"496.354 -6.909 OFFCURVE",
"616.287 75.587 OFFCURVE",
"690.043 201.265 CURVE",
"673.975 207.516 LINE",
"610.681 96.608 OFFCURVE",
"490.814 8.877 OFFCURVE",
"332.946 10.988 CURVE",
"162.946 10.988 OFFCURVE",
"51.462 139.253 OFFCURVE",
"93.198 349.05 CURVE SMOOTH",
"135.329 560.836 OFFCURVE",
"297.846 689.101 OFFCURVE",
"467.846 689.101 CURVE SMOOTH",
"623.875 689.101 OFFCURVE",
"707.045 609.673 OFFCURVE",
"728.371 501.533 CURVE",
"747.037 507.853 LINE",
"720.806 628.823 OFFCURVE",
"633.944 706.998 OFFCURVE",
"471.406 706.998 CURVE SMOOTH",
"280.406 706.998 OFFCURVE",
"114.132 559.842 OFFCURVE",
"72.198 349.05 CURVE SMOOTH"
);
}
);
width = 769.73825;
},
{
anchors = (
{
name = bottom;
position = "{341.79, 0}";
},
{
name = top;
position = "{490.79, 709}";
}
);
hints = (
{
horizontal = 1;
place = "{-6, 100}";
type = Stem;
},
{
horizontal = 1;
place = "{608, 101}";
type = Stem;
}
);
layerId = "24A19461-EE5C-48C0-A968-CC082199DAC2";
paths = (
{
closed = 1;
nodes = (
"20.766 140.674 OFFCURVE",
"150.522 -6.378 OFFCURVE",
"346.522 -6.378 CURVE SMOOTH",
"487.34 -6.378 OFFCURVE",
"620.32 58.807 OFFCURVE",
"710.746 202.733 CURVE",
"618.101 239.303 LINE",
"543.718 129.628 OFFCURVE",
"447.02 93.335 OFFCURVE",
"366.351 93.335 CURVE SMOOTH",
"228.351 93.335 OFFCURVE",
"148.181 193.048 OFFCURVE",
"179.628 351.179 CURVE SMOOTH",
"211.075 509.309 OFFCURVE",
"330.705 608.015 OFFCURVE",
"468.705 608.015 CURVE SMOOTH",
"547.133 608.015 OFFCURVE",
"627.288 573.05 OFFCURVE",
"656.421 483.845 CURVE",
"764.662 520.995 LINE",
"731.439 643.339 OFFCURVE",
"625.484 708.735 OFFCURVE",
"488.735 708.735 CURVE SMOOTH",
"292.735 708.735 OFFCURVE",
"104.291 560.676 OFFCURVE",
"62.628 351.179 CURVE SMOOTH"
);
}
);
width = 776.81525;
},
{
anchors = (
{
name = bottom;
position = "{312.28, 1}";
},
{
name = top;
position = "{455.28, 702}";
}
);
hints = (
{
horizontal = 1;
place = "{-4, 202}";
type = Stem;
},
{
horizontal = 1;
place = "{504, 202}";
type = Stem;
}
);
layerId = "C06476A3-BC65-42D9-AE82-BE67E4874885";
paths = (
{
closed = 1;
nodes = (
"-6.246 143.168 OFFCURVE",
"97.565 -3.598 OFFCURVE",
"314.565 -3.598 CURVE SMOOTH",
"492.319 -3.598 OFFCURVE",
"635.685 96.084 OFFCURVE",
"702.433 247.224 CURVE",
"495.726 284.801 LINE",
"451.279 212.97 OFFCURVE",
"399.83 198.328 OFFCURVE",
"350.724 198.328 CURVE SMOOTH",
"275.724 198.328 OFFCURVE",
"241.674 258.413 OFFCURVE",
"260.089 351.003 CURVE SMOOTH",
"278.503 443.593 OFFCURVE",
"336.453 503.678 OFFCURVE",
"411.453 503.678 CURVE SMOOTH",
"459.926 503.678 OFFCURVE",
"497.001 487.841 OFFCURVE",
"515.77 425.681 CURVE",
"743.181 464.036 LINE",
"732.788 609.977 OFFCURVE",
"629.713 705.603 OFFCURVE",
"455.613 705.603 CURVE SMOOTH",
"238.613 705.603 OFFCURVE",
"76.423 558.838 OFFCURVE",
"35.089 351.003 CURVE SMOOTH"
);
}
);
width = 722.9895;
},
{
anchors = (
{
name = bottom;
position = "{362, 1}";
},
{
name = top;
position = "{365, 702}";
}
);
hints = (
{
place = "{15, 225}";
type = Stem;
},
{
horizontal = 1;
place = "{-4, 202}";
type = Stem;
},
{
horizontal = 1;
place = "{504, 202}";
type = Stem;
}
);
layerId = "F6DDAB16-9378-41C6-AF32-8CCAF9117681";
paths = (
{
closed = 1;
nodes = (
"15 143.168 OFFCURVE",
"148 -3.598 OFFCURVE",
"365 -3.598 CURVE SMOOTH",
"542.755 -3.598 OFFCURVE",
"666.296 96.084 OFFCURVE",
"702.985 247.224 CURVE",
"488.804 284.801 LINE",
"458.643 212.97 OFFCURVE",
"410.106 198.328 OFFCURVE",
"361 198.328 CURVE SMOOTH",
"286 198.328 OFFCURVE",
"240 258.413 OFFCURVE",
"240 351.003 CURVE SMOOTH",
"240 443.593 OFFCURVE",
"286 503.678 OFFCURVE",
"361 503.678 CURVE SMOOTH",
"409.473 503.678 OFFCURVE",
"449.697 487.841 OFFCURVE",
"480.829 425.681 CURVE",
"700.612 464.036 LINE",
"661.194 609.977 OFFCURVE",
"539.101 705.603 OFFCURVE",
"365 705.603 CURVE SMOOTH",
"148 705.603 OFFCURVE",
"15 558.838 OFFCURVE",
"15 351.003 CURVE SMOOTH"
);
}
);
width = 722.9895;
},
{
anchors = (
{
name = bottom;
position = "{391.5, 0}";
},
{
name = top;
position = "{399.5, 709}";
}
);
hints = (
{
place = "{42, 117}";
type = Stem;
},
{
horizontal = 1;
place = "{-6, 100}";
type = Stem;
},
{
horizontal = 1;
place = "{608, 101}";
type = Stem;
}
);
layerId = "0CF0EA28-C756-4A9E-9D7C-CFEF350B4CFE";
paths = (
{
closed = 1;
nodes = (
"42.5 140.674 OFFCURVE",
"201.5 -6.378 OFFCURVE",
"397.5 -6.378 CURVE SMOOTH",
"538.318 -6.378 OFFCURVE",
"658.335 58.807 OFFCURVE",
"720.139 202.733 CURVE",
"620.222 239.303 LINE",
"567.649 129.628 OFFCURVE",
"478.169 93.335 OFFCURVE",
"397.5 93.335 CURVE SMOOTH",
"259.5 93.335 OFFCURVE",
"159.5 193.048 OFFCURVE",
"159.5 351.179 CURVE SMOOTH",
"159.5 509.309 OFFCURVE",
"259.5 608.015 OFFCURVE",
"397.5 608.015 CURVE SMOOTH",
"475.929 608.015 OFFCURVE",
"563.037 573.05 OFFCURVE",
"609.91 483.845 CURVE",
"710.762 520.995 LINE",
"653.209 643.339 OFFCURVE",
"534.249 708.735 OFFCURVE",
"397.5 708.735 CURVE SMOOTH",
"201.5 708.735 OFFCURVE",
"42.5 560.676 OFFCURVE",
"42.5 351.179 CURVE SMOOTH"
);
}
);
width = 776.80525;
},
{
anchors = (
{
name = bottom;
position = "{403.5, 0}";
},
{
name = top;
position = "{380.5, 700}";
}
);
hints = (
{
place = "{52, 21}";
type = Stem;
},
{
horizontal = 1;
place = "{-7, 21}";
target = up;
type = BottomGhost;
},
{
horizontal = 1;
place = "{707, -20}";
target = down;
type = TopGhost;
}
);
layerId = "0C5DB0F2-5B8B-4830-A1C2-9833713645D2";
paths = (
{
closed = 1;
nodes = (
"52.5 140.247 OFFCURVE",
"189.5 -6.909 OFFCURVE",
"380.5 -6.909 CURVE SMOOTH",
"547.469 -6.909 OFFCURVE",
"650.991 75.587 OFFCURVE",
"699.745 201.265 CURVE",
"682.434 207.516 LINE",
"641.202 96.608 OFFCURVE",
"538.788 8.877 OFFCURVE",
"380.5 10.988 CURVE",
"210.5 10.988 OFFCURVE",
"73.5 139.253 OFFCURVE",
"73.5 349.05 CURVE SMOOTH",
"73.5 560.836 OFFCURVE",
"210.5 689.101 OFFCURVE",
"380.5 689.101 CURVE SMOOTH",
"536.53 689.101 OFFCURVE",
"635.5 609.673 OFFCURVE",
"678.339 501.533 CURVE",
"695.748 507.853 LINE",
"645.452 628.823 OFFCURVE",
"543.038 706.998 OFFCURVE",
"380.5 706.998 CURVE SMOOTH",
"189.5 706.998 OFFCURVE",
"52.5 559.842 OFFCURVE",
"52.5 349.05 CURVE SMOOTH"
);
}
);
width = 769.74825;
}
);
leftMetricsKey = O;
rightMetricsKey = "=O*1.3333";
unicode = 0043;
},
{
glyphname = D;
lastChange = "2021-08-04 13:13:00 +0000";
layers = (
{
anchors = (
{
name = top;
position = "{425.27, 679}";
}
);
hints = (
{
horizontal = 1;
place = "{0, 21}";
target = up;
type = BottomGhost;
},
{
horizontal = 1;
place = "{700, -20}";
target = down;
type = TopGhost;
}
);
layerId = "34B89C21-4068-454A-BBBC-B9295C834BF9";
paths = (
{
closed = 1;
nodes = (
"194.531 700.038 LINE",
"55.28 0.051 LINE",
"260.28 0.051 LINE SMOOTH",
"505.28 0.051 OFFCURVE",
"657.994 129.31 OFFCURVE",
"701.906 350.045 CURVE SMOOTH",
"745.817 570.779 OFFCURVE",
"644.531 700.038 OFFCURVE",
"399.531 700.038 CURVE SMOOTH"
);
},
{
closed = 1;
nodes = (
"78.841 17.949 LINE",
"210.971 682.141 LINE",
"395.971 682.141 LINE SMOOTH",
"631.971 682.141 OFFCURVE",
"722.653 554.871 OFFCURVE",
"681.906 350.045 CURVE SMOOTH",
"641.159 145.219 OFFCURVE",
"499.841 17.949 OFFCURVE",
"263.841 17.949 CURVE SMOOTH"
);
}
);
width = 734.51;
},
{
anchors = (
{
name = top;
position = "{444.28, 701}";
}
);
hints = (
{
horizontal = 1;
place = "{0, 93}";
type = Stem;
},
{
horizontal = 1;
place = "{607, 93}";
type = Stem;
}
);
layerId = "24A19461-EE5C-48C0-A968-CC082199DAC2";
paths = (
{
closed = 1;
nodes = (
"174.575 700.328 LINE",
"35.28 0 LINE",
"282.28 0 LINE SMOOTH",
"505.28 0 OFFCURVE",
"677.498 131.815 OFFCURVE",
"720.327 347.146 CURVE SMOOTH",
"763.358 563.487 OFFCURVE",
"644.575 700.328 OFFCURVE",
"421.575 700.328 CURVE SMOOTH"
);
},
{
closed = 1;
nodes = (
"167.844 93.334 LINE",
"270.078 607.328 LINE",
"403.078 607.328 LINE SMOOTH",
"567.078 607.328 OFFCURVE",
"635.221 507.496 OFFCURVE",
"603.327 347.146 CURVE SMOOTH",
"571.634 187.801 OFFCURVE",
"464.696 92.588 OFFCURVE",
"300.778 93 CURVE SMOOTH"
);
}
);
width = 743.5;
},
{
anchors = (
{
name = top;
position = "{419.28, 702}";
}
);
hints = (
{
horizontal = 1;
place = "{0, 198}";
type = Stem;
},
{
horizontal = 1;
place = "{506, 194}";
type = Stem;
}
);
layerId = "C06476A3-BC65-42D9-AE82-BE67E4874885";
paths = (
{
closed = 1;
nodes = (
"119.517 700.035 LINE",
"-19.72 0 LINE",
"295.28 0 LINE SMOOTH",
"521.28 0 OFFCURVE",
"693.565 152.264 OFFCURVE",
"733.29 351.988 CURVE SMOOTH",
"773.41 553.697 OFFCURVE",
"660.517 700.035 OFFCURVE",
"434.517 700.035 CURVE SMOOTH"
);
},
{
closed = 1;
nodes = (
"241.6 197.685 LINE",
"302.981 506.29 LINE",
"375.981 506.29 LINE SMOOTH",
"473.981 506.29 OFFCURVE",
"528.298 452.577 OFFCURVE",
"508.29 351.988 CURVE SMOOTH",
"488.283 251.398 OFFCURVE",
"412.6 197.685 OFFCURVE",
"314.6 197.685 CURVE SMOOTH"
);
}
);
width = 728;
},
{
anchors = (
{
name = top;
position = "{329, 702}";
}
);
hints = (
{
place = "{30, 222}";
type = Stem;
},
{
place = "{488, 225}";
type = Stem;
},
{
horizontal = 1;
place = "{0, 198}";
type = Stem;
},
{
horizontal = 1;
place = "{506, 194}";
type = Stem;
}
);
layerId = "F6DDAB16-9378-41C6-AF32-8CCAF9117681";
paths = (
{
closed = 1;
nodes = (
"30 700.035 LINE",
"30 0 LINE",
"345 0 LINE SMOOTH",
"571 0 OFFCURVE",
"713 152.264 OFFCURVE",
"713 351.988 CURVE SMOOTH",
"713 553.697 OFFCURVE",
"571 700.035 OFFCURVE",
"345 700.035 CURVE SMOOTH"
);
},
{
closed = 1;
nodes = (
"252 197.685 LINE",
"252 506.29 LINE",
"325 506.29 LINE SMOOTH",
"423 506.29 OFFCURVE",
"488 452.577 OFFCURVE",
"488 351.988 CURVE SMOOTH",
"488 251.398 OFFCURVE",
"423 197.685 OFFCURVE",
"325 197.685 CURVE SMOOTH"
);
}
);
width = 728;
},
{
anchors = (
{
name = top;
position = "{355, 701}";
}
);
hints = (
{
place = "{85, 114}";
type = Stem;
},
{
place = "{584, 117}";
type = Stem;
},
{
horizontal = 1;
place = "{0, 93}";
type = Stem;
},
{
horizontal = 1;
place = "{607, 93}";
type = Stem;
}
);
layerId = "0CF0EA28-C756-4A9E-9D7C-CFEF350B4CFE";
paths = (
{
closed = 1;
nodes = (
"85 700.328 LINE",
"85 0 LINE",
"332 0 LINE SMOOTH",
"555 0 OFFCURVE",
"701 131.815 OFFCURVE",
"701 347.146 CURVE SMOOTH",
"701 563.487 OFFCURVE",
"555 700.328 OFFCURVE",
"332 700.328 CURVE SMOOTH"
);
},
{
closed = 1;
nodes = (
"199 93.334 LINE",
"199 607.328 LINE",
"332 607.328 LINE SMOOTH",
"496 607.328 OFFCURVE",
"584 507.496 OFFCURVE",
"584 347.146 CURVE SMOOTH",
"584 187.801 OFFCURVE",
"496 92.588 OFFCURVE",
"332 93 CURVE SMOOTH"
);
}
);
width = 743.5;
},
{
anchors = (
{
name = top;
position = "{330, 679}";
}
);
hints = (
{
place = "{105, 20}";
type = Stem;
},
{
place = "{662, 20}";
type = Stem;
},
{
horizontal = 1;
place = "{0, 21}";
target = up;
type = BottomGhost;
},
{
horizontal = 1;
place = "{700, -20}";
target = down;
type = TopGhost;
}
);
layerId = "0C5DB0F2-5B8B-4830-A1C2-9833713645D2";
paths = (
{
closed = 1;
nodes = (
"105 700.038 LINE",
"105 0.051 LINE",
"310 0.051 LINE",
"555 0.051 OFFCURVE",
"682 129.31 OFFCURVE",
"682 350.045 CURVE",
"682 570.779 OFFCURVE",
"555 700.038 OFFCURVE",
"310 700.038 CURVE"
);
},
{
closed = 1;
nodes = (
"125 17.949 LINE",
"125 682.141 LINE",
"310 682.141 LINE",
"546 682.141 OFFCURVE",
"662 554.871 OFFCURVE",
"662 350.045 CURVE",
"662 145.219 OFFCURVE",
"546 17.949 OFFCURVE",
"310 17.949 CURVE"
);
}
);
width = 734.5;
}
);
leftMetricsKey = H;
rightMetricsKey = "=H*0.5";
unicode = 0044;
},
{
glyphname = Eth;
lastChange = "2021-08-04 13:13:16 +0000";
layers = (
{
hints = (
{
horizontal = 1;
place = "{0, 21}";
target = up;
type = BottomGhost;
},
{
horizontal = 1;
place = "{700, -20}";
target = down;
type = TopGhost;
}
);
layerId = "34B89C21-4068-454A-BBBC-B9295C834BF9";
paths = (
{
closed = 1;
nodes = (
"103.116 341.096 LINE",
"471.116 341.096 LINE",
"474.676 358.993 LINE",
"106.676 358.993 LINE"
);
},
{
closed = 1;
nodes = (
"289.521 700.038 LINE",
"150.27 0.051 LINE",
"335.27 0.051 LINE SMOOTH",
"580.27 0.051 OFFCURVE",
"732.984 129.31 OFFCURVE",
"776.896 350.045 CURVE SMOOTH",
"820.807 570.779 OFFCURVE",
"719.521 700.038 OFFCURVE",
"474.521 700.038 CURVE SMOOTH"
);
},
{
closed = 1;
nodes = (
"173.831 17.949 LINE",
"305.961 682.141 LINE",
"470.961 682.141 LINE SMOOTH",
"706.961 682.141 OFFCURVE",
"797.643 554.871 OFFCURVE",
"756.896 350.045 CURVE SMOOTH",
"716.149 145.219 OFFCURVE",
"574.831 17.949 OFFCURVE",
"338.831 17.949 CURVE SMOOTH"
);
}
);
width = 809.5;
},
{
hints = (
{
horizontal = 1;
place = "{0, 87}";
type = Stem;
},
{
horizontal = 1;
place = "{295, 105}";
type = Stem;
},
{
horizontal = 1;
place = "{608, 92}";
type = Stem;
}
);
layerId = "24A19461-EE5C-48C0-A968-CC082199DAC2";
paths = (
{
closed = 1;
nodes = (
"73.977 295.107 LINE",
"443.977 295.107 LINE",
"464.878 400.193 LINE",
"94.878 400.193 LINE"
);
},
{
closed = 1;
nodes = (
"231.575 700.328 LINE",
"92.28 0 LINE",
"320.28 0 LINE SMOOTH",
"543.28 0 OFFCURVE",
"714.498 131.815 OFFCURVE",
"757.327 347.146 CURVE SMOOTH",
"800.358 563.487 OFFCURVE",
"682.575 700.328 OFFCURVE",
"459.575 700.328 CURVE SMOOTH"
);
},
{
closed = 1;
nodes = (
"224.642 87.291 LINE",
"328.278 608.336 LINE",
"441.278 608.336 LINE SMOOTH",
"604.278 608.336 OFFCURVE",
"672.221 507.495 OFFCURVE",
"640.327 347.146 CURVE SMOOTH",
"608.635 187.805 OFFCURVE",
"500.48 86.475 OFFCURVE",
"337.576 86.957 CURVE SMOOTH"
);
}
);
width = 780.5;
},
{
hints = (
{
horizontal = 1;
place = "{0, 198}";
type = Stem;
},
{
horizontal = 1;
place = "{264, 176}";
type = Stem;
},
{
horizontal = 1;
place = "{506, 194}";
type = Stem;
}
);
layerId = "C06476A3-BC65-42D9-AE82-BE67E4874885";
paths = (
{
closed = 1;
nodes = (
"12.786 263.98 LINE",
"414.786 263.98 LINE",
"449.795 439.995 LINE",
"47.795 439.995 LINE"
);
},
{
closed = 1;
nodes = (
"149.517 700.035 LINE",
"10.28 0 LINE",
"305.28 0 LINE SMOOTH",
"531.28 0 OFFCURVE",
"703.565 152.264 OFFCURVE",
"743.29 351.987 CURVE SMOOTH",
"783.41 553.697 OFFCURVE",
"670.517 700.035 OFFCURVE",
"444.517 700.035 CURVE SMOOTH"
);
},
{
closed = 1;
nodes = (
"271.6 197.685 LINE",
"332.981 506.29 LINE",
"385.981 506.29 LINE SMOOTH",
"483.981 506.29 OFFCURVE",
"538.298 452.577 OFFCURVE",
"518.29 351.987 CURVE SMOOTH",
"498.283 251.398 OFFCURVE",
"422.6 197.685 OFFCURVE",
"324.6 197.685 CURVE SMOOTH"
);
}
);
width = 738;
},
{
hints = (
{
place = "{60, 222}";
type = Stem;
},
{
place = "{498, 225}";
type = Stem;
},
{
horizontal = 1;
place = "{0, 198}";
type = Stem;
},
{
horizontal = 1;
place = "{264, 176}";
type = Stem;
},
{
horizontal = 1;
place = "{506, 194}";
type = Stem;
}
);
layerId = "F6DDAB16-9378-41C6-AF32-8CCAF9117681";
paths = (
{
closed = 1;
nodes = (
"10 263.98 LINE",
"412 263.98 LINE",
"412 439.995 LINE",
"10 439.995 LINE"
);
},
{
closed = 1;
nodes = (
"60 700.035 LINE",
"60 0 LINE",
"355 0 LINE SMOOTH",
"581 0 OFFCURVE",
"723 152.264 OFFCURVE",
"723 351.987 CURVE SMOOTH",
"723 553.697 OFFCURVE",
"581 700.035 OFFCURVE",
"355 700.035 CURVE SMOOTH"
);
},
{
closed = 1;
nodes = (
"282 197.685 LINE",
"282 506.29 LINE",
"335 506.29 LINE SMOOTH",
"433 506.29 OFFCURVE",
"498 452.577 OFFCURVE",
"498 351.987 CURVE SMOOTH",
"498 251.398 OFFCURVE",
"433 197.685 OFFCURVE",
"335 197.685 CURVE SMOOTH"
);
}
);
width = 738;
},
{
hints = (
{
place = "{142, 115}";
type = Stem;
},
{
place = "{621, 117}";
type = Stem;
},
{
horizontal = 1;
place = "{0, 87}";
type = Stem;
},
{
horizontal = 1;
place = "{295, 105}";
type = Stem;
},
{
horizontal = 1;
place = "{608, 92}";
type = Stem;
}
);
layerId = "0CF0EA28-C756-4A9E-9D7C-CFEF350B4CFE";
paths = (
{
closed = 1;
nodes = (
"65 295.107 LINE",
"435 295.107 LINE",
"435 400.193 LINE",
"65 400.193 LINE"
);
},
{
closed = 1;
nodes = (
"142 700.328 LINE",
"142 0 LINE",
"370 0 LINE SMOOTH",
"593 0 OFFCURVE",
"738 131.815 OFFCURVE",
"738 347.146 CURVE SMOOTH",
"738 563.487 OFFCURVE",
"593 700.328 OFFCURVE",
"370 700.328 CURVE SMOOTH"
);
},
{
closed = 1;
nodes = (
"257 87.291 LINE",
"257 608.336 LINE",
"370 608.336 LINE SMOOTH",
"533 608.336 OFFCURVE",
"621 507.495 OFFCURVE",
"621 347.146 CURVE SMOOTH",
"621 187.805 OFFCURVE",
"533 86.475 OFFCURVE",
"370 86.957 CURVE SMOOTH"
);
}
);
width = 780.5;
},
{
hints = (
{
place = "{200, 20}";
type = Stem;
},
{
place = "{737, 20}";
type = Stem;
},
{
horizontal = 1;
place = "{0, 21}";
target = up;
type = BottomGhost;
},
{
horizontal = 1;
place = "{700, -20}";
target = down;
type = TopGhost;
}
);
layerId = "0C5DB0F2-5B8B-4830-A1C2-9833713645D2";
paths = (
{
closed = 1;
nodes = (
"85 341.096 LINE",
"453 341.096 LINE",
"453 358.993 LINE",
"85 358.993 LINE"
);
},
{
closed = 1;
nodes = (
"200 700.038 LINE",
"200 0.051 LINE",
"385 0.051 LINE",
"630 0.051 OFFCURVE",
"757 129.31 OFFCURVE",
"757 350.045 CURVE",
"757 570.779 OFFCURVE",
"630 700.038 OFFCURVE",
"385 700.038 CURVE"
);
},
{
closed = 1;
nodes = (
"220 17.949 LINE",
"220 682.141 LINE",
"385 682.141 LINE",
"621 682.141 OFFCURVE",
"737 554.871 OFFCURVE",
"737 350.045 CURVE",
"737 145.219 OFFCURVE",
"621 17.949 OFFCURVE",
"385 17.949 CURVE"
);
}
);
width = 809.5;
}
);
leftMetricsKey = "=D-20";
rightMetricsKey = D;
unicode = 00D0;
},
{
glyphname = E;
lastChange = "2021-08-04 11:39:15 +0000";
layers = (
{
anchors = (
{
name = bottom;
position = "{243.27, 0}";
},
{
name = ogonek;
position = "{439.27, 0}";
},
{
name = top;
position = "{409.27, 690}";
}
);
hints = (
{
horizontal = 1;
place = "{700, -20}";
target = down;
type = TopGhost;
},
{
horizontal = 1;
place = "{0, 21}";
target = up;
type = BottomGhost;
}
);
layerId = "34B89C21-4068-454A-BBBC-B9295C834BF9";
paths = (
{
closed = 1;
nodes = (
"628.531 700.038 LINE",
"194.531 700.038 LINE",
"55.28 0.051 LINE",
"489.28 0.051 LINE",
"492.841 17.949 LINE",
"78.841 17.949 LINE",
"145.115 351.096 LINE",
"469.115 351.096 LINE",
"472.675 368.993 LINE",
"148.675 368.993 LINE",
"210.971 682.141 LINE",
"624.971 682.141 LINE"
);
}
);
width = 624.01;
},
{
anchors = (
{
name = bottom;
position = "{262.28, 0}";
},
{
name = ogonek;
position = "{459.28, 0}";
},
{
name = top;
position = "{411.28, 701}";
}
);
hints = (
{
horizontal = 1;
place = "{0, 93}";
type = Stem;
},
{
horizontal = 1;
place = "{308, 93}";
type = Stem;
},
{
horizontal = 1;
place = "{607, 93}";
type = Stem;
}
);
layerId = "24A19461-EE5C-48C0-A968-CC082199DAC2";
paths = (
{
closed = 1;
nodes = (
"648.577 700.336 LINE",
"174.577 700.336 LINE",
"35.28 0 LINE",
"509.28 0 LINE",
"527.778 93 LINE",
"167.844 93.334 LINE",
"210.581 308.2 LINE",
"480.581 308.2 LINE",
"499.112 401.367 LINE",
"229.112 401.367 LINE",
"270.079 607.336 LINE",
"630.079 607.336 LINE"
);
}
);
width = 624.01;
},
{
anchors = (
{
name = bottom;
position = "{252.28, 1}";
},
{
name = ogonek;
position = "{492.28, 1}";
},
{
name = top;
position = "{392.28, 702}";
}
);
hints = (
{
horizontal = 1;
place = "{0, 177}";
type = Stem;
},
{
horizontal = 1;
place = "{270, 177}";
type = Stem;
},
{
horizontal = 1;
place = "{523, 177}";
type = Stem;
}
);
layerId = "C06476A3-BC65-42D9-AE82-BE67E4874885";
paths = (
{
closed = 1;
nodes = (
"681.517 700.035 LINE",
"119.517 700.035 LINE",
"-19.72 0 LINE",
"542.28 0 LINE",
"577.485 177 LINE",
"237.485 177 LINE",
"255.952 269.845 LINE",
"485.952 269.845 LINE",
"521.187 446.995 LINE",
"291.187 446.995 LINE",
"306.312 523.035 LINE",
"646.312 523.035 LINE"
);
}
);
width = 602.01;
},
{
anchors = (
{
name = bottom;
position = "{302, 1}";
},
{
name = ogonek;
position = "{542, 1}";
},
{
name = top;
position = "{302, 702}";
}
);
hints = (
{
place = "{30, 222}";
type = Stem;
},
{
horizontal = 1;
place = "{0, 177}";
type = Stem;
},
{
horizontal = 1;
place = "{270, 177}";
type = Stem;
},
{
horizontal = 1;
place = "{523, 177}";
type = Stem;
}
);
layerId = "F6DDAB16-9378-41C6-AF32-8CCAF9117681";
paths = (
{
closed = 1;
nodes = (
"592 700.035 LINE",
"30 700.035 LINE",
"30 0 LINE",
"592 0 LINE",
"592 177 LINE",
"252 177 LINE",
"252 269.845 LINE",
"482 269.845 LINE",
"482 446.995 LINE",
"252 446.995 LINE",
"252 523.035 LINE",
"592 523.035 LINE"
);
}
);
width = 602;
},
{
anchors = (
{
name = bottom;
position = "{312, 0}";
},
{
name = ogonek;
position = "{509, 0}";
},
{
name = top;
position = "{322, 701}";
}
);
hints = (
{
place = "{85, 114}";
type = Stem;
},
{
horizontal = 1;
place = "{0, 93}";
type = Stem;
},
{
horizontal = 1;
place = "{308, 93}";
type = Stem;
},
{
horizontal = 1;
place = "{607, 93}";
type = Stem;
}
);
layerId = "0CF0EA28-C756-4A9E-9D7C-CFEF350B4CFE";
paths = (
{
closed = 1;
nodes = (
"559 700.336 LINE",
"85 700.336 LINE",
"85 0 LINE",
"559 0 LINE",
"559 93 LINE",
"199 93.334 LINE",
"199 308.2 LINE",
"469 308.2 LINE",
"469 401.367 LINE",
"199 401.367 LINE",
"199 607.336 LINE",
"559 607.336 LINE"
);
}
);
width = 624;
},
{
anchors = (
{
name = bottom;
position = "{293, 0}";
},
{
name = ogonek;
position = "{489, 0}";
},
{
name = top;
position = "{322, 690}";
}
);
hints = (
{
place = "{105, 20}";
type = Stem;
},
{
horizontal = 1;
place = "{700, -20}";
target = down;
type = TopGhost;
},
{
horizontal = 1;
place = "{0, 21}";
target = up;
type = BottomGhost;
}
);
layerId = "0C5DB0F2-5B8B-4830-A1C2-9833713645D2";
paths = (
{
closed = 1;
nodes = (
"539 700.038 LINE",
"105 700.038 LINE",
"105 0.051 LINE",
"539 0.051 LINE",
"539 17.949 LINE",
"125 17.949 LINE",
"125 351.096 LINE",
"449 351.096 LINE",
"449 368.993 LINE",
"125 368.993 LINE",
"125 682.141 LINE",
"539 682.141 LINE"
);
}
);
width = 624;
}
);
leftMetricsKey = H;
rightMetricsKey = "=H-20";
unicode = 0045;
},
{
glyphname = F;
lastChange = "2021-08-04 13:13:47 +0000";
layers = (
{
hints = (
{
horizontal = 1;
place = "{700, -20}";
target = down;
type = TopGhost;
},
{
horizontal = 1;
place = "{0, 21}";
target = up;
type = BottomGhost;
}
);
layerId = "34B89C21-4068-454A-BBBC-B9295C834BF9";
paths = (
{
closed = 1;
nodes = (
"55.28 0.051 LINE",
"75.28 0.051 LINE",
"143.12 341.103 LINE",
"457.12 341.103 LINE",
"460.68 359 LINE",
"146.68 359 LINE",
"210.959 682.154 LINE",
"614.959 682.154 LINE",
"618.519 700.052 LINE",
"194.519 700.052 LINE"
);
}
);
width = 585.61;
},
{
hints = (
{
horizontal = 1;
place = "{607, 93}";
type = Stem;
},
{
horizontal = 1;
place = "{306, 93}";
type = Stem;
},
{
horizontal = 1;
place = "{0, 21}";
target = up;
type = BottomGhost;
}
);
layerId = "24A19461-EE5C-48C0-A968-CC082199DAC2";
paths = (
{
closed = 1;
nodes = (
"35.27 0 LINE",
"149.27 0 LINE",
"210.174 306.186 LINE",
"497.733 306.186 LINE",
"516.232 399.186 LINE",
"228.739 399.52 LINE",
"270.075 607.328 LINE",
"645.075 607.328 LINE",
"663.574 700.328 LINE",
"174.574 700.328 LINE"
);
}
);
width = 617.29;
},
{
hints = (
{
horizontal = 1;
place = "{263, 167}";
type = Stem;
},
{
horizontal = 1;
place = "{524, 176}";
type = Stem;
},
{
horizontal = 1;
place = "{0, 21}";
target = up;
type = BottomGhost;
}
);
layerId = "C06476A3-BC65-42D9-AE82-BE67E4874885";
paths = (
{
closed = 1;
nodes = (
"-19.73 0 LINE",
"202.27 0 LINE",
"254.583 262.995 LINE",
"500.045 262.995 LINE",
"533.293 430.145 LINE",
"287.831 430.145 LINE",
"306.504 524.02 LINE",
"664.504 524.02 LINE",
"699.516 700.035 LINE",
"119.516 700.035 LINE"
);
}
);
width = 616.66;
},
{
hints = (
{
place = "{30, 222}";
type = Stem;
},
{
horizontal = 1;
place = "{263, 167}";
type = Stem;
},
{
horizontal = 1;
place = "{524, 176}";
type = Stem;
},
{
horizontal = 1;
place = "{0, 21}";
target = up;
type = BottomGhost;
}
);
layerId = "F6DDAB16-9378-41C6-AF32-8CCAF9117681";
paths = (
{
closed = 1;
nodes = (
"30 0 LINE",
"252 0 LINE",
"252 262.995 LINE",
"497.462 262.995 LINE",
"497.462 430.145 LINE",
"252 430.145 LINE",
"252 524.02 LINE",
"610 524.02 LINE",
"610 700.035 LINE",
"30 700.035 LINE"
);
}
);
width = 616.66;
},
{
hints = (
{
place = "{85, 114}";
type = Stem;
},
{
horizontal = 1;
place = "{306, 93}";
type = Stem;
},
{
horizontal = 1;
place = "{607, 93}";
type = Stem;
},
{
horizontal = 1;
place = "{0, 21}";
target = up;
type = BottomGhost;
}
);
layerId = "0CF0EA28-C756-4A9E-9D7C-CFEF350B4CFE";
paths = (
{
closed = 1;
nodes = (
"85 0 LINE",
"199 0 LINE",
"199 306.186 LINE",
"486.559 306.186 LINE",
"486.559 399.186 LINE",
"199 399.52 LINE",
"199 607.328 LINE",
"574 607.328 LINE",
"574 700.328 LINE",
"85 700.328 LINE"
);
}
);
width = 617.29;
},
{
hints = (
{
place = "{105, 20}";
type = Stem;
},
{
horizontal = 1;
place = "{700, -20}";
target = down;
type = TopGhost;
},
{
horizontal = 1;
place = "{0, 21}";
target = up;
type = BottomGhost;
}
);
layerId = "0C5DB0F2-5B8B-4830-A1C2-9833713645D2";
paths = (
{
closed = 1;
nodes = (
"105 0.051 LINE",
"125 0.051 LINE",
"125 341.103 LINE",
"439 341.103 LINE",
"439 359 LINE",
"125 359 LINE",
"125 682.154 LINE",
"529 682.154 LINE",
"529 700.052 LINE",
"105 700.052 LINE"
);
}
);
width = 585.61;
}
);
leftMetricsKey = H;
rightMetricsKey = "=E*0.666";
unicode = 0046;
},
{
glyphname = G;
lastChange = "2021-08-04 13:14:05 +0000";
layers = (
{
anchors = (
{
name = bottom;
position = "{353.76, 0}";
},
{
name = top;
position = "{488.76, 679}";
}
);
hints = (
{
horizontal = 1;
place = "{706, -20}";
target = down;
type = TopGhost;
},
{
horizontal = 1;
place = "{-8, 21}";
target = up;
type = BottomGhost;
}
);
layerId = "34B89C21-4068-454A-BBBC-B9295C834BF9";
paths = (
{
closed = 1;
nodes = (
"746.496 508.138 LINE",
"719.292 627.504 OFFCURVE",
"627.708 706.004 OFFCURVE",
"479.208 706.004 CURVE SMOOTH",
"283.208 706.004 OFFCURVE",
"113.934 558.848 OFFCURVE",
"72.198 349.05 CURVE SMOOTH",
"30.462 139.253 OFFCURVE",
"141.188 -7.903 OFFCURVE",
"337.188 -7.903 CURVE SMOOTH",
"496.838 -7.903 OFFCURVE",
"638.762 89.737 OFFCURVE",
"708.481 239.379 CURVE",
"731.78 357.005 LINE",
"409.78 357.005 LINE",
"406.22 339.107 LINE",
"709.22 339.107 LINE",
"690.045 241.716 LINE",
"621.169 95.554 OFFCURVE",
"483.448 9.994 OFFCURVE",
"340.748 9.994 CURVE SMOOTH",
"165.748 9.994 OFFCURVE",
"51.264 138.259 OFFCURVE",
"93.198 349.05 CURVE SMOOTH",
"135.132 559.842 OFFCURVE",
"300.648 688.107 OFFCURVE",
"475.648 688.107 CURVE SMOOTH",
"617.448 688.107 OFFCURVE",
"705.872 609.308 OFFCURVE",
"727.89 501.825 CURVE"
);
}
);
width = 773.59;
},
{
anchors = (
{
name = bottom;
position = "{341.78, 0}";
},
{
name = top;
position = "{480.78, 701}";
}
);
hints = (
{
horizontal = 1;
place = "{-6, 103}";
type = Stem;
},
{
horizontal = 1;
place = "{292, 91}";
type = Stem;
},
{
horizontal = 1;
place = "{604, 104}";
type = Stem;
}
);
layerId = "24A19461-EE5C-48C0-A968-CC082199DAC2";
paths = (
{
closed = 1;
nodes = (
"762.972 520.684 LINE",
"733.305 641.924 OFFCURVE",
"622.331 708.393 OFFCURVE",
"488.679 708.393 CURVE SMOOTH",
"292.679 708.393 OFFCURVE",
"104.258 560.475 OFFCURVE",
"62.629 351.175 CURVE SMOOTH",
"20.799 140.869 OFFCURVE",
"150.578 -6.043 OFFCURVE",
"346.578 -6.043 CURVE SMOOTH",
"502.631 -6.043 OFFCURVE",
"641.637 89.547 OFFCURVE",
"714.628 215.425 CURVE",
"747.973 383.071 LINE",
"427.973 383.071 LINE",
"409.876 292.085 LINE",
"607.809 291.751 LINE",
"593.609 220.356 LINE",
"544.365 143.737 OFFCURVE",
"465.37 97.029 OFFCURVE",
"367.079 97.029 CURVE SMOOTH",
"229.079 97.029 OFFCURVE",
"148.938 196.872 OFFCURVE",
"179.629 351.175 CURVE SMOOTH",
"210.32 505.479 OFFCURVE",
"329.978 604.314 OFFCURVE",
"467.978 604.314 CURVE SMOOTH",
"549.278 604.314 OFFCURVE",
"627.378 562.5 OFFCURVE",
"650.66 482.147 CURVE"
);
}
);
width = 772.51;
},
{
anchors = (
{
name = bottom;
position = "{312.28, 1}";
},
{
name = top;
position = "{452.28, 702}";
}
);
hints = (
{
horizontal = 1;
place = "{-5, 195}";
type = Stem;
},
{
horizontal = 1;
place = "{249, 156}";
type = Stem;
},
{
horizontal = 1;
place = "{502, 205}";
type = Stem;
}
);
layerId = "C06476A3-BC65-42D9-AE82-BE67E4874885";
paths = (
{
closed = 1;
nodes = (
"744.502 500.086 LINE",
"733.376 626.895 OFFCURVE",
"633.809 706.93 OFFCURVE",
"463.888 706.93 CURVE SMOOTH",
"241.888 706.93 OFFCURVE",
"76.588 559.616 OFFCURVE",
"35.094 351.003 CURVE SMOOTH",
"-6.399 142.389 OFFCURVE",
"101.3 -4.925 OFFCURVE",
"324.3 -4.925 CURVE SMOOTH",
"506.979 -4.925 OFFCURVE",
"628.165 100.84 OFFCURVE",
"694.049 184.86 CURVE",
"737.938 405.52 LINE",
"403.938 405.52 LINE",
"372.847 249.205 LINE",
"522.769 249.205 LINE",
"522.992 250.261 LINE",
"482.169 208.46 OFFCURVE",
"436.665 189.805 OFFCURVE",
"387.032 189.805 CURVE SMOOTH",
"278.032 189.805 OFFCURVE",
"238.72 243.538 OFFCURVE",
"260.094 351.003 CURVE SMOOTH",
"278.35 442.787 OFFCURVE",
"338.197 502.35 OFFCURVE",
"424.197 502.35 CURVE SMOOTH",
"469.671 502.35 OFFCURVE",
"498.219 486.227 OFFCURVE",
"510.313 460.47 CURVE"
);
}
);
width = 725.01;
},
{
anchors = (
{
name = bottom;
position = "{362, 1}";
},
{
name = top;
position = "{362, 702}";
}
);
hints = (
{
place = "{15, 225}";
type = Stem;
},
{
horizontal = 1;
place = "{-5, 195}";
type = Stem;
},
{
horizontal = 1;
place = "{249, 156}";
type = Stem;
},
{
horizontal = 1;
place = "{502, 205}";
type = Stem;
}
);
layerId = "F6DDAB16-9378-41C6-AF32-8CCAF9117681";
paths = (
{
closed = 1;
nodes = (
"694.755 500.086 LINE",
"658.406 626.895 OFFCURVE",
"542.921 706.93 OFFCURVE",
"373 706.93 CURVE SMOOTH",
"151 706.93 OFFCURVE",
"15 559.616 OFFCURVE",
"15 351.003 CURVE SMOOTH",
"15 142.389 OFFCURVE",
"152 -4.925 OFFCURVE",
"375 -4.925 CURVE SMOOTH",
"557.678 -4.925 OFFCURVE",
"657.828 100.84 OFFCURVE",
"707 184.86 CURVE",
"707 405.52 LINE",
"373 405.52 LINE",
"373 249.205 LINE",
"522.922 249.205 LINE",
"522.935 250.261 LINE",
"490.426 208.46 OFFCURVE",
"448.633 189.805 OFFCURVE",
"399 189.805 CURVE SMOOTH",
"290 189.805 OFFCURVE",
"240 243.538 OFFCURVE",
"240 351.003 CURVE SMOOTH",
"240 442.787 OFFCURVE",
"288 502.35 OFFCURVE",
"374 502.35 CURVE SMOOTH",
"419.473 502.35 OFFCURVE",
"451.229 486.227 OFFCURVE",
"468.445 460.47 CURVE"
);
}
);
width = 725;
},
{
anchors = (
{
name = bottom;
position = "{391.5, 0}";
},
{
name = top;
position = "{391.5, 701}";
}
);
hints = (
{
place = "{42, 117}";
type = Stem;
},
{
place = "{599, 122}";
type = Stem;
},
{
horizontal = 1;
place = "{-6, 103}";
type = Stem;
},
{
horizontal = 1;
place = "{292, 91}";
type = Stem;
},
{
horizontal = 1;
place = "{604, 104}";
type = Stem;
}
);
layerId = "0CF0EA28-C756-4A9E-9D7C-CFEF350B4CFE";
paths = (
{
closed = 1;
nodes = (
"709.128 520.684 LINE",
"655.346 641.924 OFFCURVE",
"531.151 708.393 OFFCURVE",
"397.5 708.393 CURVE SMOOTH",
"201.5 708.393 OFFCURVE",
"42.5 560.475 OFFCURVE",
"42.5 351.175 CURVE SMOOTH",
"42.5 140.869 OFFCURVE",
"201.5 -6.043 OFFCURVE",
"397.5 -6.043 CURVE SMOOTH",
"553.553 -6.043 OFFCURVE",
"673.546 89.547 OFFCURVE",
"721.5 215.425 CURVE",
"721.5 383.071 LINE",
"401.5 383.071 LINE",
"401.5 292.085 LINE",
"599.5 291.751 LINE",
"599.5 220.356 LINE",
"565.495 143.737 OFFCURVE",
"495.791 97.029 OFFCURVE",
"397.5 97.029 CURVE SMOOTH",
"259.5 97.029 OFFCURVE",
"159.5 196.872 OFFCURVE",
"159.5 351.175 CURVE SMOOTH",
"159.5 505.479 OFFCURVE",
"259.5 604.314 OFFCURVE",
"397.5 604.314 CURVE SMOOTH",
"478.8 604.314 OFFCURVE",
"565.216 562.5 OFFCURVE",
"604.481 482.147 CURVE"
);
}
);
width = 772.5;
},
{
anchors = (
{
name = bottom;
position = "{403.5, 0}";
},
{
name = top;
position = "{403.5, 679}";
}
);
hints = (
{
place = "{52, 21}";
type = Stem;
},
{
horizontal = 1;
place = "{706, -20}";
target = down;
type = TopGhost;
},
{
horizontal = 1;
place = "{-8, 21}";
target = up;
type = BottomGhost;
}
);
layerId = "0C5DB0F2-5B8B-4830-A1C2-9833713645D2";
paths = (
{
closed = 1;
nodes = (
"695.15 508.138 LINE",
"644.2 627.504 OFFCURVE",
"537 706.004 OFFCURVE",
"388.5 706.004 CURVE SMOOTH",
"192.5 706.004 OFFCURVE",
"52.5 558.848 OFFCURVE",
"52.5 349.05 CURVE SMOOTH",
"52.5 139.253 OFFCURVE",
"192.5 -7.903 OFFCURVE",
"388.5 -7.903 CURVE SMOOTH",
"548.15 -7.903 OFFCURVE",
"670.65 89.737 OFFCURVE",
"710.6 239.379 CURVE",
"710.5 357.005 LINE",
"388.5 357.005 LINE",
"388.5 339.107 LINE",
"691.5 339.107 LINE",
"691.7 241.716 LINE",
"651.9 95.554 OFFCURVE",
"531.2 9.994 OFFCURVE",
"388.5 9.994 CURVE SMOOTH",
"213.5 9.994 OFFCURVE",
"73.5 138.259 OFFCURVE",
"73.5 349.05 CURVE SMOOTH",
"73.5 559.842 OFFCURVE",
"213.5 688.107 OFFCURVE",
"388.5 688.107 CURVE SMOOTH",
"530.3 688.107 OFFCURVE",
"634.4 609.308 OFFCURVE",
"677.8 501.825 CURVE"
);
}
);
width = 773.6;
}
);
leftMetricsKey = O;
rightMetricsKey = "=O*1.2";
unicode = 0047;
},
{
glyphname = Gcommaaccent;
lastChange = "2021-08-04 13:14:22 +0000";
layers = (
{
anchors = (
{
name = _bottom;
position = "{394, -8}";
}
);
components = (
{
alignment = -1;
name = G;
}
);
hints = (
{
horizontal = 1;
place = "{-59, -20}";
target = down;
type = TopGhost;
},
{
horizontal = 1;
place = "{-175, 21}";
target = up;
type = BottomGhost;
}
);
layerId = "34B89C21-4068-454A-BBBC-B9295C834BF9";
paths = (
{
closed = 1;
nodes = (
"365.341 -58.614 LINE",
"357.825 -96.398 LINE",
"388.825 -96.398 LINE",
"387.441 -103.358 LINE SMOOTH",
"380.914 -136.171 OFFCURVE",
"365.761 -157.051 OFFCURVE",
"333.761 -157.051 CURVE",
"330.2 -174.949 LINE",
"366.2 -174.949 OFFCURVE",
"398.167 -160.034 OFFCURVE",
"412.21 -89.438 CURVE SMOOTH",
"413.99 -80.489 OFFCURVE",
"415.561 -67.563 OFFCURVE",
"416.341 -58.614 CURVE"
);
}
);
width = 773.59;
},
{
anchors = (
{
name = _bottom;
position = "{386, 0}";
}
);
components = (
{
alignment = -1;
name = G;
}
);
hints = (
{
horizontal = 1;
place = "{-143, 96}";
type = Stem;
},
{
horizontal = 1;
place = "{-272, 21}";
target = up;
type = BottomGhost;
}
);
layerId = "24A19461-EE5C-48C0-A968-CC082199DAC2";
paths = (
{
closed = 1;
nodes = (
"322.651 -47 LINE",
"303.551 -143.022 LINE",
"356.485 -143.356 LINE",
"352.278 -164.507 LINE SMOOTH",
"344.62 -203.003 OFFCURVE",
"325.792 -222.251 OFFCURVE",
"291.792 -222.251 CURVE",
"281.907 -271.942 LINE",
"355.907 -271.942 OFFCURVE",
"403.299 -229.752 OFFCURVE",
"419.884 -146.377 CURVE SMOOTH",
"425.683 -117.224 OFFCURVE",
"427.293 -84.102 OFFCURVE",
"425.713 -47 CURVE"
);
}
);
width = 772.51;
},
{
anchors = (
{
name = _bottom;
position = "{378, 1}";
}
);
components = (
{
alignment = -1;
name = G;
}
);
hints = (
{
horizontal = 1;
place = "{-341, 79}";
type = Stem;
},
{
horizontal = 1;
place = "{-179, 147}";
type = Stem;
}
);
layerId = "C06476A3-BC65-42D9-AE82-BE67E4874885";
paths = (
{
closed = 1;
nodes = (
"291.671 -31.82 LINE",
"262.341 -179.27 LINE",
"334.341 -179.27 LINE",
"332.45 -188.777 LINE SMOOTH",
"322.444 -239.077 OFFCURVE",
"298.019 -261.325 OFFCURVE",
"263.019 -261.325 CURVE",
"247.209 -340.81 LINE",
"361.209 -340.81 OFFCURVE",
"428.003 -261.407 OFFCURVE",
"446.956 -166.122 CURVE SMOOTH",
"455.244 -124.455 OFFCURVE",
"456.242 -78.705 OFFCURVE",
"447.339 -31.82 CURVE"
);
}
);
width = 725.01;
},
{
anchors = (
{
name = _bottom;
position = "{378, 1}";
}
);
components = (
{
alignment = -1;
name = G;
}
);
hints = (
{
place = "{298, 182}";
type = Stem;
},
{
place = "{370, 110}";
type = Stem;
},
{
horizontal = 1;
place = "{-341, 79}";
type = Stem;
},
{
horizontal = 1;
place = "{-179, 147}";
type = Stem;
}
);
layerId = "F6DDAB16-9378-41C6-AF32-8CCAF9117681";
paths = (
{
closed = 1;
nodes = (
"298 -31.82 LINE",
"298 -179.27 LINE",
"370 -179.27 LINE",
"370 -188.777 LINE",
"370 -239.077 OFFCURVE",
"350 -261.325 OFFCURVE",
"315 -261.325 CURVE",
"315 -340.81 LINE",
"429 -340.81 OFFCURVE",
"480 -261.407 OFFCURVE",
"480 -166.122 CURVE SMOOTH",
"480 -124.455 OFFCURVE",
"471.898 -78.705 OFFCURVE",
"453.668 -31.82 CURVE"
);
}
);
width = 725;
},
{
anchors = (
{
name = _bottom;
position = "{386, 0}";
}
);
components = (
{
alignment = -1;
name = G;
}
);
hints = (
{
place = "{332, 117}";
type = Stem;
},
{
place = "{336, 113}";
type = Stem;
},
{
place = "{385, 64}";
type = Stem;
},
{
horizontal = 1;
place = "{-143, 96}";
type = Stem;
},
{
horizontal = 1;
place = "{-272, 21}";
target = up;
type = BottomGhost;
}
);
layerId = "0CF0EA28-C756-4A9E-9D7C-CFEF350B4CFE";
paths = (
{
closed = 1;
nodes = (
"332 -47 LINE",
"332 -143.022 LINE",
"385 -143.356 LINE",
"385 -164.507 LINE SMOOTH",
"385 -203.003 OFFCURVE",
"370 -222.251 OFFCURVE",
"336 -222.251 CURVE",
"336 -271.942 LINE",
"410 -271.942 OFFCURVE",
"449 -229.752 OFFCURVE",
"449 -146.377 CURVE SMOOTH",
"449 -117.224 OFFCURVE",
"444.022 -84.102 OFFCURVE",
"435.062 -47 CURVE"
);
}
);
width = 772.5;
},
{
anchors = (
{
name = _bottom;
position = "{396, -8}";
}
);
components = (
{
alignment = -1;
name = G;
}
);
hints = (
{
place = "{408, 22}";
type = Stem;
},
{
horizontal = 1;
place = "{-59, -20}";
target = down;
type = TopGhost;
},
{
horizontal = 1;
place = "{-175, 21}";
target = up;
type = BottomGhost;
}
);
layerId = "0C5DB0F2-5B8B-4830-A1C2-9833713645D2";
paths = (
{
closed = 1;
nodes = (
"377 -58.614 LINE",
"377 -96.398 LINE",
"408 -96.398 LINE",
"408 -103.358 LINE SMOOTH",
"408 -136.171 OFFCURVE",
"397 -157.051 OFFCURVE",
"365 -157.051 CURVE",
"365 -174.949 LINE",
"401 -174.949 OFFCURVE",
"430 -160.034 OFFCURVE",
"430 -89.438 CURVE SMOOTH",
"430 -80.489 OFFCURVE",
"429 -67.563 OFFCURVE",
"428 -58.614 CURVE"
);
}
);
width = 773.6;
}
);
leftMetricsKey = G;
rightMetricsKey = G;
unicode = 0122;
},
{
glyphname = H;
lastChange = "2021-08-04 11:38:52 +0000";
layers = (
{
hints = (
{
horizontal = 1;
place = "{0, 21}";
target = up;
type = BottomGhost;
},
{
horizontal = 1;
place = "{700, -20}";
target = down;
type = TopGhost;
}
);
layerId = "34B89C21-4068-454A-BBBC-B9295C834BF9";
paths = (
{
closed = 1;
nodes = (
"55.28 0.051 LINE",
"75.28 0.051 LINE",
"214.519 700.052 LINE",
"194.519 700.052 LINE"
);
},
{
closed = 1;
nodes = (
"514.28 0.051 LINE",
"534.28 0.051 LINE",
"673.519 700.052 LINE",
"653.519 700.052 LINE"
);
},
{
closed = 1;
nodes = (
"135.097 351.046 LINE",
"596.097 351.046 LINE",
"599.657 368.944 LINE",
"138.657 368.944 LINE"
);
}
);
width = 689;
},
{
guideLines = (
{
position = "{-49.73, 699.66}";
}
);
hints = (
{
horizontal = 1;
place = "{306, 93}";
type = Stem;
},
{
horizontal = 1;
place = "{0, 21}";
target = up;
type = BottomGhost;
},
{
horizontal = 1;
place = "{700, -20}";
target = down;
type = TopGhost;
}
);
layerId = "24A19461-EE5C-48C0-A968-CC082199DAC2";
paths = (
{
closed = 1;
nodes = (
"35.27 0 LINE",
"149.27 0 LINE",
"288.574 700.328 LINE",
"174.574 700.328 LINE"
);
},
{
closed = 1;
nodes = (
"476.27 0 LINE",
"590.27 0 LINE",
"729.574 700.328 LINE",
"615.574 700.328 LINE"
);
},
{
closed = 1;
nodes = (
"190.174 306.186 LINE",
"564.174 306.186 LINE",
"582.673 399.186 LINE",
"208.673 399.186 LINE"
);
}
);
width = 725;
},
{
hints = (
{
horizontal = 1;
place = "{272, 177}";
type = Stem;
},
{
horizontal = 1;
place = "{0, 21}";
target = up;
type = BottomGhost;
},
{
horizontal = 1;
place = "{700, -20}";
target = down;
type = TopGhost;
}
);
layerId = "C06476A3-BC65-42D9-AE82-BE67E4874885";
paths = (
{
closed = 1;
nodes = (
"-19.73 0 LINE",
"202.27 0 LINE",
"341.516 700.035 LINE",
"119.516 700.035 LINE"
);
},
{
closed = 1;
nodes = (
"413.27 0 LINE",
"635.27 0 LINE",
"774.516 700.035 LINE",
"552.516 700.035 LINE"
);
},
{
closed = 1;
nodes = (
"236.346 271.86 LINE",
"489.346 271.86 LINE",
"524.554 448.86 LINE",
"271.554 448.86 LINE"
);
}
);
width = 715;
},
{
hints = (
{
place = "{30, 222}";
type = Stem;
},
{
place = "{463, 222}";
type = Stem;
},
{
horizontal = 1;
place = "{272, 177}";
type = Stem;
},
{
horizontal = 1;
place = "{0, 21}";
target = up;
type = BottomGhost;
},
{
horizontal = 1;
place = "{700, -20}";
target = down;
type = TopGhost;
}
);
layerId = "F6DDAB16-9378-41C6-AF32-8CCAF9117681";
paths = (
{
closed = 1;
nodes = (
"30 0 LINE",
"252 0 LINE",
"252 700.035 LINE",
"30 700.035 LINE"
);
},
{
closed = 1;
nodes = (
"463 0 LINE",
"685 0 LINE",
"685 700.035 LINE",
"463 700.035 LINE"
);
},
{
closed = 1;
nodes = (
"232 271.86 LINE",
"485 271.86 LINE",
"485 448.86 LINE",
"232 448.86 LINE"
);
}
);
width = 715;
},
{
guideLines = (
{
position = "{0, 699.66}";
}
);
hints = (
{
place = "{85, 114}";
type = Stem;
},
{
place = "{526, 114}";
type = Stem;
},
{
horizontal = 1;
place = "{306, 93}";
type = Stem;
},
{
horizontal = 1;
place = "{0, 21}";
target = up;
type = BottomGhost;
},
{
horizontal = 1;
place = "{700, -20}";
target = down;
type = TopGhost;
}
);
layerId = "0CF0EA28-C756-4A9E-9D7C-CFEF350B4CFE";
paths = (
{
closed = 1;
nodes = (
"85 0 LINE",
"199 0 LINE",
"199 700.328 LINE",
"85 700.328 LINE"
);
},
{
closed = 1;
nodes = (
"526 0 LINE",
"640 0 LINE",
"640 700.328 LINE",
"526 700.328 LINE"
);
},
{
closed = 1;
nodes = (
"179 306.186 LINE",
"553 306.186 LINE",
"553 399.186 LINE",
"179 399.186 LINE"
);
}
);
width = 725;
},
{
hints = (
{
place = "{105, 20}";
type = Stem;
},
{
place = "{564, 20}";
type = Stem;
},
{
horizontal = 1;
place = "{0, 21}";
target = up;
type = BottomGhost;
},
{
horizontal = 1;
place = "{700, -20}";
target = down;
type = TopGhost;
}
);
layerId = "0C5DB0F2-5B8B-4830-A1C2-9833713645D2";
paths = (
{
closed = 1;
nodes = (
"105 0.051 LINE",
"125 0.051 LINE",
"125 700.052 LINE",
"105 700.052 LINE"
);
},
{
closed = 1;
nodes = (
"564 0.051 LINE",
"584 0.051 LINE",
"584 700.052 LINE",
"564 700.052 LINE"
);
},
{
closed = 1;
nodes = (
"115 351.046 LINE",
"576 351.046 LINE",
"576 368.944 LINE",
"115 368.944 LINE"
);
}
);
width = 689;
}
);
unicode = 0048;
},
{
glyphname = I;
lastChange = "2021-08-04 11:39:15 +0000";
layers = (
{
anchors = (
{
name = ogonek;
position = "{75.27, 0}";
},
{
name = top;
position = "{200.27, 679}";
}
);
hints = (
{
horizontal = 1;
place = "{0, 21}";
target = up;
type = BottomGhost;
},
{
horizontal = 1;
place = "{700, -20}";
target = down;
type = TopGhost;
}
);
layerId = "34B89C21-4068-454A-BBBC-B9295C834BF9";
paths = (
{
closed = 1;
nodes = (
"55.28 0.051 LINE",
"75.28 0.051 LINE",
"214.531 700.038 LINE",
"194.531 700.038 LINE"
);
}
);
width = 230.01;
},
{
anchors = (
{
name = ogonek;
position = "{149.28, 1}";
},
{
name = top;
position = "{231.28, 701}";
}
);
hints = (
{
horizontal = 1;
place = "{0, 21}";
target = up;
type = BottomGhost;
},
{
horizontal = 1;
place = "{700, -20}";
target = down;
type = TopGhost;
}
);
layerId = "24A19461-EE5C-48C0-A968-CC082199DAC2";
paths = (
{
closed = 1;
nodes = (
"35.28 0 LINE",
"149.28 0 LINE",
"288.575 700.328 LINE",
"174.575 700.328 LINE"
);
}
);
width = 284.01;
},
{
anchors = (
{
name = ogonek;
position = "{202.28, 1}";
},
{
name = top;
position = "{232.28, 702}";
}
);
hints = (
{
horizontal = 1;
place = "{0, 21}";
target = up;
type = BottomGhost;
},
{
horizontal = 1;
place = "{700, -20}";
target = down;
type = TopGhost;
}
);
layerId = "C06476A3-BC65-42D9-AE82-BE67E4874885";
paths = (
{
closed = 1;
nodes = (
"-19.72 0 LINE",
"202.28 0 LINE",
"341.517 700.035 LINE",
"119.517 700.035 LINE"
);
}
);
width = 282.01;
},
{
anchors = (
{
name = ogonek;
position = "{252, 1}";
},
{
name = top;
position = "{142, 702}";
}
);
hints = (
{
place = "{30, 222}";
type = Stem;
},
{
horizontal = 1;
place = "{0, 21}";
target = up;
type = BottomGhost;
},
{
horizontal = 1;
place = "{700, -20}";
target = down;
type = TopGhost;
}
);
layerId = "F6DDAB16-9378-41C6-AF32-8CCAF9117681";
paths = (
{
closed = 1;
nodes = (
"30 0 LINE",
"252 0 LINE",
"252 700.035 LINE",
"30 700.035 LINE"
);
}
);
width = 282;
},
{
anchors = (
{
name = ogonek;
position = "{199, 1}";
},
{
name = top;
position = "{142, 701}";
}
);
hints = (
{
place = "{85, 114}";
type = Stem;
},
{
horizontal = 1;
place = "{0, 21}";
target = up;
type = BottomGhost;
},
{
horizontal = 1;
place = "{700, -20}";
target = down;
type = TopGhost;
}
);
layerId = "0CF0EA28-C756-4A9E-9D7C-CFEF350B4CFE";
paths = (
{
closed = 1;
nodes = (
"85 0 LINE",
"199 0 LINE",
"199 700.328 LINE",
"85 700.328 LINE"
);
}
);
width = 284;
},
{
anchors = (
{
name = ogonek;
position = "{125, 0}";
},
{
name = top;
position = "{115, 679}";
}
);
hints = (
{
place = "{105, 20}";
type = Stem;
},
{
horizontal = 1;
place = "{0, 21}";
target = up;
type = BottomGhost;
},
{
horizontal = 1;
place = "{700, -20}";
target = down;
type = TopGhost;
}
);
layerId = "0C5DB0F2-5B8B-4830-A1C2-9833713645D2";
paths = (
{
closed = 1;
nodes = (
"105 0.051 LINE",
"125 0.051 LINE",
"125 700.038 LINE",
"105 700.038 LINE"
);
}
);
width = 230;
}
);
leftMetricsKey = H;
rightMetricsKey = H;
unicode = 0049;
},
{
glyphname = J;
lastChange = "2021-08-04 13:39:55 +0000";
layers = (
{
hints = (
{
place = "{97, 21}";
type = Stem;
},
{
horizontal = 1;
place = "{-7, 21}";
target = up;
type = BottomGhost;
},
{
horizontal = 1;
place = "{700, -20}";
target = down;
type = TopGhost;
}
);
layerId = "34B89C21-4068-454A-BBBC-B9295C834BF9";
paths = (
{
closed = 1;
nodes = (
"347.249 154.168 LINE SMOOTH",
"335.777 96.498 OFFCURVE",
"287.766 10.988 OFFCURVE",
"182.766 10.988 CURVE SMOOTH",
"88.381 10.988 OFFCURVE",
"64.359 71.334 OFFCURVE",
"67.292 142.889 CURVE",
"46.603 135.874 LINE",
"44.17 47.571 OFFCURVE",
"86.309 -6.909 OFFCURVE",
"179.206 -6.909 CURVE SMOOTH",
"280.206 -6.909 OFFCURVE",
"350.832 71.641 OFFCURVE",
"367.249 154.168 CURVE SMOOTH",
"475.841 700.038 LINE",
"455.841 700.038 LINE"
);
}
);
width = 486.07;
},
{
hints = (
{
horizontal = 1;
place = "{-7, 102}";
type = Stem;
},
{
horizontal = 1;
place = "{700, -20}";
target = down;
type = TopGhost;
}
);
layerId = "24A19461-EE5C-48C0-A968-CC082199DAC2";
paths = (
{
closed = 1;
nodes = (
"333.073 200.099 LINE SMOOTH",
"321.456 141.681 OFFCURVE",
"278.042 94.343 OFFCURVE",
"217.042 94.343 CURVE SMOOTH",
"167.161 94.343 OFFCURVE",
"144.169 121.955 OFFCURVE",
"138.875 163.963 CURVE",
"31.707 127.377 LINE",
"41.624 41.765 OFFCURVE",
"100.017 -7.385 OFFCURVE",
"196.811 -7.385 CURVE SMOOTH",
"316.811 -7.385 OFFCURVE",
"422.835 73.191 OFFCURVE",
"448.073 200.099 CURVE SMOOTH",
"547.422 699.67 LINE",
"432.422 699.67 LINE"
);
}
);
width = 538.75;
},
{
hints = (
{
horizontal = 1;
place = "{-6, 197}";
type = Stem;
},
{
horizontal = 1;
place = "{700, -20}";
target = down;
type = TopGhost;
}
);
layerId = "C06476A3-BC65-42D9-AE82-BE67E4874885";
paths = (
{
closed = 1;
nodes = (
"326.985 248.563 LINE SMOOTH",
"317.974 203.253 OFFCURVE",
"291.623 191.433 OFFCURVE",
"267.623 191.433 CURVE SMOOTH",
"243.325 191.433 OFFCURVE",
"225.439 202.496 OFFCURVE",
"225.658 242.004 CURVE",
"11.022 205.846 LINE",
"6.888 64.458 OFFCURVE",
"92.52 -5.568 OFFCURVE",
"238.443 -5.568 CURVE SMOOTH",
"394.443 -5.568 OFFCURVE",
"514.094 78.158 OFFCURVE",
"547.985 248.563 CURVE SMOOTH",
"637.71 699.708 LINE",
"416.71 699.708 LINE"
);
}
);
width = 576.77;
},
{
hints = (
{
place = "{327, 221}";
type = Stem;
},
{
horizontal = 1;
place = "{-6, 197}";
type = Stem;
},
{
horizontal = 1;
place = "{700, -20}";
target = down;
type = TopGhost;
}
);
layerId = "F6DDAB16-9378-41C6-AF32-8CCAF9117681";
paths = (
{
closed = 1;
nodes = (
"327.27 248.563 LINE SMOOTH",
"327.27 203.253 OFFCURVE",
"303.27 191.433 OFFCURVE",
"279.27 191.433 CURVE SMOOTH",
"254.972 191.433 OFFCURVE",
"234.886 202.496 OFFCURVE",
"227.247 242.004 CURVE",
"19.803 205.846 LINE",
"43.788 64.458 OFFCURVE",
"143.347 -5.568 OFFCURVE",
"289.27 -5.568 CURVE SMOOTH",
"445.27 -5.568 OFFCURVE",
"548.27 78.158 OFFCURVE",
"548.27 248.563 CURVE SMOOTH",
"548.27 699.708 LINE",
"327.27 699.708 LINE"
);
}
);
width = 576.77;
},
{
hints = (
{
place = "{343, 115}";
type = Stem;
},
{
horizontal = 1;
place = "{-7, 102}";
type = Stem;
},
{
horizontal = 1;
place = "{700, -20}";
target = down;
type = TopGhost;
}
);
layerId = "0CF0EA28-C756-4A9E-9D7C-CFEF350B4CFE";
paths = (
{
closed = 1;
nodes = (
"343 200.099 LINE SMOOTH",
"343 141.681 OFFCURVE",
"309 94.343 OFFCURVE",
"248 94.343 CURVE SMOOTH",
"198.119 94.343 OFFCURVE",
"169.636 121.955 OFFCURVE",
"155.988 163.963 CURVE",
"56.096 127.377 LINE",
"83.039 41.765 OFFCURVE",
"151.205 -7.385 OFFCURVE",
"248 -7.385 CURVE SMOOTH",
"368 -7.385 OFFCURVE",
"458 73.191 OFFCURVE",
"458 200.099 CURVE SMOOTH",
"458 699.67 LINE",
"343 699.67 LINE"
);
}
);
width = 538.75;
},
{
hints = (
{
place = "{367, 20}";
type = Stem;
},
{
horizontal = 1;
place = "{-7, 21}";
target = up;
type = BottomGhost;
},
{
horizontal = 1;
place = "{700, -20}";
target = down;
type = TopGhost;
}
);
layerId = "0C5DB0F2-5B8B-4830-A1C2-9833713645D2";
paths = (
{
closed = 1;
nodes = (
"366.31 154.168 LINE SMOOTH",
"366.31 96.498 OFFCURVE",
"335.31 10.988 OFFCURVE",
"230.31 10.988 CURVE SMOOTH",
"135.925 10.988 OFFCURVE",
"99.898 71.334 OFFCURVE",
"88.597 142.889 CURVE",
"69.303 135.874 LINE",
"84.437 47.571 OFFCURVE",
"137.413 -6.909 OFFCURVE",
"230.31 -6.909 CURVE SMOOTH",
"331.31 -6.909 OFFCURVE",
"386.31 71.641 OFFCURVE",
"386.31 154.168 CURVE SMOOTH",
"386.31 700.038 LINE",
"366.31 700.038 LINE"
);
}
);
width = 486.06;
}
);
leftMetricsKey = "=H*0.66";
rightMetricsKey = U;
unicode = 004A;
},
{
glyphname = K;
lastChange = "2021-08-04 13:15:34 +0000";
layers = (
{
anchors = (
{
name = bottom;
position = "{225.27, 0}";
},
{
name = top;
position = "{360.27, 679}";
}
);
hints = (
{
horizontal = 1;
place = "{0, 21}";
target = up;
type = BottomGhost;
},
{
horizontal = 1;
place = "{700, -20}";
target = down;
type = TopGhost;
}
);
layerId = "34B89C21-4068-454A-BBBC-B9295C834BF9";
paths = (
{
closed = 1;
nodes = (
"55.28 0.051 LINE",
"75.28 0.051 LINE",
"214.531 700.038 LINE",
"194.531 700.038 LINE"
);
},
{
closed = 1;
nodes = (
"189.003 360.771 LINE",
"613.531 700.038 LINE",
"586.531 700.038 LINE",
"161.884 359.988 LINE",
"447.28 0.051 LINE",
"474.28 0.051 LINE"
);
},
{
closed = 1;
nodes = (
"135.104 351.039 LINE",
"186.104 351.039 LINE",
"189.664 368.936 LINE",
"138.664 368.936 LINE"
);
}
);
width = 539.76;
},
{
anchors = (
{
name = bottom;
position = "{277.28, 0}";
},
{
name = top;
position = "{416.28, 701}";
}
);
hints = (
{
horizontal = 1;
place = "{0, 21}";
target = up;
type = BottomGhost;
},
{
horizontal = 1;
place = "{700, -20}";
target = down;
type = TopGhost;
}
);
layerId = "24A19461-EE5C-48C0-A968-CC082199DAC2";
paths = (
{
closed = 1;
nodes = (
"35.28 0 LINE",
"149.28 0 LINE",
"288.575 700.328 LINE",
"174.575 700.328 LINE"
);
},
{
closed = 1;
nodes = (
"360.75 356.017 LINE",
"731.086 700.328 LINE",
"588.476 700.328 LINE",
"220.714 353.185 LINE",
"448.181 0 LINE",
"596.802 0 LINE"
);
},
{
closed = 1;
nodes = (
"190.18 306.186 LINE",
"334.18 306.186 LINE",
"352.678 399.186 LINE",
"208.678 399.186 LINE"
);
}
);
width = 659.28;
},
{
anchors = (
{
name = bottom;
position = "{304.28, 1}";
},
{
name = top;
position = "{444.28, 702}";
}
);
hints = (
{
horizontal = 1;
place = "{0, 21}";
target = up;
type = BottomGhost;
},
{
horizontal = 1;
place = "{700, -20}";
target = down;
type = TopGhost;
}
);
layerId = "C06476A3-BC65-42D9-AE82-BE67E4874885";
paths = (
{
closed = 1;
nodes = (
"-19.72 0 LINE",
"202.28 0 LINE",
"341.517 700.035 LINE",
"119.517 700.035 LINE"
);
},
{
closed = 1;
nodes = (
"514.838 364.385 LINE",
"827.055 700.035 LINE",
"574.918 700.035 LINE",
"267.369 354.952 LINE",
"438.68 0 LINE",
"703.782 0 LINE"
);
},
{
closed = 1;
nodes = (
"236.353 271.86 LINE",
"429.353 271.86 LINE",
"464.558 448.86 LINE",
"271.558 448.86 LINE"
);
}
);
width = 758.01;
},
{
anchors = (
{
name = bottom;
position = "{354, 1}";
},
{
name = top;
position = "{354, 702}";
}
);
hints = (
{
place = "{30, 222}";
type = Stem;
},
{
horizontal = 1;
place = "{0, 21}";
target = up;
type = BottomGhost;
},
{
horizontal = 1;
place = "{700, -20}";
target = down;
type = TopGhost;
}
);
layerId = "F6DDAB16-9378-41C6-AF32-8CCAF9117681";
paths = (
{
closed = 1;
nodes = (
"30 0 LINE",
"252 0 LINE",
"252 700.035 LINE",
"30 700.035 LINE"
);
},
{
closed = 1;
nodes = (
"492.082 364.385 LINE",
"737.538 700.035 LINE",
"485.401 700.035 LINE",
"246.489 354.952 LINE",
"488.4 0 LINE",
"753.502 0 LINE"
);
},
{
closed = 1;
nodes = (
"232 271.86 LINE",
"425 271.86 LINE",
"425 448.86 LINE",
"232 448.86 LINE"
);
}
);
width = 758;
},
{
anchors = (
{
name = bottom;
position = "{327, 0}";
},
{
name = top;
position = "{327, 701}";
}
);
hints = (
{
place = "{85, 114}";
type = Stem;
},
{
horizontal = 1;
place = "{0, 21}";
target = up;
type = BottomGhost;
},
{
horizontal = 1;
place = "{700, -20}";
target = down;
type = TopGhost;
}
);
layerId = "0CF0EA28-C756-4A9E-9D7C-CFEF350B4CFE";
paths = (
{
closed = 1;
nodes = (
"85 0 LINE",
"199 0 LINE",
"199 700.328 LINE",
"85 700.328 LINE"
);
},
{
closed = 1;
nodes = (
"339.659 356.017 LINE",
"641.511 700.328 LINE",
"498.901 700.328 LINE",
"200.186 353.185 LINE",
"497.901 0 LINE",
"646.522 0 LINE"
);
},
{
closed = 1;
nodes = (
"179 306.186 LINE",
"323 306.186 LINE",
"323 399.186 LINE",
"179 399.186 LINE"
);
}
);
width = 659.27;
},
{
anchors = (
{
name = bottom;
position = "{275, 0}";
},
{
name = top;
position = "{275, 679}";
}
);
hints = (
{
place = "{105, 20}";
type = Stem;
},
{
horizontal = 1;
place = "{0, 21}";
target = up;
type = BottomGhost;
},
{
horizontal = 1;
place = "{700, -20}";
target = down;
type = TopGhost;
}
);
layerId = "0C5DB0F2-5B8B-4830-A1C2-9833713645D2";
paths = (
{
closed = 1;
nodes = (
"105 0.051 LINE",
"125 0.051 LINE",
"125 700.038 LINE",
"105 700.038 LINE"
);
},
{
closed = 1;
nodes = (
"166.964 360.771 LINE",
"524 700.038 LINE",
"497 700.038 LINE",
"140 359.988 LINE",
"497 0.051 LINE",
"524 0.051 LINE"
);
},
{
closed = 1;
nodes = (
"115 351.039 LINE",
"166 351.039 LINE",
"166 368.936 LINE",
"115 368.936 LINE"
);
}
);
width = 539.75;
}
);
leftMetricsKey = H;
rightMetricsKey = "=H*0.15";
unicode = 004B;
},
{
glyphname = Kcommaaccent;
lastChange = "2021-08-04 13:15:45 +0000";
layers = (
{
anchors = (
{
name = _bottom;
position = "{241, 0}";
}
);
components = (
{
alignment = -1;
name = K;
}
);
hints = (
{
horizontal = 1;
place = "{-59, -20}";
target = down;
type = TopGhost;
},
{
horizontal = 1;
place = "{-175, 21}";
target = up;
type = BottomGhost;
}
);
layerId = "34B89C21-4068-454A-BBBC-B9295C834BF9";
paths = (
{
closed = 1;
nodes = (
"205.341 -58.614 LINE",
"197.825 -96.398 LINE",
"228.825 -96.398 LINE",
"227.441 -103.358 LINE SMOOTH",
"220.914 -136.171 OFFCURVE",
"205.761 -157.051 OFFCURVE",
"173.761 -157.051 CURVE",
"170.2 -174.949 LINE",
"206.2 -174.949 OFFCURVE",
"238.167 -160.034 OFFCURVE",
"252.21 -89.438 CURVE SMOOTH",
"253.99 -80.489 OFFCURVE",
"255.561 -67.563 OFFCURVE",
"256.341 -58.614 CURVE"
);
}
);
width = 539.76;
},
{
anchors = (
{
name = _bottom;
position = "{317, 0}";
}
);
components = (
{
alignment = -1;
name = K;
}
);
hints = (
{
horizontal = 1;
place = "{-143, 96}";
type = Stem;
},
{
horizontal = 1;
place = "{-272, 21}";
target = up;
type = BottomGhost;
}
);
layerId = "24A19461-EE5C-48C0-A968-CC082199DAC2";
paths = (
{
closed = 1;
nodes = (
"252.651 -47 LINE",
"233.551 -143.022 LINE",
"286.485 -143.356 LINE",
"282.278 -164.507 LINE SMOOTH",
"274.62 -203.003 OFFCURVE",
"255.792 -222.251 OFFCURVE",
"222.792 -222.251 CURVE",
"212.907 -271.942 LINE",
"286.907 -271.942 OFFCURVE",
"333.299 -229.752 OFFCURVE",
"349.884 -146.377 CURVE SMOOTH",
"355.683 -117.223 OFFCURVE",
"358.292 -84.089 OFFCURVE",
"355.717 -47 CURVE"
);
}
);
width = 659.28;
},
{
anchors = (
{
name = _bottom;
position = "{399, 1}";
}
);
components = (
{
alignment = -1;
name = K;
}
);
hints = (
{
horizontal = 1;
place = "{-179, 147}";
type = Stem;
},
{
horizontal = 1;
place = "{-341, 21}";
target = up;
type = BottomGhost;
}
);
layerId = "C06476A3-BC65-42D9-AE82-BE67E4874885";
paths = (
{
closed = 1;
nodes = (
"312.671 -31.82 LINE",
"283.341 -179.27 LINE",
"355.341 -179.27 LINE",
"353.45 -188.777 LINE SMOOTH",
"343.444 -239.077 OFFCURVE",
"318.019 -261.325 OFFCURVE",
"284.019 -261.325 CURVE",
"268.209 -340.81 LINE",
"381.209 -340.81 OFFCURVE",
"448.003 -261.407 OFFCURVE",
"466.956 -166.122 CURVE SMOOTH",
"475.242 -124.466 OFFCURVE",
"477.247 -78.729 OFFCURVE",
"468.339 -31.82 CURVE"
);
}
);
width = 758.01;
},
{
anchors = (
{
name = _bottom;
position = "{399, 1}";
}
);
components = (
{
alignment = -1;
name = K;
}
);
hints = (
{
place = "{319, 181}";
type = Stem;
},
{
place = "{391, 109}";
type = Stem;
},
{
horizontal = 1;
place = "{-179, 147}";
type = Stem;
},
{
horizontal = 1;
place = "{-341, 21}";
target = up;
type = BottomGhost;
}
);
layerId = "F6DDAB16-9378-41C6-AF32-8CCAF9117681";
paths = (
{
closed = 1;
nodes = (
"319 -31.82 LINE",
"319 -179.27 LINE",
"391 -179.27 LINE",
"391 -188.777 LINE",
"391 -239.077 OFFCURVE",
"370 -261.325 OFFCURVE",
"336 -261.325 CURVE",
"336 -340.81 LINE",
"449 -340.81 OFFCURVE",
"500 -261.407 OFFCURVE",
"500 -166.122 CURVE SMOOTH",
"500 -124.466 OFFCURVE",
"492.907 -78.729 OFFCURVE",
"474.668 -31.82 CURVE"
);
}
);
width = 758;
},
{
anchors = (
{
name = _bottom;
position = "{317, 0}";
}
);
components = (
{
alignment = -1;
name = K;
}
);
hints = (
{
place = "{262, 117}";
type = Stem;
},
{
place = "{267, 112}";
type = Stem;
},
{
place = "{315, 64}";
type = Stem;
},
{
horizontal = 1;
place = "{-143, 96}";
type = Stem;
},
{
horizontal = 1;
place = "{-272, 21}";
target = up;
type = BottomGhost;
}
);
layerId = "0CF0EA28-C756-4A9E-9D7C-CFEF350B4CFE";
paths = (
{
closed = 1;
nodes = (
"262 -47 LINE",
"262 -143.022 LINE",
"315 -143.356 LINE",
"315 -164.507 LINE SMOOTH",
"315 -203.003 OFFCURVE",
"300 -222.251 OFFCURVE",
"267 -222.251 CURVE",
"267 -271.942 LINE",
"341 -271.942 OFFCURVE",
"379 -229.752 OFFCURVE",
"379 -146.377 CURVE SMOOTH",
"379 -117.223 OFFCURVE",
"375.019 -84.089 OFFCURVE",
"365.066 -47 CURVE"
);
}
);
width = 659.27;
},
{
anchors = (
{
name = _bottom;
position = "{241, 0}";
}
);
components = (
{
alignment = -1;
name = K;
}
);
hints = (
{
place = "{248, 22}";
type = Stem;
},
{
horizontal = 1;
place = "{-59, -20}";
target = down;
type = TopGhost;
},
{
horizontal = 1;
place = "{-175, 21}";
target = up;
type = BottomGhost;
}
);
layerId = "0C5DB0F2-5B8B-4830-A1C2-9833713645D2";
paths = (
{
closed = 1;
nodes = (
"217 -58.614 LINE",
"217 -96.398 LINE",
"248 -96.398 LINE",
"248 -103.358 LINE SMOOTH",
"248 -136.171 OFFCURVE",
"237 -157.051 OFFCURVE",
"205 -157.051 CURVE",
"205 -174.949 LINE",
"241 -174.949 OFFCURVE",
"270 -160.034 OFFCURVE",
"270 -89.438 CURVE SMOOTH",
"270 -80.489 OFFCURVE",
"269 -67.563 OFFCURVE",
"268 -58.614 CURVE"
);
}
);
width = 539.75;
}
);
leftMetricsKey = H;
rightMetricsKey = K;
unicode = 0136;
},
{
glyphname = L;
lastChange = "2021-08-04 13:16:00 +0000";
layers = (
{
anchors = (
{
name = bottom;
position = "{190.27, 0}";
},
{
name = commaaccent;
position = "{192.27, 10}";
},
{
name = top;
position = "{307.27, 679}";
},
{
name = topright;
position = "{480.27, 679}";
}
);
hints = (
{
horizontal = 1;
place = "{0, 21}";
target = up;
type = BottomGhost;
},
{
horizontal = 1;
place = "{700, -20}";
target = down;
type = TopGhost;
}
);
layerId = "34B89C21-4068-454A-BBBC-B9295C834BF9";
paths = (
{
closed = 1;
nodes = (
"194.531 700.038 LINE",
"55.28 0.051 LINE",
"425.28 0.051 LINE",
"428.841 17.949 LINE",
"78.841 17.949 LINE",
"214.531 700.038 LINE"
);
}
);
width = 509.965;
},
{
anchors = (
{
name = bottom;
position = "{208.28, 0}";
},
{
name = commaaccent;
position = "{210.28, 10}";
},
{
name = top;
position = "{321.28, 701}";
},
{
name = topright;
position = "{523.28, 701}";
}
);
hints = (
{
horizontal = 1;
place = "{0, 92}";
type = Stem;
},
{
horizontal = 1;
place = "{700, -20}";
target = down;
type = TopGhost;
}
);
layerId = "24A19461-EE5C-48C0-A968-CC082199DAC2";
paths = (
{
closed = 1;
nodes = (
"174.575 700.328 LINE",
"35.28 0 LINE",
"464.28 0 LINE",
"482.577 91.993 LINE",
"167.644 92.327 LINE",
"288.575 700.328 LINE"
);
}
);
width = 542.315;
},
{
anchors = (
{
name = bottom;
position = "{195.28, 1}";
},
{
name = commaaccent;
position = "{197.28, 11}";
},
{
name = top;
position = "{301.28, 702}";
},
{
name = topright;
position = "{536.28, 702}";
}
);
hints = (
{
horizontal = 1;
place = "{0, 168}";
type = Stem;
},
{
horizontal = 1;
place = "{700, -20}";
target = down;
type = TopGhost;
}
);
layerId = "C06476A3-BC65-42D9-AE82-BE67E4874885";
paths = (
{
closed = 1;
nodes = (
"119.517 700.035 LINE",
"-19.72 0 LINE",
"496.28 0 LINE",
"529.722 168.135 LINE",
"235.722 168.135 LINE",
"341.517 700.035 LINE"
);
}
);
width = 556;
},
{
anchors = (
{
name = bottom;
position = "{245, 1}";
},
{
name = commaaccent;
position = "{245, 11}";
},
{
name = top;
position = "{211, 702}";
},
{
name = topright;
position = "{446, 702}";
}
);
hints = (
{
place = "{30, 222}";
type = Stem;
},
{
horizontal = 1;
place = "{0, 168}";
type = Stem;
},
{
horizontal = 1;
place = "{700, -20}";
target = down;
type = TopGhost;
}
);
layerId = "F6DDAB16-9378-41C6-AF32-8CCAF9117681";
paths = (
{
closed = 1;
nodes = (
"30 700.035 LINE",
"30 0 LINE",
"546 0 LINE",
"546 168.135 LINE",
"252 168.135 LINE",
"252 700.035 LINE"
);
}
);
width = 555.99;
},
{
anchors = (
{
name = bottom;
position = "{258, 0}";
},
{
name = commaaccent;
position = "{258, 10}";
},
{
name = top;
position = "{232, 701}";
},
{
name = topright;
position = "{434, 701}";
}
);
hints = (
{
place = "{85, 114}";
type = Stem;
},
{
horizontal = 1;
place = "{0, 92}";
type = Stem;
},
{
horizontal = 1;
place = "{700, -20}";
target = down;
type = TopGhost;
}
);
layerId = "0CF0EA28-C756-4A9E-9D7C-CFEF350B4CFE";
paths = (
{
closed = 1;
nodes = (
"85 700.328 LINE",
"85 0 LINE",
"514 0 LINE",
"514 91.993 LINE",
"199 92.327 LINE",
"199 700.328 LINE"
);
}
);
width = 542.305;
},
{
anchors = (
{
name = bottom;
position = "{240, 0}";
},
{
name = commaaccent;
position = "{240, 10}";
},
{
name = top;
position = "{222, 679}";
},
{
name = topright;
position = "{395, 679}";
}
);
hints = (
{
place = "{105, 20}";
type = Stem;
},
{
horizontal = 1;
place = "{0, 21}";
target = up;
type = BottomGhost;
},
{
horizontal = 1;
place = "{700, -20}";
target = down;
type = TopGhost;
}
);
layerId = "0C5DB0F2-5B8B-4830-A1C2-9833713645D2";
paths = (
{
closed = 1;
nodes = (
"105 700.038 LINE",
"105 0.051 LINE",
"475 0.051 LINE",
"475 17.949 LINE",
"125 17.949 LINE",
"125 700.038 LINE"
);
}
);
width = 509.965;
}
);
leftMetricsKey = H;
rightMetricsKey = "=H*0.333";
unicode = 004C;
},
{
glyphname = Lcaron;
lastChange = "2021-08-04 13:16:06 +0000";
layers = (
{
anchors = (
{
name = _bottom;
position = "{405, 736}";
}
);
components = (
{
alignment = -1;
name = L;
}
);
hints = (
{
horizontal = 1;
place = "{554, 20}";
type = Stem;
},
{
horizontal = 1;
place = "{700, -20}";
target = down;
type = TopGhost;
}
);
layerId = "34B89C21-4068-454A-BBBC-B9295C834BF9";
paths = (
{
closed = 1;
nodes = (
"371.249 700.052 LINE",
"360.767 647.353 LINE",
"398.767 647.353 LINE",
"393.031 618.518 LINE SMOOTH",
"387.295 589.683 OFFCURVE",
"374.131 573.774 OFFCURVE",
"339.131 573.774 CURVE",
"335.175 553.887 LINE",
"375.175 553.887 OFFCURVE",
"405.142 568.802 OFFCURVE",
"417.602 631.444 CURVE SMOOTH",
"421.162 649.342 OFFCURVE",
"424.513 671.217 OFFCURVE",
"427.249 700.052 CURVE"
);
}
);
width = 509.97;
},
{
anchors = (
{
name = _bottom;
position = "{500, 746}";
}
);
components = (
{
alignment = -1;
name = L;
}
);
hints = (
{
horizontal = 1;
place = "{603, 96}";
type = Stem;
},
{
horizontal = 1;
place = "{474, 21}";
target = up;
type = BottomGhost;
}
);
layerId = "24A19461-EE5C-48C0-A968-CC082199DAC2";
paths = (
{
closed = 1;
nodes = (
"436.105 699.328 LINE",
"417.005 603.307 LINE",
"469.939 602.973 LINE",
"465.732 581.822 LINE SMOOTH",
"458.074 543.325 OFFCURVE",
"439.245 524.077 OFFCURVE",
"406.245 524.077 CURVE",
"396.361 474.387 LINE",
"470.361 474.387 OFFCURVE",
"516.753 516.576 OFFCURVE",
"533.338 599.951 CURVE SMOOTH",
"539.137 629.106 OFFCURVE",
"541.746 662.239 OFFCURVE",
"539.171 699.328 CURVE"
);
}
);
width = 542.32;
},
{
anchors = (
{
name = _bottom;
position = "{595, 733}";
}
);
components = (
{
alignment = -1;
name = L;
}
);
hints = (
{
horizontal = 1;
place = "{555, 145}";
type = Stem;
},
{
horizontal = 1;
place = "{391, 21}";
target = up;
type = BottomGhost;
}
);
layerId = "C06476A3-BC65-42D9-AE82-BE67E4874885";
paths = (
{
closed = 1;
nodes = (
"508.246 700.035 LINE",
"479.112 553.57 LINE",
"551.376 554.897 LINE",
"549.025 543.077 LINE SMOOTH",
"539.215 493.757 OFFCURVE",
"513.79 471.515 OFFCURVE",
"479.79 471.515 CURVE",
"463.784 391.045 LINE",
"576.784 391.045 OFFCURVE",
"643.577 470.445 OFFCURVE",
"662.727 566.717 CURVE SMOOTH",
"671.014 608.377 OFFCURVE",
"673.018 654.117 OFFCURVE",
"663.91 700.035 CURVE"
);
}
);
width = 609.72;
},
{
anchors = (
{
name = _bottom;
position = "{449, 733}";
}
);
components = (
{
alignment = -1;
name = L;
}
);
hints = (
{
place = "{369, 181}";
type = Stem;
},
{
place = "{441, 109}";
type = Stem;
},
{
horizontal = 1;
place = "{555, 145}";
type = Stem;
},
{
horizontal = 1;
place = "{391, 21}";
target = up;
type = BottomGhost;
}
);
layerId = "F6DDAB16-9378-41C6-AF32-8CCAF9117681";
paths = (
{
closed = 1;
nodes = (
"369 700.035 LINE",
"369 553.57 LINE",
"441 554.897 LINE",
"441 543.077 LINE SMOOTH",
"441 493.757 OFFCURVE",
"420 471.515 OFFCURVE",
"386 471.515 CURVE",
"386 391.045 LINE",
"499 391.045 OFFCURVE",
"550 470.445 OFFCURVE",
"550 566.717 CURVE SMOOTH",
"550 608.377 OFFCURVE",
"542.906 654.117 OFFCURVE",
"524.665 700.035 CURVE"
);
}
);
width = 559.99;
},
{
anchors = (
{
name = _bottom;
position = "{352, 746}";
}
);
components = (
{
alignment = -1;
name = L;
}
);
hints = (
{
place = "{297, 117}";
type = Stem;
},
{
place = "{302, 112}";
type = Stem;
},
{
place = "{350, 64}";
type = Stem;
},
{
horizontal = 1;
place = "{603, 96}";
type = Stem;
},
{
horizontal = 1;
place = "{474, 21}";
target = up;
type = BottomGhost;
}
);
layerId = "0CF0EA28-C756-4A9E-9D7C-CFEF350B4CFE";
paths = (
{
closed = 1;
nodes = (
"297 699.328 LINE",
"297 603.307 LINE",
"350 602.973 LINE",
"350 581.822 LINE SMOOTH",
"350 543.325 OFFCURVE",
"335 524.077 OFFCURVE",
"302 524.077 CURVE",
"302 474.387 LINE",
"376 474.387 OFFCURVE",
"414 516.576 OFFCURVE",
"414 599.951 CURVE SMOOTH",
"414 629.106 OFFCURVE",
"410.019 662.239 OFFCURVE",
"400.066 699.328 CURVE"
);
}
);
width = 542.3;
},
{
anchors = (
{
name = _bottom;
position = "{259, 736}";
}
);
components = (
{
alignment = -1;
name = L;
}
);
hints = (
{
place = "{232, 60}";
type = Stem;
},
{
place = "{270, 22}";
type = Stem;
},
{
horizontal = 1;
place = "{554, 20}";
type = Stem;
},
{
horizontal = 1;
place = "{700, -20}";
target = down;
type = TopGhost;
}
);
layerId = "0C5DB0F2-5B8B-4830-A1C2-9833713645D2";
paths = (
{
closed = 1;
nodes = (
"232 700.052 LINE",
"232 647.353 LINE",
"270 647.353 LINE",
"270 618.518 LINE SMOOTH",
"270 589.683 OFFCURVE",
"260 573.774 OFFCURVE",
"225 573.774 CURVE",
"225 553.887 LINE",
"265 553.887 OFFCURVE",
"292 568.802 OFFCURVE",
"292 631.444 CURVE SMOOTH",
"292 649.342 OFFCURVE",
"291 671.217 OFFCURVE",
"288 700.052 CURVE"
);
}
);
width = 509.97;
}
);
leftMetricsKey = L;
rightMetricsKey = L;
unicode = 013D;
},
{
glyphname = Lcommaaccent;
lastChange = "2021-08-04 13:16:08 +0000";
layers = (
{
anchors = (
{
name = _commaaccent;
position = "{231, 0}";
}
);
components = (
{
alignment = -1;
name = L;
}
);
hints = (
{
horizontal = 1;
place = "{-59, -20}";
target = down;
type = TopGhost;
},
{
horizontal = 1;
place = "{-175, 21}";
target = up;
type = BottomGhost;
}
);
layerId = "34B89C21-4068-454A-BBBC-B9295C834BF9";
paths = (
{
closed = 1;
nodes = (
"195.341 -58.614 LINE",
"187.825 -96.398 LINE",
"218.825 -96.398 LINE",
"217.441 -103.358 LINE SMOOTH",
"210.914 -136.171 OFFCURVE",
"195.761 -157.051 OFFCURVE",
"163.761 -157.051 CURVE",
"160.2 -174.949 LINE",
"196.2 -174.949 OFFCURVE",
"228.167 -160.034 OFFCURVE",
"242.21 -89.438 CURVE SMOOTH",
"243.99 -80.489 OFFCURVE",
"245.561 -67.563 OFFCURVE",
"246.341 -58.614 CURVE"
);
}
);
width = 509.97;
},
{
anchors = (
{
name = _commaaccent;
position = "{248, 0}";
}
);
components = (
{
alignment = -1;
name = L;
}
);
hints = (
{
horizontal = 1;
place = "{-143, 96}";
type = Stem;
},
{
horizontal = 1;
place = "{-272, 21}";
target = up;
type = BottomGhost;
}
);
layerId = "24A19461-EE5C-48C0-A968-CC082199DAC2";
paths = (
{
closed = 1;
nodes = (
"183.651 -47 LINE",
"164.551 -143.022 LINE",
"217.485 -143.356 LINE",
"213.278 -164.507 LINE SMOOTH",
"205.62 -203.003 OFFCURVE",
"186.792 -222.251 OFFCURVE",
"152.792 -222.251 CURVE",
"142.907 -271.942 LINE",
"217.907 -271.942 OFFCURVE",
"264.299 -229.752 OFFCURVE",
"280.884 -146.377 CURVE SMOOTH",
"286.683 -117.223 OFFCURVE",
"289.292 -84.089 OFFCURVE",
"286.717 -47 CURVE"
);
}
);
width = 542.32;
},
{
anchors = (
{
name = _commaaccent;
position = "{292, 11}";
}
);
components = (
{
alignment = -1;
name = L;
}
);
hints = (
{
horizontal = 1;
place = "{-341, 79}";
type = Stem;
},
{
horizontal = 1;
place = "{-179, 147}";
type = Stem;
}
);
layerId = "C06476A3-BC65-42D9-AE82-BE67E4874885";
paths = (
{
closed = 1;
nodes = (
"203.671 -31.82 LINE",
"174.341 -179.27 LINE",
"246.341 -179.27 LINE",
"244.45 -188.777 LINE SMOOTH",
"234.444 -239.077 OFFCURVE",
"210.019 -261.325 OFFCURVE",
"175.019 -261.325 CURVE",
"159.209 -340.81 LINE",
"273.209 -340.81 OFFCURVE",
"340.003 -261.407 OFFCURVE",
"358.956 -166.122 CURVE SMOOTH",
"367.244 -124.455 OFFCURVE",
"368.242 -78.705 OFFCURVE",
"359.339 -31.82 CURVE"
);
}
);
width = 556;
},
{
anchors = (
{
name = _commaaccent;
position = "{290, 11}";
}
);
components = (
{
alignment = -1;
name = L;
}
);
hints = (
{
place = "{210, 182}";
type = Stem;
},
{
place = "{282, 110}";
type = Stem;
},
{
horizontal = 1;
place = "{-341, 79}";
type = Stem;
},
{
horizontal = 1;
place = "{-179, 147}";
type = Stem;
}
);
layerId = "F6DDAB16-9378-41C6-AF32-8CCAF9117681";
paths = (
{
closed = 1;
nodes = (
"210 -31.82 LINE",
"210 -179.27 LINE",
"282 -179.27 LINE",
"282 -188.777 LINE",
"282 -239.077 OFFCURVE",
"262 -261.325 OFFCURVE",
"227 -261.325 CURVE",
"227 -340.81 LINE",
"341 -340.81 OFFCURVE",
"392 -261.407 OFFCURVE",
"392 -166.122 CURVE SMOOTH",
"392 -124.455 OFFCURVE",
"383.898 -78.705 OFFCURVE",
"365.668 -31.82 CURVE"
);
}
);
width = 555.99;
},
{
anchors = (
{
name = _commaaccent;
position = "{248, 0}";
}
);
components = (
{
alignment = -1;
name = L;
}
);
hints = (
{
place = "{193, 117}";
type = Stem;
},
{
place = "{197, 113}";
type = Stem;
},
{
place = "{246, 64}";
type = Stem;
},
{
horizontal = 1;
place = "{-143, 96}";
type = Stem;
},
{
horizontal = 1;
place = "{-272, 21}";
target = up;
type = BottomGhost;
}
);
layerId = "0CF0EA28-C756-4A9E-9D7C-CFEF350B4CFE";
paths = (
{
closed = 1;
nodes = (
"193 -47 LINE",
"193 -143.022 LINE",
"246 -143.356 LINE",
"246 -164.507 LINE SMOOTH",
"246 -203.003 OFFCURVE",
"231 -222.251 OFFCURVE",
"197 -222.251 CURVE",
"197 -271.942 LINE",
"272 -271.942 OFFCURVE",
"310 -229.752 OFFCURVE",
"310 -146.377 CURVE SMOOTH",
"310 -117.223 OFFCURVE",
"306.019 -84.089 OFFCURVE",
"296.066 -47 CURVE"
);
}
);
width = 542.3;
},
{
anchors = (
{
name = _commaaccent;
position = "{231, 0}";
}
);
components = (
{
alignment = -1;
name = L;
}
);
hints = (
{
place = "{238, 22}";
type = Stem;
},
{
horizontal = 1;
place = "{-59, -20}";
target = down;
type = TopGhost;
},
{
horizontal = 1;
place = "{-175, 21}";
target = up;
type = BottomGhost;
}
);
layerId = "0C5DB0F2-5B8B-4830-A1C2-9833713645D2";
paths = (
{
closed = 1;
nodes = (
"207 -58.614 LINE",
"207 -96.398 LINE",
"238 -96.398 LINE",
"238 -103.358 LINE SMOOTH",
"238 -136.171 OFFCURVE",
"227 -157.051 OFFCURVE",
"195 -157.051 CURVE",
"195 -174.949 LINE",
"231 -174.949 OFFCURVE",
"260 -160.034 OFFCURVE",
"260 -89.438 CURVE SMOOTH",
"260 -80.489 OFFCURVE",
"259 -67.563 OFFCURVE",
"258 -58.614 CURVE"
);
}
);
width = 509.97;
}
);
leftMetricsKey = L;
rightMetricsKey = L;
unicode = 013B;
},
{
color = 4;
glyphname = Ldot;
lastChange = "2021-08-04 13:16:09 +0000";
layers = (
{
hints = (
{
horizontal = 1;
place = "{346, 60}";
type = Stem;
},
{
horizontal = 1;
place = "{0, 21}";
target = up;
type = BottomGhost;
},
{
horizontal = 1;
place = "{700, -20}";
target = down;
type = TopGhost;
}
);
layerId = "34B89C21-4068-454A-BBBC-B9295C834BF9";
paths = (
{
closed = 1;
nodes = (
"345.28 0.051 LINE",
"348.84 17.949 LINE",
"78.84 17.949 LINE",
"214.519 700.052 LINE",
"194.519 700.052 LINE",
"55.28 0.051 LINE"
);
},
{
closed = 1;
nodes = (
"377.109 346.074 OFFCURVE",
"393.877 359.995 OFFCURVE",
"397.042 375.904 CURVE SMOOTH",
"400.206 391.813 OFFCURVE",
"388.975 405.734 OFFCURVE",
"372.975 405.734 CURVE SMOOTH",
"356.975 405.734 OFFCURVE",
"340.206 391.813 OFFCURVE",
"337.042 375.904 CURVE SMOOTH",
"333.877 359.995 OFFCURVE",
"345.109 346.074 OFFCURVE",
"361.109 346.074 CURVE SMOOTH"
);
}
);
width = 429.97;
},
{
hints = (
{
horizontal = 1;
place = "{0, 92}";
type = Stem;
},
{
horizontal = 1;
place = "{317, 120}";
type = Stem;
},
{
horizontal = 1;
place = "{699, -20}";
target = down;
type = TopGhost;
}
);
layerId = "24A19461-EE5C-48C0-A968-CC082199DAC2";
paths = (
{
closed = 1;
nodes = (
"384.27 0 LINE",
"402.569 91.993 LINE",
"167.635 92.327 LINE",
"288.375 699.328 LINE",
"174.375 699.328 LINE",
"35.27 0 LINE"
);
},
{
closed = 1;
nodes = (
"408.378 317.265 OFFCURVE",
"440.558 343.307 OFFCURVE",
"447.332 377.362 CURVE SMOOTH",
"453.907 410.415 OFFCURVE",
"432.286 437.459 OFFCURVE",
"399.286 437.459 CURVE SMOOTH",
"365.286 437.459 OFFCURVE",
"333.907 410.415 OFFCURVE",
"327.332 377.362 CURVE SMOOTH",
"320.558 343.307 OFFCURVE",
"341.378 317.265 OFFCURVE",
"375.378 317.265 CURVE SMOOTH"
);
}
);
width = 462.31;
},
{
hints = (
{
horizontal = 1;
place = "{0, 168}";
type = Stem;
},
{
horizontal = 1;
place = "{322, 172}";
type = Stem;
},
{
horizontal = 1;
place = "{700, -20}";
target = down;
type = TopGhost;
}
);
layerId = "C06476A3-BC65-42D9-AE82-BE67E4874885";
paths = (
{
closed = 1;
nodes = (
"416.27 0 LINE",
"449.714 168.135 LINE",
"235.714 168.135 LINE",
"341.516 700.035 LINE",
"119.516 700.035 LINE",
"-19.73 0 LINE"
);
},
{
closed = 1;
nodes = (
"458.339 322.095 OFFCURVE",
"502.703 359.118 OFFCURVE",
"512.257 407.148 CURVE SMOOTH",
"522.205 457.16 OFFCURVE",
"492.567 494.17 OFFCURVE",
"442.567 494.17 CURVE SMOOTH",
"394.567 494.17 OFFCURVE",
"350.205 457.16 OFFCURVE",
"340.257 407.148 CURVE SMOOTH",
"330.703 359.118 OFFCURVE",
"360.339 322.095 OFFCURVE",
"408.339 322.095 CURVE SMOOTH"
);
}
);
width = 490.99;
},
{
hints = (
{
place = "{30, 222}";
type = Stem;
},
{
place = "{309, 172}";
type = Stem;
},
{
horizontal = 1;
place = "{0, 168}";
type = Stem;
},
{
horizontal = 1;
place = "{322, 172}";
type = Stem;
},
{
horizontal = 1;
place = "{700, -20}";
target = down;
type = TopGhost;
}
);
layerId = "F6DDAB16-9378-41C6-AF32-8CCAF9117681";
paths = (
{
closed = 1;
nodes = (
"466 0 LINE",
"466 168.135 LINE",
"252 168.135 LINE",
"252 700.035 LINE",
"30 700.035 LINE",
"30 0 LINE"
);
},
{
closed = 1;
nodes = (
"444 322.095 OFFCURVE",
"481 359.118 OFFCURVE",
"481 407.148 CURVE SMOOTH",
"481 457.16 OFFCURVE",
"444 494.17 OFFCURVE",
"394 494.17 CURVE SMOOTH",
"346 494.17 OFFCURVE",
"309 457.16 OFFCURVE",
"309 407.148 CURVE SMOOTH",
"309 359.118 OFFCURVE",
"346 322.095 OFFCURVE",
"394 322.095 CURVE SMOOTH"
);
}
);
width = 490.99;
},
{
hints = (
{
place = "{85, 114}";
type = Stem;
},
{
place = "{302, 120}";
type = Stem;
},
{
horizontal = 1;
place = "{0, 92}";
type = Stem;
},
{
horizontal = 1;
place = "{317, 120}";
type = Stem;
},
{
horizontal = 1;
place = "{699, -20}";
target = down;
type = TopGhost;
}
);
layerId = "0CF0EA28-C756-4A9E-9D7C-CFEF350B4CFE";
paths = (
{
closed = 1;
nodes = (
"434 0 LINE",
"434 91.993 LINE",
"199 92.327 LINE",
"199 699.328 LINE",
"85 699.328 LINE",
"85 0 LINE"
);
},
{
closed = 1;
nodes = (
"395 317.265 OFFCURVE",
"422 343.307 OFFCURVE",
"422 377.362 CURVE SMOOTH",
"422 410.415 OFFCURVE",
"395 437.459 OFFCURVE",
"362 437.459 CURVE SMOOTH",
"328 437.459 OFFCURVE",
"302 410.415 OFFCURVE",
"302 377.362 CURVE SMOOTH",
"302 343.307 OFFCURVE",
"328 317.265 OFFCURVE",
"362 317.265 CURVE SMOOTH"
);
}
);
width = 462.3;
},
{
hints = (
{
place = "{105, 20}";
type = Stem;
},
{
place = "{312, 60}";
type = Stem;
},
{
horizontal = 1;
place = "{346, 60}";
type = Stem;
},
{
horizontal = 1;
place = "{0, 21}";
target = up;
type = BottomGhost;
},
{
horizontal = 1;
place = "{700, -20}";
target = down;
type = TopGhost;
}
);
layerId = "0C5DB0F2-5B8B-4830-A1C2-9833713645D2";
paths = (
{
closed = 1;
nodes = (
"395 0.051 LINE",
"395 17.949 LINE",
"125 17.949 LINE",
"125 700.052 LINE",
"105 700.052 LINE",
"105 0.051 LINE"
);
},
{
closed = 1;
nodes = (
"358 346.074 OFFCURVE",
"372 359.995 OFFCURVE",
"372 375.904 CURVE SMOOTH",
"372 391.813 OFFCURVE",
"358 405.734 OFFCURVE",
"342 405.734 CURVE SMOOTH",
"326 405.734 OFFCURVE",
"312 391.813 OFFCURVE",
"312 375.904 CURVE SMOOTH",
"312 359.995 OFFCURVE",
"326 346.074 OFFCURVE",
"342 346.074 CURVE SMOOTH"
);
}
);
width = 429.97;
}
);
leftMetricsKey = L;
rightMetricsKey = L;
unicode = 013F;
},
{
glyphname = Lslash;
lastChange = "2021-08-04 13:16:10 +0000";
layers = (
{
hints = (
{
horizontal = 1;
place = "{0, 21}";
target = up;
type = BottomGhost;
},
{
horizontal = 1;
place = "{700, -20}";
target = down;
type = TopGhost;
}
);
layerId = "34B89C21-4068-454A-BBBC-B9295C834BF9";
paths = (
{
closed = 1;
nodes = (
"117.384 312.268 LINE",
"419.096 441.529 LINE",
"423.051 461.416 LINE",
"121.34 332.154 LINE"
);
},
{
closed = 1;
nodes = (
"289.519 700.052 LINE",
"150.28 0.051 LINE",
"440.28 0.051 LINE",
"443.84 17.949 LINE",
"173.84 17.949 LINE",
"309.519 700.052 LINE"
);
}
);
width = 524.97;
},
{
hints = (
{
horizontal = 1;
place = "{0, 87}";
type = Stem;
},
{
horizontal = 1;
place = "{699, -20}";
target = down;
type = TopGhost;
}
);
layerId = "24A19461-EE5C-48C0-A968-CC082199DAC2";
paths = (
{
closed = 1;
nodes = (
"88.758 268.903 LINE",
"391.19 361.565 LINE",
"408.493 448.555 LINE",
"105.861 354.886 LINE"
);
},
{
closed = 1;
nodes = (
"251.375 699.328 LINE",
"112.27 0 LINE",
"461.27 0 LINE",
"478.567 86.957 LINE",
"244.633 87.291 LINE",
"366.375 699.328 LINE"
);
}
);
width = 539.31;
},
{
hints = (
{
horizontal = 1;
place = "{0, 168}";
type = Stem;
},
{
horizontal = 1;
place = "{700, -20}";
target = down;
type = TopGhost;
}
);
layerId = "C06476A3-BC65-42D9-AE82-BE67E4874885";
paths = (
{
closed = 1;
nodes = (
"27.498 237.433 LINE",
"398.503 332.978 LINE",
"437.415 528.597 LINE",
"66.409 433.052 LINE"
);
},
{
closed = 1;
nodes = (
"174.516 700.035 LINE",
"35.27 0 LINE",
"471.27 0 LINE",
"504.714 168.135 LINE",
"290.714 168.135 LINE",
"396.516 700.035 LINE"
);
}
);
width = 530.99;
},
{
hints = (
{
place = "{85, 222}";
type = Stem;
},
{
horizontal = 1;
place = "{0, 168}";
type = Stem;
},
{
horizontal = 1;
place = "{700, -20}";
target = down;
type = TopGhost;
}
);
layerId = "F6DDAB16-9378-41C6-AF32-8CCAF9117681";
paths = (
{
closed = 1;
nodes = (
"30 237.433 LINE",
"382 332.978 LINE",
"382 528.597 LINE",
"30 433.052 LINE"
);
},
{
closed = 1;
nodes = (
"85 700.035 LINE",
"85 0 LINE",
"521 0 LINE",
"521 168.135 LINE",
"307 168.135 LINE",
"307 700.035 LINE"
);
}
);
width = 530.99;
},
{
hints = (
{
place = "{85, 192}";
type = Stem;
},
{
place = "{162, 115}";
type = Stem;
},
{
place = "{162, 207}";
type = Stem;
},
{
horizontal = 1;
place = "{0, 87}";
type = Stem;
},
{
horizontal = 1;
place = "{699, -20}";
target = down;
type = TopGhost;
}
);
layerId = "0CF0EA28-C756-4A9E-9D7C-CFEF350B4CFE";
paths = (
{
closed = 1;
nodes = (
"85 268.903 LINE",
"369 361.565 LINE",
"369 448.555 LINE",
"85 354.886 LINE"
);
},
{
closed = 1;
nodes = (
"162 699.328 LINE",
"162 0 LINE",
"511 0 LINE",
"511 86.957 LINE",
"277 87.291 LINE",
"277 699.328 LINE"
);
}
);
width = 539.3;
},
{
hints = (
{
place = "{200, 20}";
type = Stem;
},
{
horizontal = 1;
place = "{0, 21}";
target = up;
type = BottomGhost;
},
{
horizontal = 1;
place = "{700, -20}";
target = down;
type = TopGhost;
}
);
layerId = "0C5DB0F2-5B8B-4830-A1C2-9833713645D2";
paths = (
{
closed = 1;
nodes = (
"105 312.268 LINE",
"381 441.529 LINE",
"381 461.416 LINE",
"105 332.154 LINE"
);
},
{
closed = 1;
nodes = (
"200 700.052 LINE",
"200 0.051 LINE",
"490 0.051 LINE",
"490 17.949 LINE",
"220 17.949 LINE",
"220 700.052 LINE"
);
}
);
width = 524.97;
}
);
leftMetricsKey = L;
rightMetricsKey = L;
unicode = 0141;
},
{
glyphname = M;
lastChange = "2021-08-04 11:39:15 +0000";
layers = (
{
guideLines = (
{
angle = 245.87;
position = "{533.27, 348.06}";
}
);
hints = (
{
horizontal = 1;
place = "{0, 21}";
target = up;
type = BottomGhost;
},
{
horizontal = 1;
place = "{700, -20}";
target = down;
type = TopGhost;
}
);
layerId = "34B89C21-4068-454A-BBBC-B9295C834BF9";
paths = (
{
closed = 1;
nodes = (
"204.697 650.675 LINE",
"359.28 0.051 LINE",
"379.28 0.051 LINE",
"791.702 650.696 LINE",
"662.28 0.051 LINE",
"682.28 0.051 LINE",
"821.518 700.045 LINE",
"801.518 700.045 LINE",
"374.651 25.894 LINE",
"214.518 700.045 LINE",
"194.518 700.045 LINE",
"55.28 0.051 LINE",
"75.28 0.051 LINE"
);
}
);
width = 837;
},
{
hints = (
{
horizontal = 1;
place = "{700, -20}";
target = down;
type = TopGhost;
},
{
horizontal = 1;
place = "{0, 21}";
target = up;
type = BottomGhost;
}
);
layerId = "24A19461-EE5C-48C0-A968-CC082199DAC2";
paths = (
{
closed = 1;
nodes = (
"244.627 479.392 LINE",
"362.182 0 LINE",
"441.358 0 LINE",
"748.547 478.99 LINE",
"653.27 0 LINE",
"767.27 0 LINE",
"906.574 700.328 LINE",
"784.486 700.328 LINE",
"431.706 150.499 LINE",
"297.662 700.328 LINE",
"174.574 700.328 LINE",
"35.27 0 LINE",
"149.27 0 LINE"
);
}
);
width = 902;
},
{
hints = (
{
horizontal = 1;
place = "{700, -20}";
target = down;
type = TopGhost;
},
{
horizontal = 1;
place = "{0, 21}";
target = up;
type = BottomGhost;
}
);
layerId = "C06476A3-BC65-42D9-AE82-BE67E4874885";
paths = (
{
closed = 1;
nodes = (
"271.68 348.947 LINE",
"311.563 0 LINE",
"500.977 0 LINE",
"679.758 349.338 LINE",
"610.27 0 LINE",
"831.27 0 LINE",
"970.516 700.035 LINE",
"699.835 700.035 LINE",
"464.446 280.53 LINE",
"391.191 700.035 LINE",
"119.516 700.035 LINE",
"-19.73 0 LINE",
"202.27 0 LINE"
);
}
);
width = 911;
},
{
hints = (
{
place = "{30, 222}";
type = Stem;
},
{
place = "{660, 221}";
type = Stem;
},
{
horizontal = 1;
place = "{700, -20}";
target = down;
type = TopGhost;
},
{
horizontal = 1;
place = "{0, 21}";
target = up;
type = BottomGhost;
}
);
layerId = "F6DDAB16-9378-41C6-AF32-8CCAF9117681";
paths = (
{
closed = 1;
nodes = (
"252 348.947 LINE",
"361.293 0 LINE",
"550.707 0 LINE",
"660 349.338 LINE",
"660 0 LINE",
"881 0 LINE",
"881 700.035 LINE",
"610.319 700.035 LINE",
"458.375 280.53 LINE",
"301.675 700.035 LINE",
"30 700.035 LINE",
"30 0 LINE",
"252 0 LINE"
);
}
);
width = 911;
},
{
hints = (
{
place = "{85, 114}";
type = Stem;
},
{
place = "{703, 114}";
type = Stem;
},
{
horizontal = 1;
place = "{700, -20}";
target = down;
type = TopGhost;
},
{
horizontal = 1;
place = "{0, 21}";
target = up;
type = BottomGhost;
}
);
layerId = "0CF0EA28-C756-4A9E-9D7C-CFEF350B4CFE";
paths = (
{
closed = 1;
nodes = (
"199 479.392 LINE",
"411.912 0 LINE",
"491.088 0 LINE",
"703 478.99 LINE",
"703 0 LINE",
"817 0 LINE",
"817 700.328 LINE",
"694.912 700.328 LINE",
"451.5 150.499 LINE",
"208.088 700.328 LINE",
"85 700.328 LINE",
"85 0 LINE",
"199 0 LINE"
);
}
);
width = 902;
},
{
guideLines = (
{
angle = 245.87;
position = "{583, 348.06}";
}
);
hints = (
{
place = "{105, 20}";
type = Stem;
},
{
place = "{712, 20}";
type = Stem;
},
{
horizontal = 1;
place = "{0, 21}";
target = up;
type = BottomGhost;
},
{
horizontal = 1;
place = "{700, -20}";
target = down;
type = TopGhost;
}
);
layerId = "0C5DB0F2-5B8B-4830-A1C2-9833713645D2";
paths = (
{
closed = 1;
nodes = (
"125 650.675 LINE",
"409 0.051 LINE",
"429 0.051 LINE",
"712 650.696 LINE",
"712 0.051 LINE",
"732 0.051 LINE",
"732 700.045 LINE",
"712 700.045 LINE",
"419.23 25.894 LINE",
"125 700.045 LINE",
"105 700.045 LINE",
"105 0.051 LINE",
"125 0.051 LINE"
);
}
);
width = 837;
}
);
leftMetricsKey = H;
rightMetricsKey = H;
unicode = 004D;
},
{
glyphname = N;
lastChange = "2021-08-04 11:39:15 +0000";
layers = (
{
anchors = (
{
name = bottom;
position = "{294.27, 0}";
},
{
name = top;
position = "{429.27, 679}";
}
);
hints = (
{
horizontal = 1;
place = "{699, -20}";
target = down;
type = TopGhost;
},
{
horizontal = 1;
place = "{0, 21}";
target = up;
type = BottomGhost;
}
);
layerId = "34B89C21-4068-454A-BBBC-B9295C834BF9";
paths = (
{
closed = 1;
nodes = (
"651.334 699.044 LINE",
"519.599 36.84 LINE",
"214.334 699.044 LINE",
"194.334 699.044 LINE",
"55.28 0.051 LINE",
"75.28 0.051 LINE",
"207.213 663.249 LINE",
"512.28 0.051 LINE",
"532.28 0.051 LINE",
"671.334 699.044 LINE"
);
}
);
width = 687.01;
},
{
anchors = (
{
name = bottom;
position = "{321.28, 0}";
},
{
name = top;
position = "{460.28, 701}";
}
);
hints = (
{
horizontal = 1;
place = "{700, -20}";
target = down;
type = TopGhost;
},
{
horizontal = 1;
place = "{0, 21}";
target = up;
type = BottomGhost;
}
);
layerId = "24A19461-EE5C-48C0-A968-CC082199DAC2";
paths = (
{
closed = 1;
nodes = (
"631.577 700.336 LINE",
"527.836 178.761 LINE",
"288.675 700.336 LINE",
"174.577 700.336 LINE",
"35.28 0 LINE",
"149.28 0 LINE",
"253.221 522.582 LINE",
"492.182 0 LINE",
"606.28 0 LINE",
"745.577 700.336 LINE"
);
}
);
width = 741.01;
},
{
anchors = (
{
name = bottom;
position = "{319.28, 1}";
},
{
name = top;
position = "{459.28, 702}";
}
);
hints = (
{
horizontal = 1;
place = "{700, -20}";
target = down;
type = TopGhost;
},
{
horizontal = 1;
place = "{0, 21}";
target = up;
type = BottomGhost;
}
);
layerId = "C06476A3-BC65-42D9-AE82-BE67E4874885";
paths = (
{
closed = 1;
nodes = (
"576.517 700.035 LINE",
"505.475 342.86 LINE",
"341.118 700.035 LINE",
"119.517 700.035 LINE",
"-19.72 0 LINE",
"202.28 0 LINE",
"272.145 351.256 LINE",
"437.68 0 LINE",
"659.28 0 LINE",
"798.517 700.035 LINE"
);
}
);
width = 739.01;
},
{
anchors = (
{
name = bottom;
position = "{369, 1}";
},
{
name = top;
position = "{369, 702}";
}
);
hints = (
{
place = "{30, 222}";
type = Stem;
},
{
place = "{487, 222}";
type = Stem;
},
{
horizontal = 1;
place = "{700, -20}";
target = down;
type = TopGhost;
},
{
horizontal = 1;
place = "{0, 21}";
target = up;
type = BottomGhost;
}
);
layerId = "F6DDAB16-9378-41C6-AF32-8CCAF9117681";
paths = (
{
closed = 1;
nodes = (
"487 700.035 LINE",
"487 342.86 LINE",
"251.601 700.035 LINE",
"30 700.035 LINE",
"30 0 LINE",
"252 0 LINE",
"252 351.256 LINE",
"487.4 0 LINE",
"709 0 LINE",
"709 700.035 LINE"
);
}
);
width = 739;
},
{
anchors = (
{
name = bottom;
position = "{371, 0}";
},
{
name = top;
position = "{371, 701}";
}
);
hints = (
{
place = "{85, 114}";
type = Stem;
},
{
place = "{542, 114}";
type = Stem;
},
{
horizontal = 1;
place = "{700, -20}";
target = down;
type = TopGhost;
},
{
horizontal = 1;
place = "{0, 21}";
target = up;
type = BottomGhost;
}
);
layerId = "0CF0EA28-C756-4A9E-9D7C-CFEF350B4CFE";
paths = (
{
closed = 1;
nodes = (
"542 700.336 LINE",
"542 178.761 LINE",
"199.098 700.336 LINE",
"85 700.336 LINE",
"85 0 LINE",
"199 0 LINE",
"199 522.582 LINE",
"541.902 0 LINE",
"656 0 LINE",
"656 700.336 LINE"
);
}
);
width = 741;
},
{
anchors = (
{
name = bottom;
position = "{344, 0}";
},
{
name = top;
position = "{344, 679}";
}
);
hints = (
{
place = "{105, 20}";
type = Stem;
},
{
place = "{562, 20}";
type = Stem;
},
{
horizontal = 1;
place = "{699, -20}";
target = down;
type = TopGhost;
},
{
horizontal = 1;
place = "{0, 21}";
target = up;
type = BottomGhost;
}
);
layerId = "0C5DB0F2-5B8B-4830-A1C2-9833713645D2";
paths = (
{
closed = 1;
nodes = (
"562 699.044 LINE",
"562 36.84 LINE",
"125 699.044 LINE",
"105 699.044 LINE",
"105 0.051 LINE",
"125 0.051 LINE",
"125 663.249 LINE",
"562 0.051 LINE",
"582 0.051 LINE",
"582 699.044 LINE"
);
}
);
width = 687;
}
);
leftMetricsKey = H;
rightMetricsKey = H;
unicode = 004E;
},
{
glyphname = Ncommaaccent;
lastChange = "2021-08-04 11:39:15 +0000";
layers = (
{
anchors = (
{
name = _bottom;
position = "{323, 0}";
}
);
components = (
{
alignment = -1;
name = N;
}
);
hints = (
{
horizontal = 1;
place = "{-59, -20}";
target = down;
type = TopGhost;
},
{
horizontal = 1;
place = "{-175, 21}";
target = up;
type = BottomGhost;
}
);
layerId = "34B89C21-4068-454A-BBBC-B9295C834BF9";
paths = (
{
closed = 1;
nodes = (
"285.341 -58.614 LINE",
"277.825 -96.398 LINE",
"308.825 -96.398 LINE",
"307.441 -103.358 LINE SMOOTH",
"300.914 -136.171 OFFCURVE",
"285.761 -157.051 OFFCURVE",
"253.761 -157.051 CURVE",
"250.2 -174.949 LINE",
"286.2 -174.949 OFFCURVE",
"318.167 -160.034 OFFCURVE",
"332.21 -89.438 CURVE SMOOTH",
"333.99 -80.489 OFFCURVE",
"335.561 -67.563 OFFCURVE",
"336.341 -58.614 CURVE"
);
}
);
width = 687;
},
{
anchors = (
{
name = _bottom;
position = "{361, 0}";
}
);
components = (
{
alignment = -1;
name = N;
}
);
hints = (
{
horizontal = 1;
place = "{-143, 96}";
type = Stem;
},
{
horizontal = 1;
place = "{-272, 21}";
target = up;
type = BottomGhost;
}
);
layerId = "24A19461-EE5C-48C0-A968-CC082199DAC2";
paths = (
{
closed = 1;
nodes = (
"296.651 -47 LINE",
"277.551 -143.022 LINE",
"330.485 -143.356 LINE",
"326.278 -164.507 LINE SMOOTH",
"318.62 -203.003 OFFCURVE",
"299.792 -222.251 OFFCURVE",
"266.792 -222.251 CURVE",
"256.907 -271.942 LINE",
"330.907 -271.942 OFFCURVE",
"377.299 -229.752 OFFCURVE",
"393.884 -146.377 CURVE SMOOTH",
"399.683 -117.223 OFFCURVE",
"402.292 -84.089 OFFCURVE",
"399.717 -47 CURVE"
);
}
);
width = 741;
},
{
anchors = (
{
name = _bottom;
position = "{414, 1}";
}
);
components = (
{
alignment = -1;
name = N;
}
);
hints = (
{
horizontal = 1;
place = "{-341, 79}";
type = Stem;
},
{
horizontal = 1;
place = "{-179, 147}";
type = Stem;
}
);
layerId = "C06476A3-BC65-42D9-AE82-BE67E4874885";
paths = (
{
closed = 1;
nodes = (
"327.671 -31.82 LINE",
"298.341 -179.27 LINE",
"370.341 -179.27 LINE",
"368.45 -188.777 LINE SMOOTH",
"358.444 -239.077 OFFCURVE",
"334.019 -261.325 OFFCURVE",
"299.019 -261.325 CURVE",
"283.209 -340.81 LINE",
"397.209 -340.81 OFFCURVE",
"464.003 -261.407 OFFCURVE",
"482.956 -166.122 CURVE SMOOTH",
"491.244 -124.455 OFFCURVE",
"492.242 -78.705 OFFCURVE",
"483.339 -31.82 CURVE"
);
}
);
width = 739;
},
{
anchors = (
{
name = _bottom;
position = "{414, 1}";
}
);
components = (
{
alignment = -1;
name = N;
}
);
hints = (
{
place = "{334, 182}";
type = Stem;
},
{
place = "{406, 110}";
type = Stem;
},
{
horizontal = 1;
place = "{-341, 79}";
type = Stem;
},
{
horizontal = 1;
place = "{-179, 147}";
type = Stem;
}
);
layerId = "F6DDAB16-9378-41C6-AF32-8CCAF9117681";
paths = (
{
closed = 1;
nodes = (
"334 -31.82 LINE",
"334 -179.27 LINE",
"406 -179.27 LINE",
"406 -188.777 LINE",
"406 -239.077 OFFCURVE",
"386 -261.325 OFFCURVE",
"351 -261.325 CURVE",
"351 -340.81 LINE",
"465 -340.81 OFFCURVE",
"516 -261.407 OFFCURVE",
"516 -166.122 CURVE SMOOTH",
"516 -124.455 OFFCURVE",
"507.898 -78.705 OFFCURVE",
"489.668 -31.82 CURVE"
);
}
);
width = 739;
},
{
anchors = (
{
name = _bottom;
position = "{361, 0}";
}
);
components = (
{
alignment = -1;
name = N;
}
);
hints = (
{
place = "{306, 117}";
type = Stem;
},
{
place = "{311, 112}";
type = Stem;
},
{
place = "{359, 64}";
type = Stem;
},
{
horizontal = 1;
place = "{-143, 96}";
type = Stem;
},
{
horizontal = 1;
place = "{-272, 21}";
target = up;
type = BottomGhost;
}
);
layerId = "0CF0EA28-C756-4A9E-9D7C-CFEF350B4CFE";
paths = (
{
closed = 1;
nodes = (
"306 -47 LINE",
"306 -143.022 LINE",
"359 -143.356 LINE",
"359 -164.507 LINE SMOOTH",
"359 -203.003 OFFCURVE",
"344 -222.251 OFFCURVE",
"311 -222.251 CURVE",
"311 -271.942 LINE",
"385 -271.942 OFFCURVE",
"423 -229.752 OFFCURVE",
"423 -146.377 CURVE SMOOTH",
"423 -117.223 OFFCURVE",
"419.019 -84.089 OFFCURVE",
"409.066 -47 CURVE"
);
}
);
width = 741;
},
{
anchors = (
{
name = _bottom;
position = "{323, 0}";
}
);
components = (
{
alignment = -1;
name = N;
}
);
hints = (
{
place = "{328, 22}";
type = Stem;
},
{
horizontal = 1;
place = "{-59, -20}";
target = down;
type = TopGhost;
},
{
horizontal = 1;
place = "{-175, 21}";
target = up;
type = BottomGhost;
}
);
layerId = "0C5DB0F2-5B8B-4830-A1C2-9833713645D2";
paths = (
{
closed = 1;
nodes = (
"297 -58.614 LINE",
"297 -96.398 LINE",
"328 -96.398 LINE",
"328 -103.358 LINE SMOOTH",
"328 -136.171 OFFCURVE",
"317 -157.051 OFFCURVE",
"285 -157.051 CURVE",
"285 -174.949 LINE",
"321 -174.949 OFFCURVE",
"350 -160.034 OFFCURVE",
"350 -89.438 CURVE SMOOTH",
"350 -80.489 OFFCURVE",
"349 -67.563 OFFCURVE",
"348 -58.614 CURVE"
);
}
);
width = 687;
}
);
leftMetricsKey = H;
rightMetricsKey = H;
unicode = 0145;
},
{
glyphname = O;
lastChange = "2021-08-04 13:05:24 +0000";
layers = (
{
anchors = (
{
name = top;
position = "{484.76, 679}";
}
);
hints = (
{
horizontal = 1;
place = "{706, -20}";
target = down;
type = TopGhost;
},
{
horizontal = 1;
place = "{-8, 21}";
target = up;
type = BottomGhost;
}
);
layerId = "34B89C21-4068-454A-BBBC-B9295C834BF9";
paths = (
{
closed = 1;
nodes = (
"533.188 -7.903 OFFCURVE",
"702.462 139.253 OFFCURVE",
"744.198 349.05 CURVE SMOOTH",
"785.934 558.848 OFFCURVE",
"675.208 706.004 OFFCURVE",
"479.208 706.004 CURVE SMOOTH",
"283.208 706.004 OFFCURVE",
"113.934 558.848 OFFCURVE",
"72.198 349.05 CURVE SMOOTH",
"30.462 139.253 OFFCURVE",
"141.188 -7.903 OFFCURVE",
"337.188 -7.903 CURVE SMOOTH"
);
},
{
closed = 1;
nodes = (
"165.748 9.994 OFFCURVE",
"51.264 138.259 OFFCURVE",
"93.198 349.05 CURVE SMOOTH",
"135.132 559.842 OFFCURVE",
"300.648 688.107 OFFCURVE",
"475.648 688.107 CURVE SMOOTH",
"650.648 688.107 OFFCURVE",
"765.132 559.842 OFFCURVE",
"723.198 349.05 CURVE SMOOTH",
"681.264 138.259 OFFCURVE",
"515.748 9.994 OFFCURVE",
"340.748 9.994 CURVE SMOOTH"
);
}
);
width = 777;
},
{
anchors = (
{
name = top;
position = "{486.78, 701}";
}
);
hints = (
{
horizontal = 1;
place = "{-7, 99}";
type = Stem;
},
{
horizontal = 1;
place = "{608, 100}";
type = Stem;
}
);
layerId = "24A19461-EE5C-48C0-A968-CC082199DAC2";
paths = (
{
closed = 1;
nodes = (
"544.378 -7.05 OFFCURVE",
"730.799 140.869 OFFCURVE",
"772.629 351.175 CURVE SMOOTH",
"814.258 560.475 OFFCURVE",
"686.679 708.393 OFFCURVE",
"488.679 708.393 CURVE SMOOTH",
"292.679 708.393 OFFCURVE",
"104.258 560.475 OFFCURVE",
"62.629 351.175 CURVE SMOOTH",
"20.799 140.869 OFFCURVE",
"150.378 -7.05 OFFCURVE",
"346.378 -7.05 CURVE SMOOTH"
);
},
{
closed = 1;
nodes = (
"228.077 91.993 OFFCURVE",
"148.136 192.842 OFFCURVE",
"179.629 351.175 CURVE SMOOTH",
"211.121 509.51 OFFCURVE",
"330.779 608.343 OFFCURVE",
"468.779 608.343 CURVE SMOOTH",
"606.779 608.343 OFFCURVE",
"687.121 509.51 OFFCURVE",
"655.629 351.175 CURVE SMOOTH",
"624.136 192.842 OFFCURVE",
"504.077 91.993 OFFCURVE",
"366.077 91.993 CURVE SMOOTH"
);
}
);
width = 795;
},
{
anchors = (
{
name = top;
position = "{470.28, 702}";
}
);
hints = (
{
horizontal = 1;
place = "{-7, 207}";
type = Stem;
},
{
horizontal = 1;
place = "{507, 205}";
type = Stem;
}
);
layerId = "C06476A3-BC65-42D9-AE82-BE67E4874885";
paths = (
{
closed = 1;
nodes = (
"528.909 -6.895 OFFCURVE",
"721.602 142.391 OFFCURVE",
"763.486 352.972 CURVE SMOOTH",
"805.371 563.556 OFFCURVE",
"673.868 711.855 OFFCURVE",
"471.868 711.855 CURVE SMOOTH",
"270.868 711.855 OFFCURVE",
"77.371 563.556 OFFCURVE",
"35.486 352.972 CURVE SMOOTH",
"-6.398 142.391 OFFCURVE",
"127.909 -6.895 OFFCURVE",
"328.909 -6.895 CURVE SMOOTH"
);
},
{
closed = 1;
nodes = (
"278.991 199.655 OFFCURVE",
"243.228 261.177 OFFCURVE",
"261.486 352.972 CURVE SMOOTH",
"280.134 446.726 OFFCURVE",
"340.177 507.275 OFFCURVE",
"431.177 507.275 CURVE SMOOTH",
"520.177 507.275 OFFCURVE",
"557.134 446.726 OFFCURVE",
"538.486 352.972 CURVE SMOOTH",
"520.228 261.177 OFFCURVE",
"458.991 199.655 OFFCURVE",
"369.991 199.655 CURVE SMOOTH"
);
}
);
width = 758;
},
{
anchors = (
{
name = top;
position = "{380, 702}";
}
);
hints = (
{
place = "{15, 226}";
type = Stem;
},
{
place = "{518, 225}";
type = Stem;
},
{
horizontal = 1;
place = "{-7, 207}";
type = Stem;
},
{
horizontal = 1;
place = "{507, 205}";
type = Stem;
}
);
layerId = "F6DDAB16-9378-41C6-AF32-8CCAF9117681";
paths = (
{
closed = 1;
nodes = (
"580 -6.895 OFFCURVE",
"743 142.391 OFFCURVE",
"743 352.972 CURVE SMOOTH",
"743 563.556 OFFCURVE",
"582 711.855 OFFCURVE",
"380 711.855 CURVE SMOOTH",
"179 711.855 OFFCURVE",
"15 563.556 OFFCURVE",
"15 352.972 CURVE SMOOTH",
"15 142.391 OFFCURVE",
"179 -6.895 OFFCURVE",
"380 -6.895 CURVE SMOOTH"
);
},
{
closed = 1;
nodes = (
"289 199.655 OFFCURVE",
"241 261.177 OFFCURVE",
"241 352.972 CURVE SMOOTH",
"241 446.726 OFFCURVE",
"289 507.275 OFFCURVE",
"380 507.275 CURVE SMOOTH",
"469 507.275 OFFCURVE",
"518 446.726 OFFCURVE",
"518 352.972 CURVE SMOOTH",
"518 261.177 OFFCURVE",
"469 199.655 OFFCURVE",
"380 199.655 CURVE SMOOTH"
);
}
);
width = 758;
},
{
anchors = (
{
name = top;
position = "{397.5, 701}";
}
);
hints = (
{
place = "{42, 117}";
type = Stem;
},
{
place = "{635, 117}";
type = Stem;
},
{
horizontal = 1;
place = "{-7, 99}";
type = Stem;
},
{
horizontal = 1;
place = "{608, 100}";
type = Stem;
}
);
layerId = "0CF0EA28-C756-4A9E-9D7C-CFEF350B4CFE";
paths = (
{
closed = 1;
nodes = (
"595.5 -7.05 OFFCURVE",
"752.5 140.869 OFFCURVE",
"752.5 351.175 CURVE SMOOTH",
"752.5 560.475 OFFCURVE",
"595.5 708.393 OFFCURVE",
"397.5 708.393 CURVE SMOOTH",
"201.5 708.393 OFFCURVE",
"42.5 560.475 OFFCURVE",
"42.5 351.175 CURVE SMOOTH",
"42.5 140.869 OFFCURVE",
"201.5 -7.05 OFFCURVE",
"397.5 -7.05 CURVE SMOOTH"
);
},
{
closed = 1;
nodes = (
"259.5 91.993 OFFCURVE",
"159.5 192.842 OFFCURVE",
"159.5 351.175 CURVE SMOOTH",
"159.5 509.51 OFFCURVE",
"259.5 608.343 OFFCURVE",
"397.5 608.343 CURVE SMOOTH",
"535.5 608.343 OFFCURVE",
"635.5 509.51 OFFCURVE",
"635.5 351.175 CURVE SMOOTH",
"635.5 192.842 OFFCURVE",
"535.5 91.993 OFFCURVE",
"397.5 91.993 CURVE SMOOTH"
);
}
);
width = 795;
},
{
anchors = (
{
name = top;
position = "{399.5, 679}";
}
);
hints = (
{
place = "{52, 21}";
type = Stem;
},
{
place = "{703, 21}";
type = Stem;
},
{
horizontal = 1;
place = "{706, -20}";
target = down;
type = TopGhost;
},
{
horizontal = 1;
place = "{-8, 21}";
target = up;
type = BottomGhost;
}
);
layerId = "0C5DB0F2-5B8B-4830-A1C2-9833713645D2";
paths = (
{
closed = 1;
nodes = (
"584.5 -7.903 OFFCURVE",
"724.5 139.253 OFFCURVE",
"724.5 349.05 CURVE",
"724.5 558.848 OFFCURVE",
"584.5 706.004 OFFCURVE",
"388.5 706.004 CURVE",
"192.5 706.004 OFFCURVE",
"52.5 558.848 OFFCURVE",
"52.5 349.05 CURVE",
"52.5 139.253 OFFCURVE",
"192.5 -7.903 OFFCURVE",
"388.5 -7.903 CURVE"
);
},
{
closed = 1;
nodes = (
"213.5 9.994 OFFCURVE",
"73.5 138.259 OFFCURVE",
"73.5 349.05 CURVE",
"73.5 559.842 OFFCURVE",
"213.5 688.107 OFFCURVE",
"388.5 688.107 CURVE",
"563.5 688.107 OFFCURVE",
"703.5 559.842 OFFCURVE",
"703.5 349.05 CURVE",
"703.5 138.259 OFFCURVE",
"563.5 9.994 OFFCURVE",
"388.5 9.994 CURVE"
);
}
);
width = 777;
}
);
leftMetricsKey = "=H*0.5";
rightMetricsKey = "=H*0.5";
unicode = 004F;
},
{
glyphname = Oslash;
lastChange = "2021-08-04 13:06:59 +0000";
layers = (
{
components = (
{
alignment = -1;
name = O;
}
);
layerId = "34B89C21-4068-454A-BBBC-B9295C834BF9";
paths = (
{
closed = 1;
nodes = (
"168.534 102.788 LINE",
"191.136 100.788 LINE",
"753.39 602.19 LINE",
"731.987 605.19 LINE"
);
}
);
width = 777;
},
{
components = (
{
alignment = -1;
name = O;
}
);
layerId = "24A19461-EE5C-48C0-A968-CC082199DAC2";
paths = (
{
closed = 1;
nodes = (
"177.04 156.466 LINE",
"258.372 109.274 LINE",
"761.399 561.102 LINE",
"680.066 608.294 LINE"
);
}
);
width = 795;
},
{
components = (
{
alignment = -1;
name = O;
}
);
layerId = "C06476A3-BC65-42D9-AE82-BE67E4874885";
paths = (
{
closed = 1;
nodes = (
"190.218 180.051 LINE",
"295.448 120.393 LINE",
"762.89 543.983 LINE",
"658.666 603.644 LINE"
);
}
);
width = 758;
},
{
components = (
{
alignment = -1;
name = O;
}
);
layerId = "F6DDAB16-9378-41C6-AF32-8CCAF9117681";
paths = (
{
closed = 1;
nodes = (
"154.403 180.051 LINE",
"271.5 120.393 LINE",
"654.685 543.983 LINE",
"538.593 603.644 LINE"
);
}
);
width = 758;
},
{
components = (
{
alignment = -1;
name = O;
}
);
layerId = "0CF0EA28-C756-4A9E-9D7C-CFEF350B4CFE";
paths = (
{
closed = 1;
nodes = (
"145.917 156.466 LINE",
"236.636 109.274 LINE",
"649.788 561.102 LINE",
"559.069 608.294 LINE"
);
}
);
width = 795;
},
{
components = (
{
alignment = -1;
name = O;
}
);
layerId = "0C5DB0F2-5B8B-4830-A1C2-9833713645D2";
paths = (
{
closed = 1;
nodes = (
"148.088 102.788 LINE",
"171.088 100.788 LINE",
"633.607 602.19 LINE",
"611.607 605.19 LINE"
);
}
);
width = 777;
}
);
leftMetricsKey = O;
rightMetricsKey = O;
unicode = 00D8;
},
{
glyphname = OE;
lastChange = "2021-08-04 13:06:59 +0000";
layers = (
{
hints = (
{
horizontal = 1;
place = "{706, -20}";
target = down;
type = TopGhost;
},
{
horizontal = 1;
place = "{-8, 21}";
target = up;
type = BottomGhost;
}
);
layerId = "34B89C21-4068-454A-BBBC-B9295C834BF9";
paths = (
{
closed = 1;
nodes = (
"1134.459 682.155 LINE",
"1138.019 700.052 LINE",
"794.019 700.052 LINE",
"746.156 459.427 LINE",
"743.823 608.575 OFFCURVE",
"634.206 706.018 OFFCURVE",
"479.206 706.018 CURVE SMOOTH",
"283.206 706.018 OFFCURVE",
"113.934 558.859 OFFCURVE",
"72.202 349.057 CURVE SMOOTH",
"30.47 139.256 OFFCURVE",
"141.198 -7.903 OFFCURVE",
"337.198 -7.903 CURVE SMOOTH",
"492.198 -7.903 OFFCURVE",
"640.581 89.54 OFFCURVE",
"702.248 238.688 CURVE",
"654.78 0.051 LINE",
"998.78 0.051 LINE",
"1002.34 17.949 LINE",
"678.34 17.949 LINE",
"742.62 341.103 LINE",
"1036.62 341.103 LINE",
"1040.18 359 LINE",
"746.18 359 LINE",
"810.459 682.154 LINE"
);
},
{
closed = 1;
nodes = (
"135.132 559.853 OFFCURVE",
"300.646 688.121 OFFCURVE",
"475.646 688.121 CURVE SMOOTH",
"650.646 688.121 OFFCURVE",
"765.132 559.853 OFFCURVE",
"723.202 349.057 CURVE SMOOTH",
"681.272 138.262 OFFCURVE",
"515.758 9.994 OFFCURVE",
"340.758 9.994 CURVE SMOOTH",
"165.758 9.994 OFFCURVE",
"51.272 138.262 OFFCURVE",
"93.202 349.057 CURVE SMOOTH"
);
}
);
width = 1133.5;
},
{
hints = (
{
horizontal = 1;
place = "{-7, 103}";
type = Stem;
},
{
horizontal = 1;
place = "{0, 89}";
type = Stem;
},
{
horizontal = 1;
place = "{309, 88}";
type = Stem;
},
{
horizontal = 1;
place = "{604, 104}";
type = Stem;
},
{
horizontal = 1;
place = "{611, 89}";
type = Stem;
}
);
layerId = "24A19461-EE5C-48C0-A968-CC082199DAC2";
paths = (
{
closed = 1;
nodes = (
"1091.376 611.357 LINE",
"1109.074 700.328 LINE",
"725.074 700.328 LINE",
"703.665 592.698 LINE",
"660.939 669.157 OFFCURVE",
"583.743 708.393 OFFCURVE",
"478.678 708.393 CURVE SMOOTH",
"293.678 708.393 OFFCURVE",
"104.656 562.487 OFFCURVE",
"62.623 351.175 CURVE SMOOTH",
"20.79 140.869 OFFCURVE",
"150.368 -7.05 OFFCURVE",
"337.368 -7.05 CURVE SMOOTH",
"441.432 -7.05 OFFCURVE",
"534.239 32.185 OFFCURVE",
"607.941 111.464 CURVE",
"585.77 0 LINE",
"969.77 0 LINE",
"987.467 88.971 LINE",
"717.534 89.306 LINE",
"761.275 309.207 LINE",
"1001.275 309.207 LINE",
"1018.772 397.171 LINE",
"778.839 397.506 LINE",
"821.376 611.357 LINE"
);
},
{
closed = 1;
nodes = (
"210.316 505.479 OFFCURVE",
"329.976 604.314 OFFCURVE",
"467.976 604.314 CURVE SMOOTH",
"605.976 604.314 OFFCURVE",
"686.316 505.479 OFFCURVE",
"655.623 351.175 CURVE SMOOTH",
"624.93 196.873 OFFCURVE",
"504.87 96.022 OFFCURVE",
"366.87 96.022 CURVE SMOOTH",
"228.87 96.022 OFFCURVE",
"148.93 196.873 OFFCURVE",
"179.623 351.175 CURVE SMOOTH"
);
}
);
width = 1084.5;
},
{
hints = (
{
horizontal = 1;
place = "{-12, 205}";
type = Stem;
},
{
horizontal = 1;
place = "{0, 177}";
type = Stem;
},
{
horizontal = 1;
place = "{273, 167}";
type = Stem;
},
{
horizontal = 1;
place = "{507, 205}";
type = Stem;
},
{
horizontal = 1;
place = "{524, 176}";
type = Stem;
}
);
layerId = "C06476A3-BC65-42D9-AE82-BE67E4874885";
paths = (
{
closed = 1;
nodes = (
"1054.504 524.02 LINE",
"1089.516 700.035 LINE",
"617.516 700.035 LINE",
"610.213 663.325 LINE",
"572.427 695.184 OFFCURVE",
"512.919 711.855 OFFCURVE",
"454.867 711.855 CURVE SMOOTH",
"252.867 711.855 OFFCURVE",
"77.125 562.335 OFFCURVE",
"34.893 350.018 CURVE SMOOTH",
"-7.34 137.7 OFFCURVE",
"108.919 -11.819 OFFCURVE",
"310.919 -11.819 CURVE",
"369.55 -8.912 OFFCURVE",
"435.073 4.888 OFFCURVE",
"485.572 36.711 CURVE",
"478.27 0 LINE",
"950.27 0 LINE",
"985.477 177 LINE",
"735.477 177 LINE",
"754.542 272.845 LINE",
"974.542 272.845 LINE",
"1007.79 439.995 LINE",
"787.79 439.995 LINE",
"804.504 524.02 LINE"
);
},
{
closed = 1;
nodes = (
"279.899 445.567 OFFCURVE",
"340.173 507.275 OFFCURVE",
"431.173 507.275 CURVE SMOOTH",
"520.173 507.275 OFFCURVE",
"556.899 445.567 OFFCURVE",
"537.893 350.017 CURVE SMOOTH",
"518.887 254.468 OFFCURVE",
"457.612 192.76 OFFCURVE",
"368.612 192.76 CURVE SMOOTH",
"277.612 192.76 OFFCURVE",
"241.887 254.468 OFFCURVE",
"260.893 350.017 CURVE SMOOTH"
);
}
);
width = 1010;
},
{
hints = (
{
place = "{15, 226}";
type = Stem;
},
{
place = "{518, 232}";
type = Stem;
},
{
horizontal = 1;
place = "{-12, 205}";
type = Stem;
},
{
horizontal = 1;
place = "{0, 177}";
type = Stem;
},
{
horizontal = 1;
place = "{273, 167}";
type = Stem;
},
{
horizontal = 1;
place = "{507, 205}";
type = Stem;
},
{
horizontal = 1;
place = "{524, 176}";
type = Stem;
}
);
layerId = "F6DDAB16-9378-41C6-AF32-8CCAF9117681";
paths = (
{
closed = 1;
nodes = (
"1000 524.02 LINE",
"1000 700.035 LINE",
"528 700.035 LINE",
"528 663.325 LINE",
"483.877 695.184 OFFCURVE",
"421.052 711.855 OFFCURVE",
"363 711.855 CURVE SMOOTH",
"161 711.855 OFFCURVE",
"15 562.335 OFFCURVE",
"15 350.018 CURVE SMOOTH",
"15 137.7 OFFCURVE",
"161 -11.819 OFFCURVE",
"363 -11.819 CURVE",
"421.053 -8.912 OFFCURVE",
"483.831 4.888 OFFCURVE",
"528 36.711 CURVE",
"528 0 LINE",
"1000 0 LINE",
"1000 177 LINE",
"750 177 LINE",
"750 272.845 LINE",
"970 272.845 LINE",
"970 439.995 LINE",
"750 439.995 LINE",
"750 524.02 LINE"
);
},
{
closed = 1;
nodes = (
"241 445.567 OFFCURVE",
"289 507.275 OFFCURVE",
"380 507.275 CURVE SMOOTH",
"469 507.275 OFFCURVE",
"518 445.567 OFFCURVE",
"518 350.017 CURVE SMOOTH",
"518 254.468 OFFCURVE",
"469 192.76 OFFCURVE",
"380 192.76 CURVE SMOOTH",
"289 192.76 OFFCURVE",
"241 254.468 OFFCURVE",
"241 350.017 CURVE SMOOTH"
);
}
);
width = 1010;
},
{
hints = (
{
place = "{42, 117}";
type = Stem;
},
{
place = "{635, 114}";
type = Stem;
},
{
horizontal = 1;
place = "{-7, 103}";
type = Stem;
},
{
horizontal = 1;
place = "{0, 89}";
type = Stem;
},
{
horizontal = 1;
place = "{309, 88}";
type = Stem;
},
{
horizontal = 1;
place = "{604, 104}";
type = Stem;
},
{
horizontal = 1;
place = "{611, 89}";
type = Stem;
}
);
layerId = "0CF0EA28-C756-4A9E-9D7C-CFEF350B4CFE";
paths = (
{
closed = 1;
nodes = (
"1019.5 611.357 LINE",
"1019.5 700.328 LINE",
"635.5 700.328 LINE",
"635.5 592.698 LINE",
"577.566 669.157 OFFCURVE",
"492.565 708.393 OFFCURVE",
"387.5 708.393 CURVE SMOOTH",
"202.5 708.393 OFFCURVE",
"42.5 562.487 OFFCURVE",
"42.5 351.175 CURVE SMOOTH",
"42.5 140.869 OFFCURVE",
"201.5 -7.05 OFFCURVE",
"388.5 -7.05 CURVE SMOOTH",
"492.565 -7.05 OFFCURVE",
"577.567 32.185 OFFCURVE",
"635.5 111.464 CURVE",
"635.5 0 LINE",
"1019.5 0 LINE",
"1019.5 88.971 LINE",
"749.5 89.306 LINE",
"749.5 309.207 LINE",
"989.5 309.207 LINE",
"989.5 397.171 LINE",
"749.5 397.506 LINE",
"749.5 611.357 LINE"
);
},
{
closed = 1;
nodes = (
"159.5 505.479 OFFCURVE",
"259.5 604.314 OFFCURVE",
"397.5 604.314 CURVE SMOOTH",
"535.5 604.314 OFFCURVE",
"635.5 505.479 OFFCURVE",
"635.5 351.175 CURVE SMOOTH",
"635.5 196.873 OFFCURVE",
"535.5 96.022 OFFCURVE",
"397.5 96.022 CURVE SMOOTH",
"259.5 96.022 OFFCURVE",
"159.5 196.873 OFFCURVE",
"159.5 351.175 CURVE SMOOTH"
);
}
);
width = 1084.5;
},
{
hints = (
{
place = "{52, 21}";
type = Stem;
},
{
place = "{703, 21}";
type = Stem;
},
{
horizontal = 1;
place = "{706, -20}";
target = down;
type = TopGhost;
},
{
horizontal = 1;
place = "{-8, 21}";
target = up;
type = BottomGhost;
}
);
layerId = "0C5DB0F2-5B8B-4830-A1C2-9833713645D2";
paths = (
{
closed = 1;
nodes = (
"1048.5 682.155 LINE",
"1048.5 700.052 LINE",
"704.5 700.052 LINE",
"704.5 459.427 LINE",
"672.5 608.575 OFFCURVE",
"543.5 706.018 OFFCURVE",
"388.5 706.018 CURVE",
"192.5 706.018 OFFCURVE",
"52.5 558.859 OFFCURVE",
"52.5 349.057 CURVE",
"52.5 139.256 OFFCURVE",
"192.5 -7.903 OFFCURVE",
"388.5 -7.903 CURVE",
"543.5 -7.903 OFFCURVE",
"672.5 89.54 OFFCURVE",
"704.5 238.688 CURVE",
"704.5 0.051 LINE",
"1048.5 0.051 LINE",
"1048.5 17.949 LINE",
"724.5 17.949 LINE",
"724.5 341.103 LINE",
"1018.5 341.103 LINE",
"1018.5 359 LINE",
"724.5 359 LINE",
"724.5 682.154 LINE"
);
},
{
closed = 1;
nodes = (
"73.5 559.853 OFFCURVE",
"213.5 688.121 OFFCURVE",
"388.5 688.121 CURVE",
"563.5 688.121 OFFCURVE",
"703.5 559.853 OFFCURVE",
"703.5 349.057 CURVE",
"703.5 138.262 OFFCURVE",
"563.5 9.994 OFFCURVE",
"388.5 9.994 CURVE",
"213.5 9.994 OFFCURVE",
"73.5 138.262 OFFCURVE",
"73.5 349.057 CURVE"
);
}
);
width = 1133.5;
}
);
leftMetricsKey = O;
rightMetricsKey = E;
unicode = 0152;
},
{
glyphname = P;
lastChange = "2021-08-04 13:16:27 +0000";
layers = (
{
hints = (
{
horizontal = 1;
place = "{315, 21}";
type = Stem;
},
{
horizontal = 1;
place = "{679, 21}";
type = Stem;
},
{
horizontal = 1;
place = "{0, 21}";
target = up;
type = BottomGhost;
}
);
layerId = "34B89C21-4068-454A-BBBC-B9295C834BF9";
paths = (
{
closed = 1;
nodes = (
"142.131 336.131 LINE",
"210.366 679.172 LINE",
"398.366 679.172 LINE SMOOTH",
"549.366 679.172 OFFCURVE",
"590.547 614.728 OFFCURVE",
"569.051 506.66 CURVE SMOOTH",
"548.541 403.55 OFFCURVE",
"481.131 336.131 OFFCURVE",
"330.131 336.131 CURVE SMOOTH"
);
},
{
closed = 1;
nodes = (
"612.125 622.659 OFFCURVE",
"562.519 700.052 OFFCURVE",
"402.519 700.052 CURVE SMOOTH",
"194.519 700.052 LINE",
"55.28 0.051 LINE",
"75.28 0.051 LINE",
"137.977 315.251 LINE",
"325.977 315.251 LINE SMOOTH",
"471.977 315.251 OFFCURVE",
"563.414 377.772 OFFCURVE",
"589.051 506.66 CURVE SMOOTH"
);
}
);
width = 590.5;
},
{
hints = (
{
horizontal = 1;
place = "{607, 93}";
type = Stem;
},
{
horizontal = 1;
place = "{284, 93}";
type = Stem;
},
{
horizontal = 1;
place = "{0, 21}";
target = up;
type = BottomGhost;
}
);
layerId = "24A19461-EE5C-48C0-A968-CC082199DAC2";
paths = (
{
closed = 1;
nodes = (
"224.332 377.362 LINE",
"270.075 607.328 LINE",
"426.075 607.328 LINE SMOOTH",
"515.075 607.328 OFFCURVE",
"546.437 563.903 OFFCURVE",
"531.971 491.174 CURVE SMOOTH",
"517.905 420.464 OFFCURVE",
"469.227 376.837 OFFCURVE",
"380.265 377.028 CURVE SMOOTH"
);
},
{
closed = 1;
nodes = (
"671.573 604.804 OFFCURVE",
"609.574 700.328 OFFCURVE",
"444.574 700.328 CURVE SMOOTH",
"174.574 700.328 LINE",
"35.27 0 LINE",
"149.27 0 LINE",
"205.767 284.028 LINE",
"361.767 284.028 LINE SMOOTH",
"542.767 284.028 OFFCURVE",
"629.169 391.623 OFFCURVE",
"648.971 491.174 CURVE SMOOTH"
);
}
);
width = 643.5;
},
{
hints = (
{
horizontal = 1;
place = "{222, 175}";
type = Stem;
},
{
horizontal = 1;
place = "{522, 178}";
type = Stem;
},
{
horizontal = 1;
place = "{0, 21}";
target = up;
type = BottomGhost;
}
);
layerId = "C06476A3-BC65-42D9-AE82-BE67E4874885";
paths = (
{
closed = 1;
nodes = (
"281.17 396.655 LINE",
"306.112 522.05 LINE",
"399.112 522.05 LINE SMOOTH",
"449.112 522.05 OFFCURVE",
"463.124 496.971 OFFCURVE",
"455.641 459.352 CURVE SMOOTH",
"448.158 421.734 OFFCURVE",
"424.17 396.655 OFFCURVE",
"374.17 396.655 CURVE SMOOTH"
);
},
{
closed = 1;
nodes = (
"708.79 600.87 OFFCURVE",
"637.516 700.035 OFFCURVE",
"459.516 700.035 CURVE SMOOTH",
"119.516 700.035 LINE",
"-19.73 0 LINE",
"202.27 0 LINE",
"246.354 221.625 LINE",
"364.354 221.625 LINE SMOOTH",
"542.354 221.625 OFFCURVE",
"654.83 329.593 OFFCURVE",
"680.641 459.353 CURVE SMOOTH"
);
}
);
width = 654;
},
{
hints = (
{
place = "{30, 222}";
type = Stem;
},
{
place = "{414, 225}";
type = Stem;
},
{
horizontal = 1;
place = "{222, 175}";
type = Stem;
},
{
horizontal = 1;
place = "{522, 178}";
type = Stem;
},
{
horizontal = 1;
place = "{0, 21}";
target = up;
type = BottomGhost;
}
);
layerId = "F6DDAB16-9378-41C6-AF32-8CCAF9117681";
paths = (
{
closed = 1;
nodes = (
"252 396.655 LINE",
"252 522.05 LINE",
"345 522.05 LINE SMOOTH",
"395 522.05 OFFCURVE",
"414 496.971 OFFCURVE",
"414 459.352 CURVE SMOOTH",
"414 421.734 OFFCURVE",
"395 396.655 OFFCURVE",
"345 396.655 CURVE SMOOTH"
);
},
{
closed = 1;
nodes = (
"639 600.87 OFFCURVE",
"548 700.035 OFFCURVE",
"370 700.035 CURVE SMOOTH",
"30 700.035 LINE",
"30 0 LINE",
"252 0 LINE",
"252 221.625 LINE",
"370 221.625 LINE SMOOTH",
"548 221.625 OFFCURVE",
"639 329.593 OFFCURVE",
"639 459.353 CURVE SMOOTH"
);
}
);
width = 654;
},
{
hints = (
{
place = "{85, 114}";
type = Stem;
},
{
place = "{484, 117}";
type = Stem;
},
{
horizontal = 1;
place = "{284, 93}";
type = Stem;
},
{
horizontal = 1;
place = "{607, 93}";
type = Stem;
},
{
horizontal = 1;
place = "{0, 21}";
target = up;
type = BottomGhost;
}
);
layerId = "0CF0EA28-C756-4A9E-9D7C-CFEF350B4CFE";
paths = (
{
closed = 1;
nodes = (
"199 377.362 LINE",
"199 607.328 LINE",
"355 607.328 LINE SMOOTH",
"444 607.328 OFFCURVE",
"484 563.903 OFFCURVE",
"484 491.174 CURVE SMOOTH",
"484 420.464 OFFCURVE",
"444 376.837 OFFCURVE",
"355 377.028 CURVE SMOOTH"
);
},
{
closed = 1;
nodes = (
"601 604.804 OFFCURVE",
"520 700.328 OFFCURVE",
"355 700.328 CURVE SMOOTH",
"85 700.328 LINE",
"85 0 LINE",
"199 0 LINE",
"199 284.028 LINE",
"355 284.028 LINE SMOOTH",
"536 284.028 OFFCURVE",
"601 391.623 OFFCURVE",
"601 491.174 CURVE SMOOTH"
);
}
);
width = 643.5;
},
{
hints = (
{
place = "{105, 20}";
type = Stem;
},
{
place = "{518, 20}";
type = Stem;
},
{
horizontal = 1;
place = "{315, 21}";
type = Stem;
},
{
horizontal = 1;
place = "{679, 21}";
type = Stem;
},
{
horizontal = 1;
place = "{0, 21}";
target = up;
type = BottomGhost;
}
);
layerId = "0C5DB0F2-5B8B-4830-A1C2-9833713645D2";
paths = (
{
closed = 1;
nodes = (
"125 336.131 LINE",
"125 679.172 LINE",
"313 679.172 LINE",
"464 679.172 OFFCURVE",
"518 614.728 OFFCURVE",
"518 506.66 CURVE SMOOTH",
"518 403.55 OFFCURVE",
"464 336.131 OFFCURVE",
"313 336.131 CURVE SMOOTH"
);
},
{
closed = 1;
nodes = (
"538 622.659 OFFCURVE",
"473 700.052 OFFCURVE",
"313 700.052 CURVE SMOOTH",
"105 700.052 LINE",
"105 0.051 LINE",
"125 0.051 LINE",
"125 315.251 LINE",
"313 315.251 LINE SMOOTH",
"459 315.251 OFFCURVE",
"538 377.772 OFFCURVE",
"538 506.66 CURVE SMOOTH"
);
}
);
width = 590.5;
}
);
leftMetricsKey = H;
rightMetricsKey = "=H*0.5";
unicode = 0050;
},
{
glyphname = Thorn;
lastChange = "2021-08-04 13:16:27 +0000";
layers = (
{
hints = (
{
horizontal = 1;
place = "{158, 21}";
type = Stem;
},
{
horizontal = 1;
place = "{523, 20}";
type = Stem;
},
{
horizontal = 1;
place = "{700, -20}";
target = down;
type = TopGhost;
},
{
horizontal = 1;
place = "{0, 21}";
target = up;
type = BottomGhost;
}
);
layerId = "34B89C21-4068-454A-BBBC-B9295C834BF9";
paths = (
{
closed = 1;
nodes = (
"110.881 179.029 LINE",
"179.314 523.063 LINE",
"337.314 523.063 LINE SMOOTH",
"488.314 523.063 OFFCURVE",
"529.458 458.433 OFFCURVE",
"507.9 350.052 CURVE SMOOTH",
"487.33 246.642 OFFCURVE",
"419.881 179.029 OFFCURVE",
"268.881 179.029 CURVE SMOOTH"
);
},
{
closed = 1;
nodes = (
"551.04 466.387 OFFCURVE",
"501.27 542.95 OFFCURVE",
"341.27 542.95 CURVE SMOOTH",
"183.27 542.95 LINE",
"214.52 700.052 LINE",
"194.52 700.052 LINE",
"55.281 0.051 LINE",
"75.281 0.051 LINE",
"106.728 158.148 LINE",
"264.728 158.148 LINE SMOOTH",
"410.728 158.148 OFFCURVE",
"502.188 220.79 OFFCURVE",
"527.9 350.052 CURVE SMOOTH"
);
}
);
width = 560.5;
},
{
hints = (
{
horizontal = 1;
place = "{469, 231}";
type = Stem;
},
{
horizontal = 1;
place = "{469, 89}";
type = Stem;
},
{
horizontal = 1;
place = "{143, 89}";
type = Stem;
},
{
horizontal = 1;
place = "{0, 21}";
target = up;
type = BottomGhost;
}
);
layerId = "24A19461-EE5C-48C0-A968-CC082199DAC2";
paths = (
{
closed = 1;
nodes = (
"195.483 232.327 LINE",
"242.63 469.351 LINE",
"368.63 469.351 LINE SMOOTH",
"457.63 469.351 OFFCURVE",
"488.187 421.879 OFFCURVE",
"473.923 350.168 CURVE SMOOTH",
"459.859 279.464 OFFCURVE",
"410.369 231.756 OFFCURVE",
"321.416 231.992 CURVE SMOOTH"
);
},
{
closed = 1;
nodes = (
"613.525 463.798 OFFCURVE",
"551.36 558.489 OFFCURVE",
"386.36 558.489 CURVE SMOOTH",
"259.36 558.489 LINE",
"287.575 700.336 LINE",
"174.575 700.336 LINE",
"35.27 0 LINE",
"149.27 0 LINE",
"177.719 143.021 LINE",
"303.719 143.021 LINE SMOOTH",
"484.719 143.021 OFFCURVE",
"571.121 250.617 OFFCURVE",
"590.923 350.168 CURVE SMOOTH"
);
}
);
width = 613.5;
},
{
hints = (
{
horizontal = 1;
place = "{123, 165}";
type = Stem;
},
{
horizontal = 1;
place = "{414, 168}";
type = Stem;
},
{
horizontal = 1;
place = "{0, 21}";
target = up;
type = BottomGhost;
},
{
horizontal = 1;
place = "{700, -20}";
target = down;
type = TopGhost;
}
);
layerId = "C06476A3-BC65-42D9-AE82-BE67E4874885";
paths = (
{
closed = 1;
nodes = (
"259.617 288.305 LINE",
"284.56 413.7 LINE",
"347.56 413.7 LINE SMOOTH",
"397.56 413.7 OFFCURVE",
"411.572 388.621 OFFCURVE",
"404.089 351.003 CURVE SMOOTH",
"396.606 313.384 OFFCURVE",
"372.617 288.305 OFFCURVE",
"322.617 288.305 CURVE SMOOTH"
);
},
{
closed = 1;
nodes = (
"656.086 486.728 OFFCURVE",
"584.004 581.835 OFFCURVE",
"406.004 581.835 CURVE SMOOTH",
"316.004 581.835 LINE",
"339.516 700.035 LINE",
"119.516 700.035 LINE",
"-19.73 0 LINE",
"202.27 0 LINE",
"226.761 123.125 LINE",
"314.761 123.125 LINE SMOOTH",
"492.761 123.125 OFFCURVE",
"604.257 226.165 OFFCURVE",
"629.089 351.003 CURVE SMOOTH"
);
}
);
width = 624;
},
{
hints = (
{
place = "{30, 220}";
type = Stem;
},
{
place = "{384, 225}";
type = Stem;
},
{
place = "{30, 222}";
type = Stem;
},
{
horizontal = 1;
place = "{123, 165}";
type = Stem;
},
{
horizontal = 1;
place = "{414, 168}";
type = Stem;
},
{
horizontal = 1;
place = "{0, 21}";
target = up;
type = BottomGhost;
},
{
horizontal = 1;
place = "{700, -20}";
target = down;
type = TopGhost;
}
);
layerId = "F6DDAB16-9378-41C6-AF32-8CCAF9117681";
paths = (
{
closed = 1;
nodes = (
"252 288.305 LINE",
"252 413.7 LINE",
"315 413.7 LINE SMOOTH",
"365 413.7 OFFCURVE",
"384 388.621 OFFCURVE",
"384 351.003 CURVE SMOOTH",
"384 313.384 OFFCURVE",
"365 288.305 OFFCURVE",
"315 288.305 CURVE SMOOTH"
);
},
{
closed = 1;
nodes = (
"609 486.728 OFFCURVE",
"518 581.835 OFFCURVE",
"340 581.835 CURVE SMOOTH",
"250 581.835 LINE",
"250 700.035 LINE",
"30 700.035 LINE",
"30 0 LINE",
"252 0 LINE",
"252 123.125 LINE",
"340 123.125 LINE SMOOTH",
"518 123.125 OFFCURVE",
"609 226.165 OFFCURVE",
"609 351.003 CURVE SMOOTH"
);
}
);
width = 624;
},
{
hints = (
{
place = "{85, 114}";
type = Stem;
},
{
place = "{454, 117}";
type = Stem;
},
{
horizontal = 1;
place = "{143, 89}";
type = Stem;
},
{
horizontal = 1;
place = "{469, 89}";
type = Stem;
},
{
horizontal = 1;
place = "{0, 21}";
target = up;
type = BottomGhost;
},
{
horizontal = 1;
place = "{700, -20}";
target = down;
type = TopGhost;
}
);
layerId = "0CF0EA28-C756-4A9E-9D7C-CFEF350B4CFE";
paths = (
{
closed = 1;
nodes = (
"199 232.327 LINE",
"199 469.351 LINE",
"325 469.351 LINE SMOOTH",
"414 469.351 OFFCURVE",
"454 421.879 OFFCURVE",
"454 350.168 CURVE SMOOTH",
"454 279.464 OFFCURVE",
"414 231.756 OFFCURVE",
"325 231.992 CURVE SMOOTH"
);
},
{
closed = 1;
nodes = (
"571 463.798 OFFCURVE",
"490 558.489 OFFCURVE",
"325 558.489 CURVE SMOOTH",
"198 558.489 LINE",
"198 700.336 LINE",
"85 700.336 LINE",
"85 0 LINE",
"199 0 LINE",
"199 143.021 LINE",
"325 143.021 LINE SMOOTH",
"506 143.021 OFFCURVE",
"571 250.617 OFFCURVE",
"571 350.168 CURVE SMOOTH"
);
}
);
width = 613.5;
},
{
hints = (
{
place = "{105, 20}";
type = Stem;
},
{
place = "{488, 20}";
type = Stem;
},
{
horizontal = 1;
place = "{158, 21}";
type = Stem;
},
{
horizontal = 1;
place = "{523, 20}";
type = Stem;
},
{
horizontal = 1;
place = "{700, -20}";
target = down;
type = TopGhost;
},
{
horizontal = 1;
place = "{0, 21}";
target = up;
type = BottomGhost;
}
);
layerId = "0C5DB0F2-5B8B-4830-A1C2-9833713645D2";
paths = (
{
closed = 1;
nodes = (
"125 179.029 LINE",
"125 523.063 LINE",
"283 523.063 LINE SMOOTH",
"434 523.063 OFFCURVE",
"488 458.433 OFFCURVE",
"488 350.052 CURVE SMOOTH",
"488 246.642 OFFCURVE",
"434 179.029 OFFCURVE",
"283 179.029 CURVE SMOOTH"
);
},
{
closed = 1;
nodes = (
"508 466.387 OFFCURVE",
"443 542.95 OFFCURVE",
"283 542.95 CURVE SMOOTH",
"125 542.95 LINE",
"125 700.052 LINE",
"105 700.052 LINE",
"105 0.051 LINE",
"125 0.051 LINE",
"125 158.148 LINE",
"283 158.148 LINE SMOOTH",
"429 158.148 OFFCURVE",
"508 220.79 OFFCURVE",
"508 350.052 CURVE SMOOTH"
);
}
);
width = 560.5;
}
);
leftMetricsKey = H;
rightMetricsKey = D;
unicode = 00DE;
},
{
glyphname = Q;
lastChange = "2021-08-04 13:06:59 +0000";
layers = (
{
components = (
{
alignment = -1;
name = O;
}
);
hints = (
{
horizontal = 1;
place = "{-100, 21}";
target = up;
type = BottomGhost;
},
{
horizontal = 1;
place = "{100, -20}";
target = down;
type = TopGhost;
}
);
layerId = "34B89C21-4068-454A-BBBC-B9295C834BF9";
paths = (
{
closed = 1;
nodes = (
"365.914 -100.086 LINE",
"385.914 -100.086 LINE",
"425.752 100.193 LINE",
"405.752 100.193 LINE"
);
}
);
width = 777;
},
{
components = (
{
alignment = -1;
name = O;
}
);
hints = (
{
horizontal = 1;
place = "{-100, 21}";
target = up;
type = BottomGhost;
},
{
horizontal = 1;
place = "{200, -20}";
target = down;
type = TopGhost;
}
);
layerId = "24A19461-EE5C-48C0-A968-CC082199DAC2";
paths = (
{
closed = 1;
nodes = (
"363.143 -99.834 LINE",
"477.143 -99.834 LINE",
"536.741 199.784 LINE",
"422.741 199.784 LINE"
);
}
);
width = 795;
},
{
components = (
{
alignment = -1;
name = O;
}
);
hints = (
{
horizontal = 1;
place = "{-74, 21}";
target = up;
type = BottomGhost;
},
{
horizontal = 1;
place = "{266, -20}";
target = down;
type = TopGhost;
}
);
layerId = "C06476A3-BC65-42D9-AE82-BE67E4874885";
paths = (
{
closed = 1;
nodes = (
"308.274 -74.003 LINE",
"452.274 -74.003 LINE",
"519.835 265.65 LINE",
"375.835 265.65 LINE"
);
}
);
width = 758;
},
{
components = (
{
alignment = -1;
name = O;
}
);
hints = (
{
place = "{323, 144}";
type = Stem;
},
{
horizontal = 1;
place = "{-74, 21}";
target = up;
type = BottomGhost;
},
{
horizontal = 1;
place = "{266, -20}";
target = down;
type = TopGhost;
}
);
layerId = "F6DDAB16-9378-41C6-AF32-8CCAF9117681";
paths = (
{
closed = 1;
nodes = (
"322.994 -74.003 LINE",
"466.994 -74.003 LINE",
"466.994 265.65 LINE",
"322.994 265.65 LINE"
);
}
);
width = 758;
},
{
components = (
{
alignment = -1;
name = O;
}
);
hints = (
{
place = "{383, 114}";
type = Stem;
},
{
horizontal = 1;
place = "{-100, 21}";
target = up;
type = BottomGhost;
},
{
horizontal = 1;
place = "{200, -20}";
target = down;
type = TopGhost;
}
);
layerId = "0CF0EA28-C756-4A9E-9D7C-CFEF350B4CFE";
paths = (
{
closed = 1;
nodes = (
"383.001 -99.834 LINE",
"497.001 -99.834 LINE",
"497.001 199.784 LINE",
"383.001 199.784 LINE"
);
}
);
width = 795;
},
{
components = (
{
alignment = -1;
name = O;
}
);
hints = (
{
place = "{386, 20}";
type = Stem;
},
{
horizontal = 1;
place = "{-100, 21}";
target = up;
type = BottomGhost;
},
{
horizontal = 1;
place = "{100, -20}";
target = down;
type = TopGhost;
}
);
layerId = "0C5DB0F2-5B8B-4830-A1C2-9833713645D2";
paths = (
{
closed = 1;
nodes = (
"385.823 -100.086 LINE",
"405.823 -100.086 LINE",
"405.823 100.193 LINE",
"385.823 100.193 LINE"
);
}
);
width = 777;
}
);
leftMetricsKey = O;
rightMetricsKey = O;
unicode = 0051;
},
{
glyphname = R;
lastChange = "2021-08-04 12:11:20 +0000";
layers = (
{
anchors = (
{
name = bottom;
position = "{296.27, 0}";
},
{
name = top;
position = "{371.27, 679}";
}
);
hints = (
{
horizontal = 1;
place = "{680, 20}";
type = Stem;
},
{
horizontal = 1;
place = "{0, 21}";
target = up;
type = BottomGhost;
}
);
layerId = "34B89C21-4068-454A-BBBC-B9295C834BF9";
paths = (
{
closed = 1;
nodes = (
"548.994 400.754 OFFCURVE",
"471.763 324.193 OFFCURVE",
"327.763 324.193 CURVE SMOOTH",
"139.763 324.193 LINE",
"210.575 680.152 LINE",
"396.575 680.152 LINE SMOOTH",
"547.575 680.152 OFFCURVE",
"590.927 611.546 OFFCURVE",
"569.367 503.167 CURVE SMOOTH"
);
},
{
closed = 1;
nodes = (
"194.531 700.038 LINE",
"55.28 0.051 LINE",
"75.28 0.051 LINE",
"136.005 305.301 LINE",
"324.005 305.301 LINE SMOOTH",
"470.005 305.301 OFFCURVE",
"565.246 376.891 OFFCURVE",
"590.367 503.167 CURVE SMOOTH",
"613.51 619.5 OFFCURVE",
"560.531 700.038 OFFCURVE",
"400.531 700.038 CURVE SMOOTH"
);
},
{
closed = 1;
nodes = (
"339.587 313.256 LINE",
"470.28 0.051 LINE",
"495.28 0.051 LINE",
"363.587 313.256 LINE"
);
}
);
width = 597.495;
},
{
anchors = (
{
name = bottom;
position = "{306.28, 0}";
},
{
name = top;
position = "{405.28, 701}";
}
);
hints = (
{
horizontal = 1;
place = "{280, 91}";
type = Stem;
},
{
horizontal = 1;
place = "{607, 93}";
type = Stem;
},
{
horizontal = 1;
place = "{0, 21}";
target = up;
type = BottomGhost;
}
);
layerId = "24A19461-EE5C-48C0-A968-CC082199DAC2";
paths = (
{
closed = 1;
nodes = (
"517.913 420.476 OFFCURVE",
"468.031 370.794 OFFCURVE",
"379.069 370.984 CURVE SMOOTH",
"223.135 371.319 LINE",
"270.078 607.328 LINE",
"426.078 607.328 LINE SMOOTH",
"515.078 607.328 OFFCURVE",
"545.838 560.874 OFFCURVE",
"531.774 490.167 CURVE SMOOTH"
);
},
{
closed = 1;
nodes = (
"174.575 700.328 LINE",
"35.28 0 LINE",
"149.28 0 LINE",
"204.972 279.999 LINE",
"360.972 279.999 LINE SMOOTH",
"541.972 279.999 OFFCURVE",
"628.973 390.614 OFFCURVE",
"648.774 490.167 CURVE SMOOTH",
"671.375 603.798 OFFCURVE",
"609.575 700.328 OFFCURVE",
"444.575 700.328 CURVE SMOOTH"
);
},
{
closed = 1;
nodes = (
"308.537 316.596 LINE",
"426.184 0 LINE",
"561.98 0 LINE",
"437.348 316.596 LINE"
);
}
);
width = 654.205;
},
{
anchors = (
{
name = bottom;
position = "{285.28, 1}";
},
{
name = top;
position = "{405.28, 702}";
}
);
hints = (
{
horizontal = 1;
place = "{514, 186}";
type = Stem;
},
{
horizontal = 1;
place = "{0, 21}";
target = up;
type = BottomGhost;
}
);
layerId = "C06476A3-BC65-42D9-AE82-BE67E4874885";
paths = (
{
closed = 1;
nodes = (
"467.014 415.957 OFFCURVE",
"441.567 398.625 OFFCURVE",
"399.567 398.625 CURVE SMOOTH",
"281.567 398.625 LINE",
"304.548 514.17 LINE",
"422.548 514.17 LINE SMOOTH",
"464.548 514.17 OFFCURVE",
"481.952 491.061 OFFCURVE",
"475.057 456.397 CURVE SMOOTH"
);
},
{
closed = 1;
nodes = (
"119.517 700.035 LINE",
"-19.72 0 LINE",
"202.28 0 LINE",
"252.043 250.19 LINE",
"390.043 250.19 LINE SMOOTH",
"568.043 250.19 OFFCURVE",
"678.359 347.306 OFFCURVE",
"702.8 470.188 CURVE SMOOTH",
"728.336 598.571 OFFCURVE",
"657.517 700.035 OFFCURVE",
"479.517 700.035 CURVE SMOOTH"
);
},
{
closed = 1;
nodes = (
"268.566 293.23 LINE",
"366.659 0 LINE",
"611.427 0 LINE",
"500.216 293.23 LINE"
);
}
);
width = 676.155;
},
{
anchors = (
{
name = bottom;
position = "{335, 1}";
},
{
name = top;
position = "{335, 702}";
}
);
hints = (
{
place = "{30, 222}";
type = Stem;
},
{
place = "{434, 225}";
type = Stem;
},
{
horizontal = 1;
place = "{514, 186}";
type = Stem;
},
{
horizontal = 1;
place = "{0, 21}";
target = up;
type = BottomGhost;
}
);
layerId = "F6DDAB16-9378-41C6-AF32-8CCAF9117681";
paths = (
{
closed = 1;
nodes = (
"434 415.957 OFFCURVE",
"412 398.625 OFFCURVE",
"370 398.625 CURVE SMOOTH",
"252 398.625 LINE",
"252 514.17 LINE",
"370 514.17 LINE SMOOTH",
"412 514.17 OFFCURVE",
"434 491.061 OFFCURVE",
"434 456.397 CURVE SMOOTH"
);
},
{
closed = 1;
nodes = (
"30 700.035 LINE",
"30 0 LINE",
"252 0 LINE",
"252 250.19 LINE",
"390 250.19 LINE SMOOTH",
"568 250.19 OFFCURVE",
"659 347.306 OFFCURVE",
"659 470.188 CURVE SMOOTH",
"659 598.571 OFFCURVE",
"568 700.035 OFFCURVE",
"390 700.035 CURVE SMOOTH"
);
},
{
closed = 1;
nodes = (
"259.963 293.23 LINE",
"416.379 0 LINE",
"661.147 0 LINE",
"491.612 293.23 LINE"
);
}
);
width = 676.15;
},
{
anchors = (
{
name = bottom;
position = "{356, 0}";
},
{
name = top;
position = "{326, 701}";
}
);
hints = (
{
place = "{85, 114}";
type = Stem;
},
{
place = "{484, 117}";
type = Stem;
},
{
horizontal = 1;
place = "{280, 91}";
type = Stem;
},
{
horizontal = 1;
place = "{607, 93}";
type = Stem;
},
{
horizontal = 1;
place = "{0, 21}";
target = up;
type = BottomGhost;
}
);
layerId = "0CF0EA28-C756-4A9E-9D7C-CFEF350B4CFE";
paths = (
{
closed = 1;
nodes = (
"484 420.476 OFFCURVE",
"444 370.794 OFFCURVE",
"355 370.984 CURVE SMOOTH",
"199 371.319 LINE",
"199 607.328 LINE",
"355 607.328 LINE SMOOTH",
"444 607.328 OFFCURVE",
"484 560.874 OFFCURVE",
"484 490.167 CURVE SMOOTH"
);
},
{
closed = 1;
nodes = (
"85 700.328 LINE",
"85 0 LINE",
"199 0 LINE",
"199 279.999 LINE",
"355 279.999 LINE SMOOTH",
"536 279.999 OFFCURVE",
"601 390.614 OFFCURVE",
"601 490.167 CURVE SMOOTH",
"601 603.798 OFFCURVE",
"520 700.328 OFFCURVE",
"355 700.328 CURVE SMOOTH"
);
},
{
closed = 1;
nodes = (
"295.286 316.596 LINE",
"475.904 0 LINE",
"611.7 0 LINE",
"424.097 316.596 LINE"
);
}
);
width = 654.2;
},
{
anchors = (
{
name = bottom;
position = "{346, 0}";
},
{
name = top;
position = "{296, 679}";
}
);
hints = (
{
place = "{105, 20}";
type = Stem;
},
{
place = "{519, 21}";
type = Stem;
},
{
horizontal = 1;
place = "{680, 20}";
type = Stem;
},
{
horizontal = 1;
place = "{0, 21}";
target = up;
type = BottomGhost;
}
);
layerId = "0C5DB0F2-5B8B-4830-A1C2-9833713645D2";
paths = (
{
closed = 1;
nodes = (
"519 400.754 OFFCURVE",
"457 324.193 OFFCURVE",
"313 324.193 CURVE SMOOTH",
"125 324.193 LINE",
"125 680.152 LINE",
"311 680.152 LINE SMOOTH",
"462 680.152 OFFCURVE",
"519 611.546 OFFCURVE",
"519 503.167 CURVE SMOOTH"
);
},
{
closed = 1;
nodes = (
"105 700.038 LINE",
"105 0.051 LINE",
"125 0.051 LINE",
"125 305.301 LINE",
"313 305.301 LINE SMOOTH",
"459 305.301 OFFCURVE",
"540 376.891 OFFCURVE",
"540 503.167 CURVE SMOOTH",
"540 619.5 OFFCURVE",
"471 700.038 OFFCURVE",
"311 700.038 CURVE SMOOTH"
);
},
{
closed = 1;
nodes = (
"327 313.256 LINE",
"520 0.051 LINE",
"545 0.051 LINE",
"351 313.256 LINE"
);
}
);
width = 597.5;
}
);
leftMetricsKey = H;
rightMetricsKey = "=H/2";
unicode = 0052;
},
{
glyphname = Rcommaaccent;
lastChange = "2021-08-04 11:39:15 +0000";
layers = (
{
anchors = (
{
name = _bottom;
position = "{312, 0}";
}
);
components = (
{
alignment = -1;
name = R;
}
);
hints = (
{
horizontal = 1;
place = "{-59, -20}";
target = down;
type = TopGhost;
},
{
horizontal = 1;
place = "{-175, 21}";
target = up;
type = BottomGhost;
}
);
layerId = "34B89C21-4068-454A-BBBC-B9295C834BF9";
paths = (
{
closed = 1;
nodes = (
"275.341 -58.614 LINE",
"267.825 -96.398 LINE",
"298.825 -96.398 LINE",
"297.441 -103.358 LINE SMOOTH",
"290.914 -136.171 OFFCURVE",
"275.761 -157.051 OFFCURVE",
"243.761 -157.051 CURVE",
"240.2 -174.949 LINE",
"276.2 -174.949 OFFCURVE",
"308.167 -160.034 OFFCURVE",
"322.21 -89.438 CURVE SMOOTH",
"323.99 -80.489 OFFCURVE",
"325.561 -67.563 OFFCURVE",
"326.341 -58.614 CURVE"
);
}
);
width = 597.5;
},
{
anchors = (
{
name = _bottom;
position = "{356, 0}";
}
);
components = (
{
alignment = -1;
name = R;
}
);
hints = (
{
horizontal = 1;
place = "{-143, 96}";
type = Stem;
},
{
horizontal = 1;
place = "{-272, 21}";
target = up;
type = BottomGhost;
}
);
layerId = "24A19461-EE5C-48C0-A968-CC082199DAC2";
paths = (
{
closed = 1;
nodes = (
"292.651 -47 LINE",
"273.551 -143.022 LINE",
"325.485 -143.356 LINE",
"321.278 -164.507 LINE SMOOTH",
"313.62 -203.003 OFFCURVE",
"294.792 -222.251 OFFCURVE",
"261.792 -222.251 CURVE",
"251.907 -271.942 LINE",
"325.907 -271.942 OFFCURVE",
"372.299 -229.752 OFFCURVE",
"388.884 -146.377 CURVE SMOOTH",
"394.684 -117.219 OFFCURVE",
"397.293 -84.089 OFFCURVE",
"395.713 -47 CURVE"
);
}
);
width = 654.21;
},
{
anchors = (
{
name = _bottom;
position = "{360, 1}";
}
);
components = (
{
alignment = -1;
name = R;
}
);
hints = (
{
horizontal = 1;
place = "{-341, 79}";
type = Stem;
},
{
horizontal = 1;
place = "{-179, 147}";
type = Stem;
}
);
layerId = "C06476A3-BC65-42D9-AE82-BE67E4874885";
paths = (
{
closed = 1;
nodes = (
"273.671 -31.82 LINE",
"244.341 -179.27 LINE",
"316.341 -179.27 LINE",
"314.45 -188.777 LINE SMOOTH",
"304.444 -239.077 OFFCURVE",
"280.019 -261.325 OFFCURVE",
"245.019 -261.325 CURVE",
"229.209 -340.81 LINE",
"343.209 -340.81 OFFCURVE",
"410.003 -261.407 OFFCURVE",
"428.956 -166.122 CURVE SMOOTH",
"437.244 -124.455 OFFCURVE",
"438.242 -78.705 OFFCURVE",
"429.339 -31.82 CURVE"
);
}
);
width = 676.16;
},
{
anchors = (
{
name = _bottom;
position = "{360, 1}";
}
);
components = (
{
alignment = -1;
name = R;
}
);
hints = (
{
place = "{280, 182}";
type = Stem;
},
{
place = "{352, 110}";
type = Stem;
},
{
horizontal = 1;
place = "{-341, 79}";
type = Stem;
},
{
horizontal = 1;
place = "{-179, 147}";
type = Stem;
}
);
layerId = "F6DDAB16-9378-41C6-AF32-8CCAF9117681";
paths = (
{
closed = 1;
nodes = (
"280 -31.82 LINE",
"280 -179.27 LINE",
"352 -179.27 LINE",
"352 -188.777 LINE",
"352 -239.077 OFFCURVE",
"332 -261.325 OFFCURVE",
"297 -261.325 CURVE",
"297 -340.81 LINE",
"411 -340.81 OFFCURVE",
"462 -261.407 OFFCURVE",
"462 -166.122 CURVE SMOOTH",
"462 -124.455 OFFCURVE",
"453.898 -78.705 OFFCURVE",
"435.668 -31.82 CURVE"
);
}
);
width = 676.15;
},
{
anchors = (
{
name = _bottom;
position = "{356, 0}";
}
);
components = (
{
alignment = -1;
name = R;
}
);
hints = (
{
place = "{302, 116}";
type = Stem;
},
{
place = "{306, 112}";
type = Stem;
},
{
place = "{354, 64}";
type = Stem;
},
{
horizontal = 1;
place = "{-143, 96}";
type = Stem;
},
{
horizontal = 1;
place = "{-272, 21}";
target = up;
type = BottomGhost;
}
);
layerId = "0CF0EA28-C756-4A9E-9D7C-CFEF350B4CFE";
paths = (
{
closed = 1;
nodes = (
"302 -47 LINE",
"302 -143.022 LINE",
"354 -143.356 LINE",
"354 -164.507 LINE SMOOTH",
"354 -203.003 OFFCURVE",
"339 -222.251 OFFCURVE",
"306 -222.251 CURVE",
"306 -271.942 LINE",
"380 -271.942 OFFCURVE",
"418 -229.752 OFFCURVE",
"418 -146.377 CURVE SMOOTH",
"418 -117.219 OFFCURVE",
"414.019 -84.089 OFFCURVE",
"405.062 -47 CURVE"
);
}
);
width = 654.2;
},
{
anchors = (
{
name = _bottom;
position = "{312, 0}";
}
);
components = (
{
alignment = -1;
name = R;
}
);
hints = (
{
place = "{318, 22}";
type = Stem;
},
{
horizontal = 1;
place = "{-59, -20}";
target = down;
type = TopGhost;
},
{
horizontal = 1;
place = "{-175, 21}";
target = up;
type = BottomGhost;
}
);
layerId = "0C5DB0F2-5B8B-4830-A1C2-9833713645D2";
paths = (
{
closed = 1;
nodes = (
"287 -58.614 LINE",
"287 -96.398 LINE",
"318 -96.398 LINE",
"318 -103.358 LINE SMOOTH",
"318 -136.171 OFFCURVE",
"307 -157.051 OFFCURVE",
"275 -157.051 CURVE",
"275 -174.949 LINE",
"311 -174.949 OFFCURVE",
"340 -160.034 OFFCURVE",
"340 -89.438 CURVE SMOOTH",
"340 -80.489 OFFCURVE",
"339 -67.563 OFFCURVE",
"338 -58.614 CURVE"
);
}
);
width = 597.5;
}
);
leftMetricsKey = R;
rightMetricsKey = R;
unicode = 0156;
},
{
glyphname = S;
lastChange = "2021-08-04 13:16:46 +0000";
layers = (
{
anchors = (
{
name = bottom;
position = "{226.35, 0}";
},
{
name = top;
position = "{361.35, 679}";
}
);
hints = (
{
horizontal = 1;
place = "{-7, 21}";
target = up;
type = BottomGhost;
},
{
horizontal = 1;
place = "{707, -20}";
target = down;
type = TopGhost;
}
);
layerId = "34B89C21-4068-454A-BBBC-B9295C834BF9";
paths = (
{
closed = 1;
nodes = (
"40.954 139.175 LINE",
"48.894 60.969 OFFCURVE",
"108.864 -6.909 OFFCURVE",
"235.976 -6.909 CURVE SMOOTH",
"375.976 -6.909 OFFCURVE",
"462.173 84.567 OFFCURVE",
"478.986 169.082 CURVE SMOOTH",
"531.799 434.56 OFFCURVE",
"100.338 281.438 OFFCURVE",
"150.381 532.996 CURVE SMOOTH",
"169.568 629.443 OFFCURVE",
"267.436 689.101 OFFCURVE",
"368.436 689.101 CURVE SMOOTH",
"483.329 689.101 OFFCURVE",
"521.492 621.899 OFFCURVE",
"529.326 572.428 CURVE",
"548.884 578.999 LINE",
"539.167 641.602 OFFCURVE",
"491.683 706.998 OFFCURVE",
"371.996 706.998 CURVE SMOOTH",
"244.996 706.998 OFFCURVE",
"148.579 624.472 OFFCURVE",
"130.381 532.996 CURVE SMOOTH",
"76.777 263.541 OFFCURVE",
"508.238 416.663 OFFCURVE",
"458.986 169.082 CURVE SMOOTH",
"441.778 82.578 OFFCURVE",
"355.536 10.988 OFFCURVE",
"239.536 10.988 CURVE SMOOTH",
"104.227 10.988 OFFCURVE",
"67.833 88.433 OFFCURVE",
"61.351 146.023 CURVE"
);
}
);
width = 558.08;
},
{
anchors = (
{
name = bottom;
position = "{251.81, -7}";
},
{
name = top;
position = "{388.81, 709}";
}
);
hints = (
{
place = "{80, 122}";
type = Stem;
},
{
horizontal = 1;
place = "{-7, 97}";
type = Stem;
},
{
horizontal = 1;
place = "{611, 98}";
type = Stem;
}
);
layerId = "24A19461-EE5C-48C0-A968-CC082199DAC2";
paths = (
{
closed = 1;
nodes = (
"31.14 150.14 LINE",
"38.099 51.731 OFFCURVE",
"129.189 -7.385 OFFCURVE",
"251.341 -7.385 CURVE SMOOTH",
"406.341 -7.385 OFFCURVE",
"511.371 93.335 OFFCURVE",
"532.203 198.084 CURVE SMOOTH",
"583.079 453.913 OFFCURVE",
"195.449 355.207 OFFCURVE",
"226.896 513.338 CURVE SMOOTH",
"240.317 580.82 OFFCURVE",
"297.726 613.051 OFFCURVE",
"363.326 611.036 CURVE SMOOTH",
"429.914 609.163 OFFCURVE",
"470.371 571.572 OFFCURVE",
"474.57 528.24 CURVE",
"593.728 568.789 LINE",
"580.192 658.467 OFFCURVE",
"503.316 708.735 OFFCURVE",
"388.755 708.735 CURVE SMOOTH",
"246.755 708.735 OFFCURVE",
"134.532 632.187 OFFCURVE",
"110.095 509.309 CURVE SMOOTH",
"58.818 251.466 OFFCURVE",
"449.651 361.251 OFFCURVE",
"416.001 192.041 CURVE SMOOTH",
"404.183 132.616 OFFCURVE",
"350.57 89.307 OFFCURVE",
"270.57 89.307 CURVE SMOOTH",
"192.229 89.307 OFFCURVE",
"153.433 134.869 OFFCURVE",
"153.199 191.615 CURVE"
);
}
);
width = 593.53;
},
{
anchors = (
{
name = bottom;
position = "{255.74, 1}";
},
{
name = top;
position = "{395.74, 702}";
}
);
hints = (
{
place = "{56, 238}";
type = Stem;
},
{
horizontal = 1;
place = "{-6, 169}";
type = Stem;
},
{
horizontal = 1;
place = "{542, 168}";
type = Stem;
}
);
layerId = "C06476A3-BC65-42D9-AE82-BE67E4874885";
paths = (
{
closed = 1;
nodes = (
"5.701 188.189 LINE",
"12.223 53.933 OFFCURVE",
"122.267 -5.568 OFFCURVE",
"268.633 -5.568 CURVE SMOOTH",
"439.633 -5.568 OFFCURVE",
"554.854 75.993 OFFCURVE",
"580.321 204.043 CURVE SMOOTH",
"623.027 418.773 OFFCURVE",
"280.674 416.998 OFFCURVE",
"298.109 504.663 CURVE SMOOTH",
"302.811 528.303 OFFCURVE",
"329.559 543.289 OFFCURVE",
"353.559 542.123 CURVE SMOOTH",
"376.801 540.993 OFFCURVE",
"399.583 521.759 OFFCURVE",
"395.493 487.215 CURVE",
"627.153 525.812 LINE",
"624.525 647.743 OFFCURVE",
"539.633 710.528 OFFCURVE",
"385.052 710.528 CURVE SMOOTH",
"234.052 710.528 OFFCURVE",
"99.555 637.638 OFFCURVE",
"71.738 497.768 CURVE",
"20.33 259.398 OFFCURVE",
"369.585 295.878 OFFCURVE",
"350.778 201.313 CURVE SMOOTH",
"345.207 173.303 OFFCURVE",
"317.325 163.838 OFFCURVE",
"295.325 163.838 CURVE SMOOTH",
"274.088 163.838 OFFCURVE",
"244.901 175.775 OFFCURVE",
"243.3 227.999 CURVE"
);
}
);
width = 607.46;
},
{
anchors = (
{
name = bottom;
position = "{305.47, 1}";
},
{
name = top;
position = "{305.47, 702}";
}
);
hints = (
{
place = "{23, 225}";
type = Stem;
},
{
place = "{361, 229}";
type = Stem;
},
{
horizontal = 1;
place = "{-6, 169}";
type = Stem;
},
{
horizontal = 1;
place = "{542, 168}";
type = Stem;
}
);
layerId = "F6DDAB16-9378-41C6-AF32-8CCAF9117681";
paths = (
{
closed = 1;
nodes = (
"18.004 188.189 LINE",
"51.227 53.933 OFFCURVE",
"173.104 -5.568 OFFCURVE",
"319.47 -5.568 CURVE SMOOTH",
"490.47 -5.568 OFFCURVE",
"589.47 75.993 OFFCURVE",
"589.47 204.043 CURVE SMOOTH",
"589.47 418.773 OFFCURVE",
"247.47 416.998 OFFCURVE",
"247.47 504.663 CURVE SMOOTH",
"247.47 528.303 OFFCURVE",
"271.238 543.289 OFFCURVE",
"295.47 542.123 CURVE SMOOTH",
"318.936 540.993 OFFCURVE",
"345.544 521.759 OFFCURVE",
"348.324 487.215 CURVE",
"572.308 525.812 LINE",
"545.43 647.743 OFFCURVE",
"448.051 710.528 OFFCURVE",
"293.47 710.528 CURVE SMOOTH",
"142.47 710.528 OFFCURVE",
"22.47 637.638 OFFCURVE",
"22.47 497.768 CURVE",
"18.47 259.398 OFFCURVE",
"360.47 295.878 OFFCURVE",
"360.47 201.313 CURVE SMOOTH",
"360.47 173.303 OFFCURVE",
"334.47 163.838 OFFCURVE",
"312.47 163.838 CURVE SMOOTH",
"291.233 163.838 OFFCURVE",
"259.672 175.775 OFFCURVE",
"247.685 227.999 CURVE"
);
}
);
width = 607.47;
},
{
anchors = (
{
name = bottom;
position = "{302.53, -7}";
},
{
name = top;
position = "{297.53, 709}";
}
);
hints = (
{
place = "{59, 116}";
type = Stem;
},
{
place = "{428, 115}";
type = Stem;
},
{
horizontal = 1;
place = "{-7, 97}";
type = Stem;
},
{
horizontal = 1;
place = "{611, 98}";
type = Stem;
}
);
layerId = "0CF0EA28-C756-4A9E-9D7C-CFEF350B4CFE";
paths = (
{
closed = 1;
nodes = (
"51.002 150.14 LINE",
"77.532 51.731 OFFCURVE",
"180.377 -7.385 OFFCURVE",
"302.53 -7.385 CURVE SMOOTH",
"457.53 -7.385 OFFCURVE",
"542.53 93.335 OFFCURVE",
"542.53 198.084 CURVE SMOOTH",
"542.53 453.913 OFFCURVE",
"174.53 355.207 OFFCURVE",
"174.53 513.338 CURVE SMOOTH",
"174.53 580.82 OFFCURVE",
"225.53 613.051 OFFCURVE",
"291.53 611.036 CURVE SMOOTH",
"358.491 609.163 OFFCURVE",
"406.424 571.572 OFFCURVE",
"419.24 528.24 CURVE",
"530.334 568.789 LINE",
"498.964 658.467 OFFCURVE",
"412.092 708.735 OFFCURVE",
"297.53 708.735 CURVE SMOOTH",
"155.53 708.735 OFFCURVE",
"58.53 632.187 OFFCURVE",
"58.53 509.309 CURVE SMOOTH",
"58.53 251.466 OFFCURVE",
"427.53 361.251 OFFCURVE",
"427.53 192.041 CURVE SMOOTH",
"427.53 132.616 OFFCURVE",
"382.53 89.307 OFFCURVE",
"302.53 89.307 CURVE SMOOTH",
"224.188 89.307 OFFCURVE",
"176.332 134.869 OFFCURVE",
"164.813 191.615 CURVE"
);
}
);
width = 593.53;
},
{
anchors = (
{
name = bottom;
position = "{276.08, 0}";
},
{
name = top;
position = "{276.08, 679}";
}
);
hints = (
{
place = "{75, 20}";
type = Stem;
},
{
place = "{476, 20}";
type = Stem;
},
{
horizontal = 1;
place = "{-7, 21}";
target = up;
type = BottomGhost;
},
{
horizontal = 1;
place = "{707, -20}";
target = down;
type = TopGhost;
}
);
layerId = "0C5DB0F2-5B8B-4830-A1C2-9833713645D2";
paths = (
{
closed = 1;
nodes = (
"62.997 139.175 LINE",
"86.495 60.969 OFFCURVE",
"159.968 -6.909 OFFCURVE",
"287.08 -6.909 CURVE SMOOTH",
"427.08 -6.909 OFFCURVE",
"495.08 84.567 OFFCURVE",
"495.08 169.082 CURVE SMOOTH",
"495.08 434.56 OFFCURVE",
"94.08 281.438 OFFCURVE",
"94.08 532.996 CURVE SMOOTH",
"94.08 629.443 OFFCURVE",
"180.08 689.101 OFFCURVE",
"281.08 689.101 CURVE SMOOTH",
"395.974 689.101 OFFCURVE",
"447.505 621.899 OFFCURVE",
"465.181 572.428 CURVE",
"483.432 578.999 LINE",
"461.26 641.602 OFFCURVE",
"400.767 706.998 OFFCURVE",
"281.08 706.998 CURVE SMOOTH",
"154.08 706.998 OFFCURVE",
"74.08 624.472 OFFCURVE",
"74.08 532.996 CURVE SMOOTH",
"74.08 263.541 OFFCURVE",
"475.08 416.663 OFFCURVE",
"475.08 169.082 CURVE SMOOTH",
"475.08 82.578 OFFCURVE",
"403.08 10.988 OFFCURVE",
"287.08 10.988 CURVE SMOOTH",
"151.771 10.988 OFFCURVE",
"99.971 88.433 OFFCURVE",
"82.032 146.023 CURVE"
);
}
);
width = 558.08;
}
);
leftMetricsKey = "=H*0.6";
rightMetricsKey = "=H*0.6";
unicode = 0053;
},
{
glyphname = Scommaaccent;
lastChange = "2021-08-04 13:16:53 +0000";
layers = (
{
anchors = (
{
name = _bottom;
position = "{290, -7}";
}
);
components = (
{
alignment = -1;
name = S;
}
);
hints = (
{
horizontal = 1;
place = "{-59, -20}";
target = down;
type = TopGhost;
},
{
horizontal = 1;
place = "{-175, 21}";
target = up;
type = BottomGhost;
}
);
layerId = "34B89C21-4068-454A-BBBC-B9295C834BF9";
paths = (
{
closed = 1;
nodes = (
"255.341 -58.614 LINE",
"247.825 -96.398 LINE",
"278.825 -96.398 LINE",
"277.441 -103.358 LINE SMOOTH",
"270.914 -136.171 OFFCURVE",
"255.761 -157.051 OFFCURVE",
"223.761 -157.051 CURVE",
"220.2 -174.949 LINE",
"256.2 -174.949 OFFCURVE",
"288.167 -160.034 OFFCURVE",
"302.21 -89.438 CURVE SMOOTH",
"303.99 -80.489 OFFCURVE",
"305.561 -67.563 OFFCURVE",
"306.341 -58.614 CURVE"
);
}
);
width = 558;
},
{
anchors = (
{
name = _bottom;
position = "{295.11, 0}";
}
);
components = (
{
alignment = -1;
name = S;
transform = "{1, 0, 0, 1, -0.001, 0}";
}
);
hints = (
{
horizontal = 1;
place = "{-143, 96}";
type = Stem;
},
{
horizontal = 1;
place = "{-272, 21}";
target = up;
type = BottomGhost;
}
);
layerId = "24A19461-EE5C-48C0-A968-CC082199DAC2";
paths = (
{
closed = 1;
nodes = (
"230.761 -47 LINE",
"211.661 -143.022 LINE",
"264.595 -143.356 LINE",
"260.388 -164.507 LINE SMOOTH",
"252.73 -203.003 OFFCURVE",
"233.902 -222.251 OFFCURVE",
"199.902 -222.251 CURVE",
"190.017 -271.942 LINE",
"265.017 -271.942 OFFCURVE",
"311.409 -229.752 OFFCURVE",
"327.994 -146.377 CURVE SMOOTH",
"333.793 -117.223 OFFCURVE",
"336.402 -84.089 OFFCURVE",
"333.827 -47 CURVE"
);
}
);
width = 593.11;
},
{
anchors = (
{
name = _bottom;
position = "{343, 1}";
}
);
components = (
{
alignment = -1;
name = S;
}
);
hints = (
{
horizontal = 1;
place = "{-341, 79}";
type = Stem;
},
{
horizontal = 1;
place = "{-179, 147}";
type = Stem;
}
);
layerId = "C06476A3-BC65-42D9-AE82-BE67E4874885";
paths = (
{
closed = 1;
nodes = (
"256.671 -31.82 LINE",
"227.341 -179.27 LINE",
"299.341 -179.27 LINE",
"297.45 -188.777 LINE SMOOTH",
"287.445 -239.077 OFFCURVE",
"263.019 -261.325 OFFCURVE",
"228.019 -261.325 CURVE",
"212.209 -340.81 LINE",
"326.209 -340.81 OFFCURVE",
"393.003 -261.407 OFFCURVE",
"411.956 -166.122 CURVE SMOOTH",
"420.244 -124.455 OFFCURVE",
"421.242 -78.705 OFFCURVE",
"412.339 -31.82 CURVE"
);
}
);
width = 607;
},
{
anchors = (
{
name = _bottom;
position = "{343, 1}";
}
);
components = (
{
alignment = -1;
name = S;
}
);
hints = (
{
place = "{263, 182}";
type = Stem;
},
{
place = "{335, 110}";
type = Stem;
},
{
horizontal = 1;
place = "{-341, 79}";
type = Stem;
},
{
horizontal = 1;
place = "{-179, 147}";
type = Stem;
}
);
layerId = "F6DDAB16-9378-41C6-AF32-8CCAF9117681";
paths = (
{
closed = 1;
nodes = (
"263 -31.82 LINE",
"263 -179.27 LINE",
"335 -179.27 LINE",
"335 -188.777 LINE",
"335 -239.077 OFFCURVE",
"315 -261.325 OFFCURVE",
"280 -261.325 CURVE",
"280 -340.81 LINE",
"394 -340.81 OFFCURVE",
"445 -261.407 OFFCURVE",
"445 -166.122 CURVE SMOOTH",
"445 -124.455 OFFCURVE",
"436.898 -78.705 OFFCURVE",
"418.668 -31.82 CURVE"
);
}
);
width = 607.47;
},
{
anchors = (
{
name = _bottom;
position = "{295.11, 0}";
}
);
components = (
{
alignment = -1;
name = S;
}
);
hints = (
{
place = "{240, 117}";
type = Stem;
},
{
place = "{244, 113}";
type = Stem;
},
{
place = "{293, 64}";
type = Stem;
},
{
horizontal = 1;
place = "{-143, 96}";
type = Stem;
},
{
horizontal = 1;
place = "{-272, 21}";
target = up;
type = BottomGhost;
}
);
layerId = "0CF0EA28-C756-4A9E-9D7C-CFEF350B4CFE";
paths = (
{
closed = 1;
nodes = (
"240.11 -47 LINE",
"240.11 -143.022 LINE",
"293.11 -143.356 LINE",
"293.11 -164.507 LINE SMOOTH",
"293.11 -203.003 OFFCURVE",
"278.11 -222.251 OFFCURVE",
"244.11 -222.251 CURVE",
"244.11 -271.942 LINE",
"319.11 -271.942 OFFCURVE",
"357.11 -229.752 OFFCURVE",
"357.11 -146.377 CURVE SMOOTH",
"357.11 -117.223 OFFCURVE",
"353.129 -84.089 OFFCURVE",
"343.176 -47 CURVE"
);
}
);
width = 593.53;
},
{
anchors = (
{
name = _bottom;
position = "{291, -7}";
}
);
components = (
{
alignment = -1;
name = S;
}
);
hints = (
{
place = "{298, 22}";
type = Stem;
},
{
horizontal = 1;
place = "{-59, -20}";
target = down;
type = TopGhost;
},
{
horizontal = 1;
place = "{-175, 21}";
target = up;
type = BottomGhost;
}
);
layerId = "0C5DB0F2-5B8B-4830-A1C2-9833713645D2";
paths = (
{
closed = 1;
nodes = (
"267 -58.614 LINE",
"267 -96.398 LINE",
"298 -96.398 LINE",
"298 -103.358 LINE SMOOTH",
"298 -136.171 OFFCURVE",
"287 -157.051 OFFCURVE",
"255 -157.051 CURVE",
"255 -174.949 LINE",
"291 -174.949 OFFCURVE",
"320 -160.034 OFFCURVE",
"320 -89.438 CURVE SMOOTH",
"320 -80.489 OFFCURVE",
"319 -67.563 OFFCURVE",
"318 -58.614 CURVE"
);
}
);
width = 558.08;
}
);
leftMetricsKey = S;
rightMetricsKey = S;
unicode = 0218;
},
{
glyphname = T;
lastChange = "2021-08-04 11:39:15 +0000";
layers = (
{
anchors = (
{
name = bottom;
position = "{245.755, 0}";
},
{
name = top;
position = "{383.755, 679}";
}
);
hints = (
{
horizontal = 1;
place = "{700, -20}";
target = down;
type = TopGhost;
},
{
horizontal = 1;
place = "{0, 21}";
target = up;
type = BottomGhost;
}
);
layerId = "34B89C21-4068-454A-BBBC-B9295C834BF9";
paths = (
{
closed = 1;
nodes = (
"138.456 682.141 LINE",
"373.456 682.141 LINE",
"237.765 0.051 LINE",
"257.765 0.051 LINE",
"393.456 682.141 LINE",
"628.456 682.141 LINE",
"632.016 700.038 LINE",
"142.016 700.038 LINE"
);
}
);
width = 595;
},
{
anchors = (
{
name = bottom;
position = "{263.785, 0}";
},
{
name = top;
position = "{404.785, 701}";
}
);
hints = (
{
horizontal = 1;
place = "{607, 93}";
type = Stem;
},
{
horizontal = 1;
place = "{0, 21}";
target = up;
type = BottomGhost;
}
);
layerId = "24A19461-EE5C-48C0-A968-CC082199DAC2";
paths = (
{
closed = 1;
nodes = (
"113.583 607.328 LINE",
"329.516 606.994 LINE",
"208.785 0 LINE",
"322.785 0 LINE",
"443.583 607.328 LINE",
"658.583 607.328 LINE",
"677.08 700.328 LINE",
"132.08 700.328 LINE"
);
}
);
width = 630.01;
},
{
anchors = (
{
name = bottom;
position = "{288.285, 1}";
},
{
name = top;
position = "{428.285, 702}";
}
);
hints = (
{
horizontal = 1;
place = "{524, 176}";
type = Stem;
},
{
horizontal = 1;
place = "{0, 21}";
target = up;
type = BottomGhost;
}
);
layerId = "C06476A3-BC65-42D9-AE82-BE67E4874885";
paths = (
{
closed = 1;
nodes = (
"69.513 524.02 LINE",
"285.513 524.02 LINE",
"181.285 0 LINE",
"403.285 0 LINE",
"507.513 524.02 LINE",
"725.513 524.02 LINE",
"760.522 700.035 LINE",
"104.522 700.035 LINE"
);
}
);
width = 686.01;
},
{
anchors = (
{
name = bottom;
position = "{338, 1}";
},
{
name = top;
position = "{338, 702}";
}
);
hints = (
{
place = "{231, 222}";
type = Stem;
},
{
horizontal = 1;
place = "{524, 176}";
type = Stem;
},
{
horizontal = 1;
place = "{0, 21}";
target = up;
type = BottomGhost;
}
);
layerId = "F6DDAB16-9378-41C6-AF32-8CCAF9117681";
paths = (
{
closed = 1;
nodes = (
"15 524.02 LINE",
"231 524.02 LINE",
"231 0 LINE",
"453 0 LINE",
"453 524.02 LINE",
"671 524.02 LINE",
"671 700.035 LINE",
"15 700.035 LINE"
);
}
);
width = 686;
},
{
anchors = (
{
name = bottom;
position = "{313.5, 0}";
},
{
name = top;
position = "{315.5, 701}";
}
);
hints = (
{
place = "{258, 114}";
type = Stem;
},
{
horizontal = 1;
place = "{607, 93}";
type = Stem;
},
{
horizontal = 1;
place = "{0, 21}";
target = up;
type = BottomGhost;
}
);
layerId = "0CF0EA28-C756-4A9E-9D7C-CFEF350B4CFE";
paths = (
{
closed = 1;
nodes = (
"42.5 607.328 LINE",
"258.5 606.994 LINE",
"258.5 0 LINE",
"372.5 0 LINE",
"372.5 607.328 LINE",
"587.5 607.328 LINE",
"587.5 700.328 LINE",
"42.5 700.328 LINE"
);
}
);
width = 630;
},
{
anchors = (
{
name = bottom;
position = "{295.5, 0}";
},
{
name = top;
position = "{298.5, 679}";
}
);
hints = (
{
place = "{287, 20}";
type = Stem;
},
{
horizontal = 1;
place = "{700, -20}";
target = down;
type = TopGhost;
},
{
horizontal = 1;
place = "{0, 21}";
target = up;
type = BottomGhost;
}
);
layerId = "0C5DB0F2-5B8B-4830-A1C2-9833713645D2";
paths = (
{
closed = 1;
nodes = (
"52.5 682.141 LINE",
"287.5 682.141 LINE",
"287.5 0.051 LINE",
"307.5 0.051 LINE",
"307.5 682.141 LINE",
"542.5 682.141 LINE",
"542.5 700.038 LINE",
"52.5 700.038 LINE"
);
}
);
width = 595;
}
);
leftMetricsKey = "=H/2";
rightMetricsKey = "=H/2";
unicode = 0054;
},
{
glyphname = Tcommaaccent;
lastChange = "2021-08-04 11:39:15 +0000";
layers = (
{
components = (
{
alignment = -1;
name = T;
}
);
hints = (
{
horizontal = 1;
place = "{-59, -20}";
target = down;
type = TopGhost;
},
{
horizontal = 1;
place = "{-175, 21}";
target = up;
type = BottomGhost;
}
);
layerId = "34B89C21-4068-454A-BBBC-B9295C834BF9";
paths = (
{
closed = 1;
nodes = (
"264.841 -58.614 LINE",
"257.325 -96.398 LINE",
"288.325 -96.398 LINE",
"286.941 -103.358 LINE SMOOTH",
"280.414 -136.171 OFFCURVE",
"265.261 -157.051 OFFCURVE",
"233.261 -157.051 CURVE",
"229.7 -174.949 LINE",
"265.7 -174.949 OFFCURVE",
"297.667 -160.034 OFFCURVE",
"311.71 -89.438 CURVE SMOOTH",
"313.49 -80.489 OFFCURVE",
"315.061 -67.563 OFFCURVE",
"315.841 -58.614 CURVE"
);
}
);
width = 595;
},
{
components = (
{
alignment = -1;
name = T;
}
);
hints = (
{
horizontal = 1;
place = "{-143, 96}";
type = Stem;
},
{
horizontal = 1;
place = "{-272, 21}";
target = up;
type = BottomGhost;
}
);
layerId = "24A19461-EE5C-48C0-A968-CC082199DAC2";
paths = (
{
closed = 1;
nodes = (
"254.651 -47 LINE",
"235.551 -143.022 LINE",
"288.485 -143.356 LINE",
"284.278 -164.507 LINE SMOOTH",
"276.62 -203.003 OFFCURVE",
"256.792 -222.251 OFFCURVE",
"223.792 -222.251 CURVE",
"213.907 -271.942 LINE",
"287.907 -271.942 OFFCURVE",
"334.299 -229.752 OFFCURVE",
"350.884 -146.377 CURVE SMOOTH",
"356.684 -117.219 OFFCURVE",
"359.293 -84.089 OFFCURVE",
"357.713 -47 CURVE"
);
}
);
width = 630;
},
{
components = (
{
alignment = -1;
name = T;
}
);
hints = (
{
horizontal = 1;
place = "{-179, 147}";
type = Stem;
},
{
horizontal = 1;
place = "{-341, 21}";
target = up;
type = BottomGhost;
}
);
layerId = "C06476A3-BC65-42D9-AE82-BE67E4874885";
paths = (
{
closed = 1;
nodes = (
"252.671 -31.82 LINE",
"223.341 -179.27 LINE",
"295.341 -179.27 LINE",
"293.45 -188.777 LINE SMOOTH",
"283.444 -239.077 OFFCURVE",
"258.019 -261.325 OFFCURVE",
"224.019 -261.325 CURVE",
"208.209 -340.81 LINE",
"321.209 -340.81 OFFCURVE",
"388.003 -261.407 OFFCURVE",
"406.956 -166.122 CURVE SMOOTH",
"415.242 -124.466 OFFCURVE",
"417.247 -78.729 OFFCURVE",
"408.339 -31.82 CURVE"
);
}
);
width = 686;
},
{
components = (
{
alignment = -1;
name = T;
}
);
hints = (
{
place = "{259, 181}";
type = Stem;
},
{
place = "{331, 109}";
type = Stem;
},
{
horizontal = 1;
place = "{-179, 147}";
type = Stem;
},
{
horizontal = 1;
place = "{-341, 21}";
target = up;
type = BottomGhost;
}
);
layerId = "F6DDAB16-9378-41C6-AF32-8CCAF9117681";
paths = (
{
closed = 1;
nodes = (
"259 -31.82 LINE",
"259 -179.27 LINE",
"331 -179.27 LINE",
"331 -188.777 LINE",
"331 -239.077 OFFCURVE",
"310 -261.325 OFFCURVE",
"276 -261.325 CURVE",
"276 -340.81 LINE",
"389 -340.81 OFFCURVE",
"440 -261.407 OFFCURVE",
"440 -166.122 CURVE SMOOTH",
"440 -124.466 OFFCURVE",
"432.907 -78.729 OFFCURVE",
"414.668 -31.82 CURVE"
);
}
);
width = 686;
},
{
components = (
{
alignment = -1;
name = T;
}
);
hints = (
{
place = "{264, 116}";
type = Stem;
},
{
place = "{268, 112}";
type = Stem;
},
{
place = "{317, 63}";
type = Stem;
},
{
horizontal = 1;
place = "{-143, 96}";
type = Stem;
},
{
horizontal = 1;
place = "{-272, 21}";
target = up;
type = BottomGhost;
}
);
layerId = "0CF0EA28-C756-4A9E-9D7C-CFEF350B4CFE";
paths = (
{
closed = 1;
nodes = (
"264 -47 LINE",
"264 -143.022 LINE",
"317 -143.356 LINE",
"317 -164.507 LINE SMOOTH",
"317 -203.003 OFFCURVE",
"301 -222.251 OFFCURVE",
"268 -222.251 CURVE",
"268 -271.942 LINE",
"342 -271.942 OFFCURVE",
"380 -229.752 OFFCURVE",
"380 -146.377 CURVE SMOOTH",
"380 -117.219 OFFCURVE",
"376.019 -84.089 OFFCURVE",
"367.062 -47 CURVE"
);
}
);
width = 630;
},
{
components = (
{
alignment = -1;
name = T;
}
);
hints = (
{
place = "{308, 22}";
type = Stem;
},
{
horizontal = 1;
place = "{-59, -20}";
target = down;
type = TopGhost;
},
{
horizontal = 1;
place = "{-175, 21}";
target = up;
type = BottomGhost;
}
);
layerId = "0C5DB0F2-5B8B-4830-A1C2-9833713645D2";
paths = (
{
closed = 1;
nodes = (
"276.5 -58.614 LINE",
"276.5 -96.398 LINE",
"307.5 -96.398 LINE",
"307.5 -103.358 LINE SMOOTH",
"307.5 -136.171 OFFCURVE",
"296.5 -157.051 OFFCURVE",
"264.5 -157.051 CURVE",
"264.5 -174.949 LINE",
"300.5 -174.949 OFFCURVE",
"329.5 -160.034 OFFCURVE",
"329.5 -89.438 CURVE SMOOTH",
"329.5 -80.489 OFFCURVE",
"328.5 -67.563 OFFCURVE",
"327.5 -58.614 CURVE"
);
}
);
width = 595;
}
);
leftMetricsKey = T;
rightMetricsKey = T;
unicode = 021A;
},
{
glyphname = U;
lastChange = "2021-08-04 13:17:10 +0000";
layers = (
{
anchors = (
{
name = ogonek;
position = "{358.02, 0}";
},
{
name = top;
position = "{429.02, 679}";
}
);
hints = (
{
horizontal = 1;
place = "{-7, 21}";
target = up;
type = BottomGhost;
},
{
horizontal = 1;
place = "{700, -20}";
target = down;
type = TopGhost;
}
);
layerId = "34B89C21-4068-454A-BBBC-B9295C834BF9";
paths = (
{
closed = 1;
nodes = (
"102.843 265.529 LINE SMOOTH",
"64.47 72.635 OFFCURVE",
"157.646 -6.909 OFFCURVE",
"295.646 -6.909 CURVE SMOOTH",
"433.646 -6.909 OFFCURVE",
"553.47 72.635 OFFCURVE",
"591.843 265.529 CURVE SMOOTH",
"678.281 700.038 LINE",
"658.281 700.038 LINE",
"571.843 265.529 LINE SMOOTH",
"534.656 78.601 OFFCURVE",
"421.206 10.988 OFFCURVE",
"299.206 10.988 CURVE SMOOTH",
"175.206 10.988 OFFCURVE",
"85.656 78.601 OFFCURVE",
"122.843 265.529 CURVE SMOOTH",
"209.281 700.038 LINE",
"189.281 700.038 LINE"
);
}
);
width = 688.51;
},
{
anchors = (
{
name = ogonek;
position = "{385.03, 0}";
},
{
name = top;
position = "{451.03, 701}";
}
);
hints = (
{
horizontal = 1;
place = "{-7, 100}";
type = Stem;
},
{
horizontal = 1;
place = "{700, -20}";
target = down;
type = TopGhost;
}
);
layerId = "24A19461-EE5C-48C0-A968-CC082199DAC2";
paths = (
{
closed = 1;
nodes = (
"81.847 255.492 LINE SMOOTH",
"46.434 77.446 OFFCURVE",
"163.628 -7.05 OFFCURVE",
"309.628 -7.05 CURVE SMOOTH",
"454.628 -7.05 OFFCURVE",
"609.434 77.446 OFFCURVE",
"644.847 255.492 CURVE SMOOTH",
"733.325 700.328 LINE",
"619.325 700.328 LINE",
"530.447 253.478 LINE SMOOTH",
"508.766 144.474 OFFCURVE",
"427.528 93 OFFCURVE",
"330.528 93 CURVE SMOOTH",
"234.528 93 OFFCURVE",
"173.766 144.474 OFFCURVE",
"195.447 253.478 CURVE SMOOTH",
"284.325 700.328 LINE",
"170.325 700.328 LINE"
);
}
);
width = 724.5;
},
{
anchors = (
{
name = ogonek;
position = "{392.78, 4}";
},
{
name = top;
position = "{442.78, 702}";
}
);
hints = (
{
horizontal = 1;
place = "{-7, 210}";
type = Stem;
},
{
horizontal = 1;
place = "{700, -20}";
target = down;
type = TopGhost;
}
);
layerId = "C06476A3-BC65-42D9-AE82-BE67E4874885";
paths = (
{
closed = 1;
nodes = (
"39.582 305.693 LINE SMOOTH",
"-1.539 98.95 OFFCURVE",
"117.409 -6.895 OFFCURVE",
"294.409 -6.895 CURVE SMOOTH",
"471.409 -6.895 OFFCURVE",
"645.461 98.95 OFFCURVE",
"686.582 305.693 CURVE SMOOTH",
"765.017 700.035 LINE",
"544.017 700.035 LINE",
"465.582 305.693 LINE SMOOTH",
"453.783 246.371 OFFCURVE",
"408.079 202.61 OFFCURVE",
"341.079 202.61 CURVE SMOOTH",
"274.079 202.61 OFFCURVE",
"248.783 246.371 OFFCURVE",
"260.582 305.693 CURVE SMOOTH",
"339.017 700.035 LINE",
"118.017 700.035 LINE"
);
}
);
width = 704;
},
{
anchors = (
{
name = ogonek;
position = "{441.5, 4}";
},
{
name = top;
position = "{352.5, 702}";
}
);
hints = (
{
place = "{28, 221}";
type = Stem;
},
{
place = "{454, 221}";
type = Stem;
},
{
horizontal = 1;
place = "{-7, 210}";
type = Stem;
},
{
horizontal = 1;
place = "{700, -20}";
target = down;
type = TopGhost;
}
);
layerId = "F6DDAB16-9378-41C6-AF32-8CCAF9117681";
paths = (
{
closed = 1;
nodes = (
"28.5 305.693 LINE SMOOTH",
"28.5 98.95 OFFCURVE",
"168.5 -6.895 OFFCURVE",
"345.5 -6.895 CURVE SMOOTH",
"522.5 -6.895 OFFCURVE",
"675.5 98.95 OFFCURVE",
"675.5 305.693 CURVE SMOOTH",
"675.5 700.035 LINE",
"454.5 700.035 LINE",
"454.5 305.693 LINE SMOOTH",
"454.5 246.371 OFFCURVE",
"417.5 202.61 OFFCURVE",
"350.5 202.61 CURVE SMOOTH",
"283.5 202.61 OFFCURVE",
"249.5 246.371 OFFCURVE",
"249.5 305.693 CURVE SMOOTH",
"249.5 700.035 LINE",
"28.5 700.035 LINE"
);
}
);
width = 704;
},
{
anchors = (
{
name = ogonek;
position = "{434.75, 0}";
},
{
name = top;
position = "{361.75, 701}";
}
);
hints = (
{
place = "{80, 114}";
type = Stem;
},
{
place = "{529, 114}";
type = Stem;
},
{
horizontal = 1;
place = "{-7, 100}";
type = Stem;
},
{
horizontal = 1;
place = "{700, -20}";
target = down;
type = TopGhost;
}
);
layerId = "0CF0EA28-C756-4A9E-9D7C-CFEF350B4CFE";
paths = (
{
closed = 1;
nodes = (
"80.75 255.492 LINE SMOOTH",
"80.75 77.446 OFFCURVE",
"214.75 -7.05 OFFCURVE",
"360.75 -7.05 CURVE SMOOTH",
"505.75 -7.05 OFFCURVE",
"643.75 77.446 OFFCURVE",
"643.75 255.492 CURVE SMOOTH",
"643.75 700.328 LINE",
"529.75 700.328 LINE",
"529.75 253.478 LINE SMOOTH",
"529.75 144.474 OFFCURVE",
"458.75 93 OFFCURVE",
"361.75 93 CURVE SMOOTH",
"265.75 93 OFFCURVE",
"194.75 144.474 OFFCURVE",
"194.75 253.478 CURVE SMOOTH",
"194.75 700.328 LINE",
"80.75 700.328 LINE"
);
}
);
width = 724.5;
},
{
anchors = (
{
name = ogonek;
position = "{407.75, 0}";
},
{
name = top;
position = "{343.75, 679}";
}
);
hints = (
{
place = "{99, 20}";
type = Stem;
},
{
place = "{568, 20}";
type = Stem;
},
{
horizontal = 1;
place = "{-7, 21}";
target = up;
type = BottomGhost;
},
{
horizontal = 1;
place = "{700, -20}";
target = down;
type = TopGhost;
}
);
layerId = "0C5DB0F2-5B8B-4830-A1C2-9833713645D2";
paths = (
{
closed = 1;
nodes = (
"99.75 265.529 LINE SMOOTH",
"99.75 72.635 OFFCURVE",
"208.75 -6.909 OFFCURVE",
"346.75 -6.909 CURVE SMOOTH",
"484.75 -6.909 OFFCURVE",
"588.75 72.635 OFFCURVE",
"588.75 265.529 CURVE SMOOTH",
"588.75 700.038 LINE",
"568.75 700.038 LINE",
"568.75 265.529 LINE SMOOTH",
"568.75 78.601 OFFCURVE",
"468.75 10.988 OFFCURVE",
"346.75 10.988 CURVE SMOOTH",
"222.75 10.988 OFFCURVE",
"119.75 78.601 OFFCURVE",
"119.75 265.529 CURVE SMOOTH",
"119.75 700.038 LINE",
"99.75 700.038 LINE"
);
}
);
width = 688.5;
}
);
leftMetricsKey = "=H*0.95";
rightMetricsKey = "=H*0.95";
unicode = 0055;
},
{
glyphname = Uogonek;
lastChange = "2021-08-04 13:17:10 +0000";
layers = (
{
associatedMasterId = "0C5DB0F2-5B8B-4830-A1C2-9833713645D2";
layerId = "54F1100E-92ED-44B8-93D5-B56344D9E9A0";
name = "Sep 20 17, 19:51";
paths = (
{
closed = 1;
nodes = (
"80 267 LINE SMOOTH",
"80 93 OFFCURVE",
"170 10 OFFCURVE",
"286 -5 CURVE",
"254 -14 OFFCURVE",
"233 -47.882 OFFCURVE",
"233 -82 CURVE",
"233 -135 OFFCURVE",
"271 -177 OFFCURVE",
"348 -177 CURVE",
"416 -177 LINE",
"416 -157 LINE",
"348 -157 LINE SMOOTH",
"289 -157 OFFCURVE",
"253 -129 OFFCURVE",
"253 -82 CURVE",
"253 -39 OFFCURVE",
"283 -11 OFFCURVE",
"333 -7 CURVE SMOOTH",
"462 2 OFFCURVE",
"549 80 OFFCURVE",
"549 267 CURVE SMOOTH",
"549 704 LINE",
"529 704 LINE",
"529 267 LINE SMOOTH",
"529 60 OFFCURVE",
"426 11 OFFCURVE",
"317 11 CURVE SMOOTH",
"193 11 OFFCURVE",
"100 79 OFFCURVE",
"100 267 CURVE SMOOTH",
"100 704 LINE",
"80 704 LINE"
);
}
);
width = 629;
},
{
components = (
{
alignment = -1;
name = U;
},
{
name = ogonek;
transform = "{1, 0, 0, 0.994, 230, 0}";
}
);
layerId = "34B89C21-4068-454A-BBBC-B9295C834BF9";
width = 688;
},
{
components = (
{
alignment = -1;
name = U;
},
{
name = ogonek;
transform = "{1, 0, 0, 1.007, 223.012, 0}";
}
);
layerId = "24A19461-EE5C-48C0-A968-CC082199DAC2";
width = 724;
},
{
components = (
{
alignment = -1;
name = U;
},
{
name = ogonek;
transform = "{1, 0, 0, 0.985, 163.507, 4}";
}
);
layerId = "C06476A3-BC65-42D9-AE82-BE67E4874885";
width = 704;
},
{
components = (
{
alignment = -1;
name = U;
},
{
name = ogonek;
transform = "{1, 0, 0, 0.985, 163.003, 4}";
}
);
layerId = "F6DDAB16-9378-41C6-AF32-8CCAF9117681";
width = 704;
},
{
components = (
{
alignment = -1;
name = U;
},
{
name = ogonek;
transform = "{1, 0, 0, 1.007, 222.998, 0}";
}
);
layerId = "0CF0EA28-C756-4A9E-9D7C-CFEF350B4CFE";
width = 724.5;
},
{
components = (
{
alignment = -1;
name = U;
},
{
name = ogonek;
transform = "{1, 0, 0, 0.994, 229.997, 0}";
}
);
layerId = "0C5DB0F2-5B8B-4830-A1C2-9833713645D2";
width = 688.5;
}
);
leftMetricsKey = U;
rightMetricsKey = U;
unicode = 0172;
},
{
glyphname = V;
lastChange = "2021-08-04 11:39:15 +0000";
layers = (
{
hints = (
{
horizontal = 1;
place = "{700, -20}";
target = down;
type = TopGhost;
},
{
horizontal = 1;
place = "{0, 21}";
target = up;
type = BottomGhost;
}
);
layerId = "34B89C21-4068-454A-BBBC-B9295C834BF9";
paths = (
{
closed = 1;
nodes = (
"270.211 29.881 LINE",
"147.516 700.052 LINE",
"124.516 700.052 LINE",
"254.277 0.051 LINE",
"274.277 0.051 LINE",
"683.516 700.052 LINE",
"661.516 700.052 LINE"
);
}
);
width = 629;
},
{
hints = (
{
horizontal = 1;
place = "{0, 21}";
target = up;
type = BottomGhost;
},
{
horizontal = 1;
place = "{700, -20}";
target = down;
type = TopGhost;
}
);
layerId = "24A19461-EE5C-48C0-A968-CC082199DAC2";
paths = (
{
closed = 1;
nodes = (
"329.784 117.394 LINE",
"239.816 700.328 LINE",
"117.906 700.328 LINE",
"240.352 0 LINE",
"372.514 0 LINE",
"772.568 700.328 LINE",
"652.658 700.328 LINE"
);
}
);
width = 711.32334;
},
{
hints = (
{
horizontal = 1;
place = "{0, 21}";
target = up;
type = BottomGhost;
},
{
horizontal = 1;
place = "{700, -20}";
target = down;
type = TopGhost;
}
);
layerId = "C06476A3-BC65-42D9-AE82-BE67E4874885";
paths = (
{
closed = 1;
nodes = (
"386.507 219.391 LINE",
"335.825 700.035 LINE",
"99.515 700.035 LINE",
"199.176 0 LINE",
"485.558 0 LINE",
"863.71 700.035 LINE",
"627.399 700.035 LINE"
);
}
);
width = 784.19;
},
{
hints = (
{
horizontal = 1;
place = "{0, 21}";
target = up;
type = BottomGhost;
},
{
horizontal = 1;
place = "{700, -20}";
target = down;
type = TopGhost;
}
);
layerId = "F6DDAB16-9378-41C6-AF32-8CCAF9117681";
paths = (
{
closed = 1;
nodes = (
"392.6 219.391 LINE",
"246.312 700.035 LINE",
"10.003 700.035 LINE",
"248.909 0 LINE",
"535.291 0 LINE",
"774.197 700.035 LINE",
"537.887 700.035 LINE"
);
}
);
width = 784.2;
},
{
hints = (
{
horizontal = 1;
place = "{0, 21}";
target = up;
type = BottomGhost;
},
{
horizontal = 1;
place = "{700, -20}";
target = down;
type = TopGhost;
}
);
layerId = "0CF0EA28-C756-4A9E-9D7C-CFEF350B4CFE";
paths = (
{
closed = 1;
nodes = (
"356.163 117.394 LINE",
"150.242 700.328 LINE",
"28.332 700.328 LINE",
"290.082 0 LINE",
"422.244 0 LINE",
"682.995 700.328 LINE",
"563.084 700.328 LINE"
);
}
);
width = 711.32667;
},
{
hints = (
{
horizontal = 1;
place = "{700, -20}";
target = down;
type = TopGhost;
},
{
horizontal = 1;
place = "{0, 21}";
target = up;
type = BottomGhost;
}
);
layerId = "0C5DB0F2-5B8B-4830-A1C2-9833713645D2";
paths = (
{
closed = 1;
nodes = (
"314 29.881 LINE",
"58 700.052 LINE",
"35 700.052 LINE",
"304 0.051 LINE",
"324 0.051 LINE",
"594 700.052 LINE",
"572 700.052 LINE"
);
}
);
width = 629;
}
);
leftMetricsKey = "=H/3";
rightMetricsKey = "=H/3";
unicode = 0056;
},
{
glyphname = W;
lastChange = "2021-08-04 11:39:15 +0000";
layers = (
{
hints = (
{
place = "{198, 20}";
type = Stem;
},
{
horizontal = 1;
place = "{700, -20}";
target = down;
type = TopGhost;
},
{
horizontal = 1;
place = "{0, 21}";
target = up;
type = BottomGhost;
}
);
layerId = "34B89C21-4068-454A-BBBC-B9295C834BF9";
paths = (
{
closed = 1;
nodes = (
"534.101 667.114 LINE",
"610.27 0.051 LINE",
"630.27 0.051 LINE",
"958.521 700.038 LINE",
"936.521 700.038 LINE",
"627.738 37.498 LINE",
"551.521 700.038 LINE",
"529.521 700.038 LINE",
"191.977 39.881 LINE",
"146.521 700.038 LINE",
"124.521 700.038 LINE",
"174.27 0.051 LINE",
"192.27 0.051 LINE"
);
}
);
width = 904;
},
{
hints = (
{
place = "{634, 99}";
type = Stem;
},
{
horizontal = 1;
place = "{700, -20}";
target = down;
type = TopGhost;
}
);
layerId = "24A19461-EE5C-48C0-A968-CC082199DAC2";
paths = (
{
closed = 1;
nodes = (
"563.331 529.152 LINE",
"604.422 0 LINE",
"733.56 0 LINE",
"1078.659 700.328 LINE",
"956.721 700.328 LINE",
"698.647 132.087 LINE",
"666.849 700.328 LINE",
"538.718 700.328 LINE",
"269.439 129.74 LINE",
"238.849 700.328 LINE",
"117.905 700.328 LINE",
"175.221 -1.008 LINE",
"303.56 0 LINE"
);
}
);
width = 1017.41;
},
{
hints = (
{
place = "{162, 216}";
type = Stem;
},
{
place = "{612, 184}";
type = Stem;
},
{
horizontal = 1;
place = "{0, 21}";
target = up;
type = BottomGhost;
},
{
horizontal = 1;
place = "{700, -20}";
target = down;
type = TopGhost;
}
);
layerId = "C06476A3-BC65-42D9-AE82-BE67E4874885";
paths = (
{
closed = 1;
nodes = (
"559.625 397.011 LINE",
"562.88 0 LINE",
"838.42 0 LINE",
"1140.274 700.035 LINE",
"901.064 700.035 LINE",
"749.07 259.974 LINE",
"740.668 700.035 LINE",
"499.126 700.035 LINE",
"315.686 260.063 LINE",
"338.73 700.035 LINE",
"99.52 700.035 LINE",
"122.9 0 LINE",
"398.44 0 LINE"
);
}
);
width = 1060.76;
},
{
hints = (
{
horizontal = 1;
place = "{0, 21}";
target = up;
type = BottomGhost;
},
{
horizontal = 1;
place = "{700, -20}";
target = down;
type = TopGhost;
}
);
layerId = "F6DDAB16-9378-41C6-AF32-8CCAF9117681";
paths = (
{
closed = 1;
nodes = (
"530.38 397.011 LINE",
"612.6 0 LINE",
"888.14 0 LINE",
"1050.757 700.035 LINE",
"811.547 700.035 LINE",
"747.081 259.974 LINE",
"651.151 700.035 LINE",
"409.609 700.035 LINE",
"313.679 260.063 LINE",
"249.213 700.035 LINE",
"10.003 700.035 LINE",
"172.62 0 LINE",
"448.16 0 LINE"
);
}
);
width = 1060.76;
},
{
hints = (
{
horizontal = 1;
place = "{700, -20}";
target = down;
type = TopGhost;
}
);
layerId = "0CF0EA28-C756-4A9E-9D7C-CFEF350B4CFE";
paths = (
{
closed = 1;
nodes = (
"507.802 529.152 LINE",
"654.142 0 LINE",
"783.28 0 LINE",
"989.084 700.328 LINE",
"867.146 700.328 LINE",
"722.095 132.087 LINE",
"577.274 700.328 LINE",
"449.143 700.328 LINE",
"293.354 129.74 LINE",
"149.274 700.328 LINE",
"28.33 700.328 LINE",
"225.142 -1.008 LINE",
"353.28 0 LINE"
);
}
);
width = 1017.41;
},
{
hints = (
{
horizontal = 1;
place = "{700, -20}";
target = down;
type = TopGhost;
},
{
horizontal = 1;
place = "{0, 21}";
target = up;
type = BottomGhost;
}
);
layerId = "0C5DB0F2-5B8B-4830-A1C2-9833713645D2";
paths = (
{
closed = 1;
nodes = (
"451.13 667.114 LINE",
"660 0.051 LINE",
"680 0.051 LINE",
"869 700.038 LINE",
"847 700.038 LINE",
"670.019 37.498 LINE",
"462 700.038 LINE",
"440 700.038 LINE",
"233.783 39.881 LINE",
"57 700.038 LINE",
"35 700.038 LINE",
"224 0.051 LINE",
"242 0.051 LINE"
);
}
);
width = 904;
}
);
leftMetricsKey = V;
rightMetricsKey = V;
unicode = 0057;
},
{
glyphname = X;
lastChange = "2021-08-04 13:17:27 +0000";
layers = (
{
hints = (
{
horizontal = 1;
place = "{700, -20}";
target = down;
type = TopGhost;
},
{
horizontal = 1;
place = "{0, 21}";
target = up;
type = BottomGhost;
}
);
layerId = "34B89C21-4068-454A-BBBC-B9295C834BF9";
paths = (
{
closed = 1;
nodes = (
"437.21 0.051 LINE",
"460.21 0.051 LINE",
"182.449 700.052 LINE",
"159.449 700.052 LINE"
);
},
{
closed = 1;
nodes = (
"307.587 368.944 LINE",
"20.21 0.051 LINE",
"43.21 0.051 LINE",
"321.61 359 LINE"
);
},
{
closed = 1;
nodes = (
"316.841 345.08 LINE",
"599.449 700.052 LINE",
"576.449 700.052 LINE",
"302.819 355.023 LINE"
);
}
);
width = 579.86;
},
{
hints = (
{
horizontal = 1;
place = "{0, 21}";
target = up;
type = BottomGhost;
},
{
horizontal = 1;
place = "{700, -20}";
target = down;
type = TopGhost;
}
);
layerId = "24A19461-EE5C-48C0-A968-CC082199DAC2";
paths = (
{
closed = 1;
nodes = (
"438.473 0 LINE",
"566.255 0 LINE",
"273.971 700.328 LINE",
"146.189 700.328 LINE"
);
},
{
closed = 1;
nodes = (
"318.192 380.2 LINE",
"7.885 0 LINE",
"134.666 0 LINE",
"361.485 291.724 LINE"
);
},
{
closed = 1;
nodes = (
"396.053 319.129 LINE",
"706.559 700.328 LINE",
"579.778 700.328 LINE",
"352.76 407.604 LINE"
);
}
);
width = 673.59;
},
{
hints = (
{
horizontal = 1;
place = "{0, 21}";
target = up;
type = BottomGhost;
},
{
horizontal = 1;
place = "{700, -20}";
target = down;
type = TopGhost;
}
);
layerId = "C06476A3-BC65-42D9-AE82-BE67E4874885";
paths = (
{
closed = 1;
nodes = (
"473.163 0 LINE",
"737.265 0 LINE",
"373.603 700.035 LINE",
"109.501 700.035 LINE"
);
},
{
closed = 1;
nodes = (
"328.713 411.849 LINE",
"-19.56 0 LINE",
"234.369 0 LINE",
"426.162 240.839 LINE"
);
},
{
closed = 1;
nodes = (
"509.251 289.173 LINE",
"857.329 700.035 LINE",
"603.396 700.035 LINE",
"412.805 460.184 LINE"
);
}
);
width = 806.97;
},
{
hints = (
{
horizontal = 1;
place = "{700, -20}";
target = down;
type = TopGhost;
},
{
horizontal = 1;
place = "{0, 21}";
target = up;
type = BottomGhost;
}
);
layerId = "F6DDAB16-9378-41C6-AF32-8CCAF9117681";
paths = (
{
closed = 1;
nodes = (
"522.883 0 LINE",
"786.985 0 LINE",
"284.077 700.035 LINE",
"19.975 700.035 LINE"
);
},
{
closed = 1;
nodes = (
"296.511 411.849 LINE",
"30.16 0 LINE",
"284.089 0 LINE",
"427.976 240.839 LINE"
);
},
{
closed = 1;
nodes = (
"501.451 289.173 LINE",
"767.804 700.035 LINE",
"513.871 700.035 LINE",
"370.988 460.184 LINE"
);
}
);
width = 806.96;
},
{
hints = (
{
horizontal = 1;
place = "{700, -20}";
target = down;
type = TopGhost;
},
{
horizontal = 1;
place = "{0, 21}";
target = up;
type = BottomGhost;
}
);
layerId = "0CF0EA28-C756-4A9E-9D7C-CFEF350B4CFE";
paths = (
{
closed = 1;
nodes = (
"488.193 0 LINE",
"615.975 0 LINE",
"184.387 700.328 LINE",
"56.605 700.328 LINE"
);
},
{
closed = 1;
nodes = (
"292.285 380.2 LINE",
"57.605 0 LINE",
"184.386 0 LINE",
"353.177 291.724 LINE"
);
},
{
closed = 1;
nodes = (
"382.295 319.129 LINE",
"616.975 700.328 LINE",
"490.194 700.328 LINE",
"321.403 407.604 LINE"
);
}
);
width = 673.58;
},
{
hints = (
{
horizontal = 1;
place = "{700, -20}";
target = down;
type = TopGhost;
},
{
horizontal = 1;
place = "{0, 21}";
target = up;
type = BottomGhost;
}
);
layerId = "0C5DB0F2-5B8B-4830-A1C2-9833713645D2";
paths = (
{
closed = 1;
nodes = (
"486.93 0.051 LINE",
"509.93 0.051 LINE",
"92.93 700.052 LINE",
"69.93 700.052 LINE"
);
},
{
closed = 1;
nodes = (
"283.93 368.944 LINE",
"69.93 0.051 LINE",
"92.93 0.051 LINE",
"299.93 359 LINE"
);
},
{
closed = 1;
nodes = (
"297.93 345.08 LINE",
"509.93 700.052 LINE",
"486.93 700.052 LINE",
"281.93 355.023 LINE"
);
}
);
width = 579.86;
}
);
leftMetricsKey = "=H*0.666";
rightMetricsKey = "=H*0.666";
unicode = 0058;
},
